<svg width="33" height="33" viewBox="0 0 33 33" fill="none" xmlns="http://www.w3.org/2000/svg">
<path d="M6.53524 6.60156H27.6691C29.6629 6.60156 30.6677 7.54262 30.6677 9.45663V22.8866C30.6677 24.7847 29.6629 25.7417 27.6691 25.7417H6.53524C4.54148 25.7417 3.53662 24.7847 3.53662 22.8866V9.45663C3.53662 7.54262 4.54148 6.60156 6.53524 6.60156ZM17.0942 20.3186L27.8445 11.4982C28.2273 11.1792 28.5304 10.4455 28.0519 9.79158C27.5893 9.13763 26.744 9.12168 26.1857 9.52043L17.0942 15.6772L8.01859 9.52043C7.46034 9.12168 6.61499 9.13763 6.15243 9.79158C5.67393 10.4455 5.97698 11.1792 6.35979 11.4982L17.0942 20.3186Z" fill="#0E0F1D"/>
</svg>
