<svg width="38" height="39" viewBox="0 0 38 39" fill="none" xmlns="http://www.w3.org/2000/svg">
<path d="M33.091 3.34082H4.90768C4.44576 3.34082 4.00276 3.52432 3.67614 3.85094C3.34951 4.17757 3.16602 4.62057 3.16602 5.08249V33.2658C3.16602 33.4945 3.21107 33.721 3.29859 33.9323C3.38612 34.1436 3.51441 34.3356 3.67614 34.4974C3.83787 34.6591 4.02987 34.7874 4.24118 34.8749C4.45248 34.9624 4.67896 35.0075 4.90768 35.0075H20.076V22.7367H15.9593V17.9867H20.076V14.4242C19.9907 13.5878 20.0895 12.7429 20.3653 11.9487C20.6411 11.1545 21.0874 10.4303 21.6728 9.8268C22.2581 9.22334 22.9684 8.75525 23.7538 8.45536C24.5392 8.15548 25.3808 8.03105 26.2193 8.09082C27.4517 8.08324 28.6835 8.14667 29.9085 8.28082V12.5558H27.391C25.396 12.5558 25.016 13.5058 25.016 14.8833V17.9392H29.766L29.1485 22.6892H25.016V35.0075H33.091C33.3197 35.0075 33.5462 34.9624 33.7575 34.8749C33.9688 34.7874 34.1608 34.6591 34.3226 34.4974C34.4843 34.3356 34.6126 34.1436 34.7001 33.9323C34.7876 33.721 34.8327 33.4945 34.8327 33.2658V5.08249C34.8327 4.85377 34.7876 4.62729 34.7001 4.41598C34.6126 4.20467 34.4843 4.01267 34.3226 3.85094C34.1608 3.68921 33.9688 3.56092 33.7575 3.4734C33.5462 3.38587 33.3197 3.34082 33.091 3.34082Z" fill="black"/>
</svg>
