<svg width="217" height="67" viewBox="0 0 217 67" fill="none" xmlns="http://www.w3.org/2000/svg">
<g filter="url(#filter0_d_189_1842)">
<rect x="4" width="209" height="58.7139" rx="10.7732" fill="#48C858"/>
<g clip-path="url(#clip0_189_1842)" filter="url(#filter1_d_189_1842)">
<path d="M57.2757 14.0668C53.0729 9.86105 47.4843 7.54358 41.53 7.54102C29.2604 7.54102 19.2754 17.5229 19.2704 29.792C19.269 33.7138 20.2937 37.5421 22.2415 40.9167L19.0836 52.4474L30.8836 49.3532C34.1348 51.1263 37.7953 52.0606 41.5205 52.0621H41.5299H41.53C53.7977 52.0621 63.7842 42.0785 63.7894 29.81C63.7915 23.8638 61.4781 18.2729 57.2757 14.0668ZM41.53 48.3038H41.5228C38.2024 48.3021 34.9463 47.4106 32.1062 45.7254L31.4303 45.3247L24.4279 47.1606L26.2975 40.3358L25.8571 39.6361C24.005 36.6912 23.0272 33.2879 23.0286 29.7934C23.0327 19.5957 31.3318 11.2994 41.537 11.2994C46.4789 11.3015 51.1237 13.2278 54.617 16.7235C58.1101 20.2192 60.0324 24.8662 60.0309 29.8084C60.0266 40.0064 51.7272 48.3038 41.53 48.3038Z" fill="#E0E0E0"/>
<path d="M20.1054 51.1681L23.1191 40.1641C21.2598 36.9437 20.2821 33.29 20.2833 29.548C20.2881 17.8396 29.8171 8.31396 41.5253 8.31396C47.2078 8.31653 52.5413 10.528 56.5513 14.5418C60.5621 18.5555 62.7696 23.8907 62.7673 29.5646C62.7624 41.2733 53.2328 50.7997 41.5261 50.7997C41.5253 50.7997 41.5267 50.7997 41.5261 50.7997H41.5167C37.9617 50.7986 34.4687 49.9062 31.3662 48.2154L20.1054 51.1681Z" fill="url(#paint0_linear_189_1842)"/>
<path fill-rule="evenodd" clip-rule="evenodd" d="M36.0295 20.3452C35.6176 19.4296 35.184 19.4113 34.7923 19.3952C34.4718 19.3815 34.1049 19.3823 33.7386 19.3823C33.3721 19.3823 32.7764 19.5201 32.2726 20.0703C31.7686 20.6204 30.3481 21.9504 30.3481 24.6553C30.3481 27.3606 32.3184 29.9744 32.5931 30.3416C32.868 30.7082 36.3966 36.4365 41.9849 38.6403C46.6293 40.4717 47.5744 40.1074 48.5825 40.0158C49.5906 39.9241 51.8353 38.6861 52.2935 37.4022C52.7517 36.1186 52.7517 35.0183 52.6142 34.7883C52.4768 34.5592 52.1102 34.4217 51.5603 34.1468C51.0105 33.8719 48.3075 32.5416 47.8035 32.3583C47.2994 32.175 46.9329 32.0834 46.5663 32.6338C46.1997 33.1837 45.1466 34.4217 44.8259 34.7883C44.5051 35.1557 44.1844 35.2016 43.6345 34.9266C43.0846 34.6508 41.3139 34.0709 39.2133 32.1979C37.5788 30.7407 36.4754 28.9411 36.1546 28.3906C35.8338 27.8408 36.1202 27.5429 36.396 27.2688C36.6429 27.0225 36.9459 26.627 37.2208 26.306C37.4952 25.9849 37.5868 25.7558 37.7701 25.3893C37.9534 25.0221 37.8618 24.7011 37.7243 24.4261C37.5868 24.1512 36.5183 21.4323 36.0295 20.3452Z" fill="white"/>
<path d="M57.0939 13.9958C52.9393 9.83834 47.4148 7.54752 41.529 7.54492C29.4001 7.54492 19.5297 17.4122 19.5249 29.5404C19.5234 33.4173 20.5364 37.2016 22.4618 40.5375L19.3401 51.9358L31.0048 48.8771C34.2186 50.6298 37.8371 51.5534 41.5195 51.5548H41.5289H41.529C53.6558 51.5548 63.5276 41.6859 63.5328 29.5582C63.5348 23.6803 61.248 18.1536 57.0939 13.9958ZM41.529 47.8398H41.5218C38.2395 47.8381 35.0208 46.9569 32.2133 45.291L31.5452 44.8949L24.6232 46.7097L26.4712 39.9633L26.0359 39.2717C24.205 36.3605 23.2385 32.9963 23.2399 29.5419C23.2439 19.4613 31.4478 11.2603 41.5359 11.2603C46.4211 11.2623 51.0125 13.1665 54.4658 16.622C57.9187 20.0776 59.8189 24.6713 59.8175 29.5568C59.8132 39.6377 51.609 47.8398 41.529 47.8398Z" fill="white"/>
</g>
<path d="M86.9042 35.4941H83.1871V24.5251H86.9792C88.0682 24.5251 89.0037 24.7447 89.7857 25.1839C90.5713 25.6195 91.1747 26.2461 91.596 27.0638C92.0174 27.8815 92.2281 28.8599 92.2281 29.9989C92.2281 31.1415 92.0156 32.1234 91.5907 32.9447C91.1693 33.7659 90.5606 34.3962 89.7643 34.8354C88.9716 35.2745 88.0182 35.4941 86.9042 35.4941ZM85.1742 33.7749H86.8078C87.5719 33.7749 88.2093 33.6356 88.7199 33.3571C89.2305 33.075 89.6143 32.6555 89.8714 32.0984C90.1285 31.5378 90.257 30.838 90.257 29.9989C90.257 29.1598 90.1285 28.4635 89.8714 27.9101C89.6143 27.353 89.2341 26.9371 88.7306 26.6621C88.2307 26.3836 87.6094 26.2443 86.8667 26.2443H85.1742V33.7749ZM94.0303 35.4941V27.2673H95.9103V28.6385H95.996C96.146 28.1636 96.403 27.7976 96.7673 27.5405C97.135 27.2798 97.5546 27.1495 98.0259 27.1495C98.133 27.1495 98.2526 27.1549 98.3848 27.1656C98.5204 27.1727 98.6329 27.1852 98.7222 27.2031V28.9866C98.6401 28.958 98.5097 28.933 98.3312 28.9116C98.1562 28.8866 97.9866 28.8741 97.8224 28.8741C97.4689 28.8741 97.1511 28.9509 96.869 29.1044C96.5905 29.2544 96.3709 29.4633 96.2102 29.7311C96.0496 29.9989 95.9692 30.3078 95.9692 30.6577V35.4941H94.0303ZM103.26 35.6548C102.457 35.6548 101.76 35.4781 101.171 35.1246C100.582 34.7711 100.125 34.2765 99.8001 33.641C99.4787 33.0054 99.318 32.2627 99.318 31.4129C99.318 30.5631 99.4787 29.8186 99.8001 29.1794C100.125 28.5403 100.582 28.044 101.171 27.6905C101.76 27.337 102.457 27.1602 103.26 27.1602C104.063 27.1602 104.76 27.337 105.349 27.6905C105.938 28.044 106.393 28.5403 106.715 29.1794C107.04 29.8186 107.202 30.5631 107.202 31.4129C107.202 32.2627 107.04 33.0054 106.715 33.641C106.393 34.2765 105.938 34.7711 105.349 35.1246C104.76 35.4781 104.063 35.6548 103.26 35.6548ZM103.271 34.1016C103.706 34.1016 104.071 33.982 104.363 33.7427C104.656 33.4999 104.874 33.175 105.017 32.7679C105.163 32.3609 105.236 31.9074 105.236 31.4075C105.236 30.9041 105.163 30.4488 105.017 30.0417C104.874 29.6311 104.656 29.3044 104.363 29.0616C104.071 28.8188 103.706 28.6974 103.271 28.6974C102.824 28.6974 102.453 28.8188 102.157 29.0616C101.864 29.3044 101.644 29.6311 101.498 30.0417C101.355 30.4488 101.284 30.9041 101.284 31.4075C101.284 31.9074 101.355 32.3609 101.498 32.7679C101.644 33.175 101.864 33.4999 102.157 33.7427C102.453 33.982 102.824 34.1016 103.271 34.1016ZM108.848 38.5792V27.2673H110.754V28.6278H110.867C110.967 28.4278 111.108 28.2153 111.29 27.9904C111.472 27.7619 111.719 27.5673 112.029 27.4066C112.34 27.2423 112.736 27.1602 113.218 27.1602C113.854 27.1602 114.427 27.3227 114.937 27.6476C115.452 27.969 115.859 28.4457 116.159 29.0777C116.462 29.7061 116.614 30.4774 116.614 31.3915C116.614 32.2948 116.466 33.0625 116.169 33.6945C115.873 34.3265 115.469 34.8086 114.959 35.1406C114.448 35.4727 113.87 35.6388 113.224 35.6388C112.752 35.6388 112.361 35.5602 112.051 35.4031C111.74 35.246 111.49 35.0567 111.301 34.8354C111.115 34.6104 110.97 34.3979 110.867 34.198H110.787V38.5792H108.848ZM110.749 31.3807C110.749 31.9128 110.824 32.3787 110.974 32.7787C111.128 33.1786 111.347 33.491 111.633 33.716C111.922 33.9373 112.272 34.048 112.683 34.048C113.111 34.048 113.47 33.9338 113.759 33.7052C114.048 33.4731 114.266 33.1571 114.413 32.7572C114.563 32.3537 114.638 31.8949 114.638 31.3807C114.638 30.8701 114.564 30.4167 114.418 30.0203C114.272 29.624 114.054 29.3133 113.764 29.0884C113.475 28.8634 113.115 28.7509 112.683 28.7509C112.268 28.7509 111.917 28.8599 111.627 29.0777C111.338 29.2955 111.119 29.6008 110.969 29.9935C110.822 30.3863 110.749 30.8487 110.749 31.3807ZM124.383 35.6602C123.861 35.6602 123.392 35.5673 122.974 35.3817C122.56 35.1924 122.231 34.9139 121.989 34.5461C121.749 34.1784 121.63 33.7249 121.63 33.1857C121.63 32.7215 121.715 32.3377 121.887 32.0342C122.058 31.7307 122.292 31.4879 122.588 31.3058C122.885 31.1237 123.219 30.9862 123.59 30.8933C123.965 30.7969 124.352 30.7273 124.752 30.6845C125.234 30.6345 125.625 30.5898 125.925 30.5506C126.225 30.5077 126.443 30.4434 126.579 30.3577C126.718 30.2685 126.788 30.131 126.788 29.9453V29.9132C126.788 29.5097 126.668 29.1973 126.429 28.9759C126.19 28.7545 125.845 28.6438 125.395 28.6438C124.92 28.6438 124.543 28.7474 124.265 28.9545C123.99 29.1616 123.804 29.4062 123.708 29.6882L121.898 29.4312C122.04 28.9313 122.276 28.5135 122.605 28.1779C122.933 27.8386 123.335 27.5851 123.81 27.4173C124.285 27.2459 124.809 27.1602 125.384 27.1602C125.781 27.1602 126.175 27.2066 126.568 27.2995C126.961 27.3923 127.32 27.5458 127.645 27.7601C127.969 27.9708 128.23 28.2582 128.427 28.6224C128.626 28.9866 128.726 29.4419 128.726 29.9882V35.4941H126.863V34.364H126.798C126.68 34.5925 126.514 34.8068 126.3 35.0067C126.09 35.2031 125.824 35.362 125.502 35.4834C125.184 35.6013 124.811 35.6602 124.383 35.6602ZM124.886 34.2355C125.275 34.2355 125.613 34.1587 125.898 34.0052C126.184 33.8481 126.404 33.641 126.557 33.3839C126.714 33.1268 126.793 32.8465 126.793 32.543V31.5736C126.732 31.6235 126.629 31.67 126.482 31.7128C126.339 31.7557 126.179 31.7931 126 31.8253C125.822 31.8574 125.645 31.886 125.47 31.911C125.295 31.936 125.143 31.9574 125.015 31.9753C124.726 32.0145 124.467 32.0788 124.238 32.1681C124.01 32.2573 123.829 32.3823 123.697 32.543C123.565 32.7001 123.499 32.9036 123.499 33.1536C123.499 33.5106 123.629 33.7802 123.89 33.9623C124.151 34.1444 124.483 34.2355 124.886 34.2355ZM134.417 35.4941V27.2673H136.27V28.6652H136.367C136.538 28.1939 136.822 27.8261 137.218 27.5619C137.615 27.2941 138.088 27.1602 138.638 27.1602C139.195 27.1602 139.664 27.2959 140.046 27.5673C140.432 27.8351 140.703 28.2011 140.86 28.6652H140.946C141.128 28.2082 141.435 27.844 141.867 27.5726C142.303 27.2977 142.819 27.1602 143.415 27.1602C144.172 27.1602 144.79 27.3995 145.268 27.8779C145.747 28.3564 145.986 29.0545 145.986 29.9721V35.4941H144.042V30.272C144.042 29.7614 143.906 29.3883 143.635 29.1526C143.363 28.9134 143.031 28.7938 142.639 28.7938C142.171 28.7938 141.805 28.9402 141.541 29.233C141.28 29.5222 141.15 29.8989 141.15 30.3631V35.4941H139.248V30.1917C139.248 29.7668 139.12 29.4276 138.863 29.1741C138.609 28.9206 138.277 28.7938 137.866 28.7938C137.588 28.7938 137.334 28.8652 137.106 29.008C136.877 29.1473 136.695 29.3455 136.56 29.6025C136.424 29.8561 136.356 30.1524 136.356 30.4916V35.4941H134.417ZM151.595 35.6548C150.77 35.6548 150.058 35.4834 149.458 35.1406C148.862 34.7943 148.403 34.3051 148.082 33.6731C147.76 33.0375 147.6 32.2895 147.6 31.4289C147.6 30.5827 147.76 29.84 148.082 29.2008C148.407 28.5581 148.86 28.0582 149.442 27.7012C150.024 27.3405 150.708 27.1602 151.493 27.1602C152 27.1602 152.479 27.2423 152.929 27.4066C153.382 27.5673 153.782 27.8172 154.129 28.1564C154.479 28.4956 154.753 28.9277 154.953 29.4526C155.153 29.9739 155.253 30.5952 155.253 31.3165V31.911H148.51V30.6041H153.395C153.391 30.2328 153.311 29.9025 153.154 29.6133C152.997 29.3205 152.777 29.0902 152.495 28.9223C152.217 28.7545 151.892 28.6706 151.52 28.6706C151.124 28.6706 150.776 28.767 150.476 28.9598C150.176 29.1491 149.942 29.399 149.774 29.7097C149.61 30.0167 149.526 30.3542 149.522 30.722V31.8628C149.522 32.3412 149.61 32.7519 149.785 33.0947C149.96 33.4339 150.204 33.6945 150.519 33.8766C150.833 34.0552 151.201 34.1444 151.622 34.1444C151.904 34.1444 152.159 34.1052 152.388 34.0266C152.616 33.9445 152.815 33.8249 152.982 33.6677C153.15 33.5106 153.277 33.316 153.363 33.0839L155.173 33.2875C155.059 33.7659 154.841 34.1837 154.52 34.5408C154.202 34.8943 153.795 35.1692 153.298 35.3656C152.802 35.5584 152.234 35.6548 151.595 35.6548ZM163.396 29.4419L161.628 29.6347C161.578 29.4562 161.491 29.2883 161.366 29.1312C161.244 28.9741 161.08 28.8474 160.873 28.7509C160.666 28.6545 160.413 28.6063 160.113 28.6063C159.709 28.6063 159.37 28.6938 159.095 28.8688C158.824 29.0437 158.69 29.2705 158.693 29.549C158.69 29.7882 158.777 29.9828 158.956 30.1328C159.138 30.2828 159.438 30.4059 159.855 30.5024L161.259 30.8023C162.037 30.9701 162.616 31.2361 162.994 31.6003C163.376 31.9645 163.569 32.4412 163.573 33.0304C163.569 33.5481 163.417 34.0052 163.117 34.4015C162.821 34.7943 162.409 35.1014 161.88 35.3227C161.352 35.5441 160.745 35.6548 160.059 35.6548C159.052 35.6548 158.242 35.4442 157.627 35.0228C157.013 34.5979 156.647 34.007 156.529 33.25L158.42 33.0679C158.506 33.4392 158.688 33.7195 158.966 33.9088C159.245 34.098 159.607 34.1926 160.054 34.1926C160.514 34.1926 160.884 34.098 161.162 33.9088C161.444 33.7195 161.585 33.4856 161.585 33.2071C161.585 32.9715 161.494 32.7769 161.312 32.6233C161.134 32.4698 160.855 32.352 160.477 32.2698L159.074 31.9753C158.284 31.811 157.701 31.5343 157.322 31.1451C156.944 30.7523 156.756 30.256 156.76 29.6561C156.756 29.1491 156.894 28.7099 157.172 28.3385C157.454 27.9636 157.845 27.6744 158.345 27.4709C158.849 27.2638 159.429 27.1602 160.086 27.1602C161.05 27.1602 161.809 27.3655 162.362 27.7762C162.919 28.1868 163.264 28.742 163.396 29.4419ZM171.673 29.4419L169.906 29.6347C169.856 29.4562 169.769 29.2883 169.644 29.1312C169.522 28.9741 169.358 28.8474 169.151 28.7509C168.944 28.6545 168.69 28.6063 168.39 28.6063C167.987 28.6063 167.648 28.6938 167.373 28.8688C167.101 29.0437 166.967 29.2705 166.971 29.549C166.967 29.7882 167.055 29.9828 167.233 30.1328C167.415 30.2828 167.715 30.4059 168.133 30.5024L169.536 30.8023C170.315 30.9701 170.893 31.2361 171.272 31.6003C171.654 31.9645 171.847 32.4412 171.85 33.0304C171.847 33.5481 171.695 34.0052 171.395 34.4015C171.099 34.7943 170.686 35.1014 170.158 35.3227C169.629 35.5441 169.022 35.6548 168.337 35.6548C167.33 35.6548 166.519 35.4442 165.905 35.0228C165.291 34.5979 164.925 34.007 164.807 33.25L166.698 33.0679C166.783 33.4392 166.966 33.7195 167.244 33.9088C167.523 34.098 167.885 34.1926 168.331 34.1926C168.792 34.1926 169.162 34.098 169.44 33.9088C169.722 33.7195 169.863 33.4856 169.863 33.2071C169.863 32.9715 169.772 32.7769 169.59 32.6233C169.411 32.4698 169.133 32.352 168.754 32.2698L167.351 31.9753C166.562 31.811 165.978 31.5343 165.6 31.1451C165.221 30.7523 165.034 30.256 165.037 29.6561C165.034 29.1491 165.171 28.7099 165.45 28.3385C165.732 27.9636 166.123 27.6744 166.623 27.4709C167.126 27.2638 167.706 27.1602 168.363 27.1602C169.328 27.1602 170.086 27.3655 170.64 27.7762C171.197 28.1868 171.541 28.742 171.673 29.4419ZM175.816 35.6602C175.295 35.6602 174.825 35.5673 174.408 35.3817C173.994 35.1924 173.665 34.9139 173.422 34.5461C173.183 34.1784 173.063 33.7249 173.063 33.1857C173.063 32.7215 173.149 32.3377 173.32 32.0342C173.492 31.7307 173.726 31.4879 174.022 31.3058C174.318 31.1237 174.652 30.9862 175.024 30.8933C175.399 30.7969 175.786 30.7273 176.186 30.6845C176.668 30.6345 177.059 30.5898 177.359 30.5506C177.659 30.5077 177.877 30.4434 178.012 30.3577C178.152 30.2685 178.221 30.131 178.221 29.9453V29.9132C178.221 29.5097 178.102 29.1973 177.862 28.9759C177.623 28.7545 177.279 28.6438 176.829 28.6438C176.354 28.6438 175.977 28.7474 175.699 28.9545C175.424 29.1616 175.238 29.4062 175.141 29.6882L173.331 29.4312C173.474 28.9313 173.71 28.5135 174.038 28.1779C174.367 27.8386 174.768 27.5851 175.243 27.4173C175.718 27.2459 176.243 27.1602 176.818 27.1602C177.214 27.1602 177.609 27.2066 178.002 27.2995C178.394 27.3923 178.753 27.5458 179.078 27.7601C179.403 27.9708 179.664 28.2582 179.86 28.6224C180.06 28.9866 180.16 29.4419 180.16 29.9882V35.4941H178.296V34.364H178.232C178.114 34.5925 177.948 34.8068 177.734 35.0067C177.523 35.2031 177.257 35.362 176.936 35.4834C176.618 35.6013 176.245 35.6602 175.816 35.6602ZM176.32 34.2355C176.709 34.2355 177.046 34.1587 177.332 34.0052C177.618 33.8481 177.837 33.641 177.991 33.3839C178.148 33.1268 178.227 32.8465 178.227 32.543V31.5736C178.166 31.6235 178.062 31.67 177.916 31.7128C177.773 31.7557 177.612 31.7931 177.434 31.8253C177.255 31.8574 177.079 31.886 176.904 31.911C176.729 31.936 176.577 31.9574 176.448 31.9753C176.159 32.0145 175.9 32.0788 175.672 32.1681C175.443 32.2573 175.263 32.3823 175.131 32.543C174.999 32.7001 174.933 32.9036 174.933 33.1536C174.933 33.5106 175.063 33.7802 175.324 33.9623C175.584 34.1444 175.916 34.2355 176.32 34.2355ZM185.687 38.7506C184.991 38.7506 184.393 38.656 183.893 38.4667C183.393 38.281 182.992 38.0311 182.688 37.7169C182.385 37.4027 182.174 37.0545 182.056 36.6725L183.802 36.2493C183.881 36.41 183.995 36.5689 184.145 36.726C184.295 36.8867 184.497 37.0188 184.75 37.1224C185.007 37.2295 185.33 37.283 185.72 37.283C186.269 37.283 186.725 37.1491 187.085 36.8813C187.446 36.6171 187.626 36.1815 187.626 35.5745V34.0159H187.53C187.43 34.2158 187.284 34.4212 187.091 34.6318C186.901 34.8425 186.65 35.0192 186.336 35.1621C186.025 35.3049 185.634 35.3763 185.163 35.3763C184.531 35.3763 183.957 35.2281 183.443 34.9318C182.933 34.6318 182.526 34.1855 182.222 33.5928C181.922 32.9965 181.772 32.2502 181.772 31.354C181.772 30.4506 181.922 29.6882 182.222 29.0669C182.526 28.4421 182.934 27.969 183.449 27.6476C183.963 27.3227 184.536 27.1602 185.168 27.1602C185.65 27.1602 186.046 27.2423 186.357 27.4066C186.671 27.5673 186.921 27.7619 187.107 27.9904C187.292 28.2153 187.433 28.4278 187.53 28.6278H187.637V27.2673H189.549V35.628C189.549 36.3315 189.381 36.9135 189.046 37.3741C188.71 37.8347 188.251 38.1793 187.669 38.4078C187.087 38.6363 186.427 38.7506 185.687 38.7506ZM185.704 33.8552C186.114 33.8552 186.464 33.7552 186.753 33.5553C187.043 33.3553 187.262 33.0679 187.412 32.693C187.562 32.318 187.637 31.8681 187.637 31.3432C187.637 30.8255 187.562 30.372 187.412 29.9828C187.266 29.5936 187.048 29.2919 186.759 29.0777C186.473 28.8599 186.121 28.7509 185.704 28.7509C185.271 28.7509 184.911 28.8634 184.622 29.0884C184.332 29.3133 184.115 29.6222 183.968 30.015C183.822 30.4042 183.749 30.8469 183.749 31.3432C183.749 31.8467 183.822 32.2877 183.968 32.6662C184.118 33.0411 184.338 33.3339 184.627 33.5446C184.92 33.7517 185.279 33.8552 185.704 33.8552ZM195.178 35.6548C194.353 35.6548 193.641 35.4834 193.041 35.1406C192.445 34.7943 191.986 34.3051 191.665 33.6731C191.343 33.0375 191.183 32.2895 191.183 31.4289C191.183 30.5827 191.343 29.84 191.665 29.2008C191.99 28.5581 192.443 28.0582 193.025 27.7012C193.607 27.3405 194.291 27.1602 195.076 27.1602C195.584 27.1602 196.062 27.2423 196.512 27.4066C196.965 27.5673 197.365 27.8172 197.712 28.1564C198.062 28.4956 198.337 28.9277 198.536 29.4526C198.736 29.9739 198.836 30.5952 198.836 31.3165V31.911H192.093V30.6041H196.978C196.974 30.2328 196.894 29.9025 196.737 29.6133C196.58 29.3205 196.36 29.0902 196.078 28.9223C195.8 28.7545 195.475 28.6706 195.103 28.6706C194.707 28.6706 194.359 28.767 194.059 28.9598C193.759 29.1491 193.525 29.399 193.357 29.7097C193.193 30.0167 193.109 30.3542 193.105 30.722V31.8628C193.105 32.3412 193.193 32.7519 193.368 33.0947C193.543 33.4339 193.787 33.6945 194.102 33.8766C194.416 34.0552 194.784 34.1444 195.205 34.1444C195.487 34.1444 195.742 34.1052 195.971 34.0266C196.199 33.9445 196.398 33.8249 196.565 33.6677C196.733 33.5106 196.86 33.316 196.946 33.0839L198.756 33.2875C198.642 33.7659 198.424 34.1837 198.103 34.5408C197.785 34.8943 197.378 35.1692 196.881 35.3656C196.385 35.5584 195.817 35.6548 195.178 35.6548Z" fill="white"/>
</g>
<defs>
<filter id="filter0_d_189_1842" x="0" y="0" width="217" height="66.7139" filterUnits="userSpaceOnUse" color-interpolation-filters="sRGB">
<feFlood flood-opacity="0" result="BackgroundImageFix"/>
<feColorMatrix in="SourceAlpha" type="matrix" values="0 0 0 0 0 0 0 0 0 0 0 0 0 0 0 0 0 0 127 0" result="hardAlpha"/>
<feOffset dy="4"/>
<feGaussianBlur stdDeviation="2"/>
<feComposite in2="hardAlpha" operator="out"/>
<feColorMatrix type="matrix" values="0 0 0 0 0 0 0 0 0 0 0 0 0 0 0 0 0 0 0.25 0"/>
<feBlend mode="normal" in2="BackgroundImageFix" result="effect1_dropShadow_189_1842"/>
<feBlend mode="normal" in="SourceGraphic" in2="effect1_dropShadow_189_1842" result="shape"/>
</filter>
<filter id="filter1_d_189_1842" x="17.5201" y="7.54102" width="47.8327" height="48.0302" filterUnits="userSpaceOnUse" color-interpolation-filters="sRGB">
<feFlood flood-opacity="0" result="BackgroundImageFix"/>
<feColorMatrix in="SourceAlpha" type="matrix" values="0 0 0 0 0 0 0 0 0 0 0 0 0 0 0 0 0 0 127 0" result="hardAlpha"/>
<feOffset dy="1.56196"/>
<feGaussianBlur stdDeviation="0.78098"/>
<feComposite in2="hardAlpha" operator="out"/>
<feColorMatrix type="matrix" values="0 0 0 0 0 0 0 0 0 0 0 0 0 0 0 0 0 0 0.25 0"/>
<feBlend mode="normal" in2="BackgroundImageFix" result="effect1_dropShadow_189_1842"/>
<feBlend mode="normal" in="SourceGraphic" in2="effect1_dropShadow_189_1842" result="shape"/>
</filter>
<linearGradient id="paint0_linear_189_1842" x1="41.4364" y1="51.1681" x2="41.4364" y2="8.31404" gradientUnits="userSpaceOnUse">
<stop stop-color="#20B038"/>
<stop offset="1" stop-color="#60D66A"/>
</linearGradient>
<clipPath id="clip0_189_1842">
<rect width="44.7088" height="44.9063" fill="white" transform="translate(19.082 7.54102)"/>
</clipPath>
</defs>
</svg>
