<svg width="63" height="62" viewBox="0 0 63 62" fill="none" xmlns="http://www.w3.org/2000/svg">
<path fill-rule="evenodd" clip-rule="evenodd" d="M27.6902 10.1756V20.1733C26.7489 17.8456 25.7186 15.3016 24.9427 13.3682C24.0015 11.0405 21.4448 9.78127 18.9899 10.43C17.6416 10.7988 16.5095 11.6892 15.8608 12.9103C15.1994 14.1314 15.0976 15.5688 15.5428 16.8789L20.4018 30.8325C18.1249 29.9167 14.8178 28.5811 12.541 27.6907C10.5821 26.9148 8.39431 27.5253 7.10961 29.0899C6.89337 29.3443 6.51178 30.0566 6.51178 30.0566C5.64684 31.8755 6.06659 34.0379 7.5548 35.4116C10.6075 38.1718 17.0437 43.9211 18.9008 46.5159C20.4272 48.6402 21.254 54.8601 21.254 54.8601C21.3557 55.5597 22.0045 56.0431 22.6913 55.9413C23.3909 55.8395 23.8743 55.1908 23.7725 54.504C23.7725 54.504 23.5054 52.6978 23.0093 50.6117C26.7871 49.4542 30.285 47.9278 32.8035 45.2058C35.3348 47.8261 38.7691 49.5687 42.9412 50.6117V54.6948C42.9412 55.3943 43.5136 55.9667 44.2132 55.9667C44.9128 55.9667 45.4851 55.3943 45.4851 54.6948V47.6226C48.9068 44.4172 51.2218 39.253 51.4889 31.4812C52.1503 30.2219 55.0504 24.6125 56.5259 21.5216C57.3908 19.7154 56.8312 17.5658 55.1776 16.3955C54.2363 15.7341 53.0534 15.4797 51.9213 15.7087C50.7893 15.9376 49.7971 16.6245 49.1866 17.6039C48.6142 18.5197 47.9273 19.6136 47.215 20.7203L48.7796 13.788C49.0594 12.5669 48.8177 11.2949 48.1309 10.2519C47.444 9.20888 46.3628 8.48385 45.129 8.24217C42.7631 7.77154 40.4354 9.18344 39.774 11.473C39.2525 13.2665 38.5529 15.6578 37.8533 17.9982V10.1629C37.8533 7.35179 35.6782 5.07495 32.829 5.07495C29.9797 5.07495 27.6775 7.36451 27.6775 10.1629L27.6902 10.1756ZM32.7781 48.3349C30.6666 48.3349 28.9622 50.0393 28.9622 52.1508C28.9622 54.2623 30.6666 55.9667 32.7781 55.9667C34.8896 55.9667 36.594 54.2623 36.594 52.1508C36.594 50.0393 34.8896 48.3349 32.7781 48.3349ZM39.138 50.8788C39.8376 50.8788 40.41 51.4512 40.41 52.1508C40.41 52.8504 39.8376 53.4228 39.138 53.4228C38.4384 53.4228 37.866 52.8504 37.866 52.1508C37.866 51.4512 38.4384 50.8788 39.138 50.8788ZM26.4182 50.8788C27.1178 50.8788 27.6902 51.4512 27.6902 52.1508C27.6902 52.8504 27.1178 53.4228 26.4182 53.4228C25.7186 53.4228 25.1462 52.8504 25.1462 52.1508C25.1462 51.4512 25.7186 50.8788 26.4182 50.8788ZM32.7781 50.8788C33.4777 50.8788 34.0501 51.4512 34.0501 52.1508C34.0501 52.8504 33.4777 53.4228 32.7781 53.4228C32.0785 53.4228 31.5061 52.8504 31.5061 52.1508C31.5061 51.4512 32.0785 50.8788 32.7781 50.8788ZM34.0501 32.1045V34.3431C34.0501 35.0427 33.4777 35.6151 32.7781 35.6151C32.0785 35.6151 31.5061 35.0427 31.5061 34.3431V32.2698C30.7048 32.715 29.8398 33.3892 28.9622 34.2032V38.1591C28.9622 38.8587 28.3898 39.431 27.6902 39.431C26.9906 39.431 26.4182 38.8587 26.4182 38.1591V36.7981C25.9857 37.2814 25.566 37.7648 25.1462 38.2608V41.3517C25.1462 42.0513 24.5738 42.6237 23.8743 42.6237C23.1747 42.6237 22.6532 42.1022 22.6023 41.4408C21.6865 42.6491 20.9233 43.6922 20.4399 44.379C20.6434 44.6207 20.8215 44.8624 20.9742 45.0659C21.4957 45.7909 21.9536 46.9357 22.3479 48.1822C26.0875 47.0375 29.5346 45.562 31.7478 42.5219C31.9768 42.204 32.3583 42.0004 32.7527 42.0004C33.147 42.0004 33.5286 42.1658 33.7702 42.4838C35.9326 45.2058 39.0744 46.9484 42.9539 48.0169V47.0883C42.9539 46.7195 43.1193 46.3633 43.3991 46.1216C44.1877 45.4348 44.9 44.6461 45.536 43.7303C45.1417 43.1961 44.2004 41.9368 42.9539 40.4232V41.3517C42.9539 42.0513 42.3815 42.6237 41.6819 42.6237C40.9823 42.6237 40.41 42.0513 40.41 41.3517V37.4849C39.9902 37.027 39.5704 36.5818 39.138 36.1493V38.1718C39.138 38.8714 38.5656 39.4438 37.866 39.4438C37.1664 39.4438 36.594 38.8714 36.594 38.1718V33.7962C35.8817 33.2238 35.1949 32.7277 34.5334 32.3589C34.3681 32.2698 34.2027 32.1808 34.0501 32.1172V32.1045ZM41.6819 43.247C42.3815 43.247 42.9539 43.8194 42.9539 44.5189C42.9539 45.2185 42.3815 45.7909 41.6819 45.7909C40.9823 45.7909 40.41 45.2185 40.41 44.5189C40.41 43.8194 40.9823 43.247 41.6819 43.247ZM23.8743 43.247C23.1747 43.247 22.6023 43.8194 22.6023 44.5189C22.6023 45.2185 23.1747 45.7909 23.8743 45.7909C24.5738 45.7909 25.1462 45.2185 25.1462 44.5189C25.1462 43.8194 24.5738 43.247 23.8743 43.247ZM27.6902 40.703C26.9906 40.703 26.4182 41.2754 26.4182 41.975C26.4182 42.6746 26.9906 43.247 27.6902 43.247C28.3898 43.247 28.9622 42.6746 28.9622 41.975C28.9622 41.2754 28.3898 40.703 27.6902 40.703ZM37.866 40.703C38.5656 40.703 39.138 41.2754 39.138 41.975C39.138 42.6746 38.5656 43.247 37.866 43.247C37.1664 43.247 36.594 42.6746 36.594 41.975C36.594 41.2754 37.1664 40.703 37.866 40.703ZM35.3221 12.7195H30.2341V26.7113C30.2341 27.3218 29.8017 27.8433 29.2038 27.9578C28.606 28.0723 28.0082 27.7543 27.7792 27.1819C27.7792 27.1819 25.2226 20.8729 23.34 16.2047L18.6464 18.0746L23.7216 32.6387C23.887 33.1093 23.7598 33.6308 23.4036 33.9743C23.0475 34.3177 22.5132 34.4195 22.0426 34.2287C22.0426 34.2287 18.214 32.6768 14.716 31.2777L11.8541 35.8568C14.08 37.892 16.7385 40.3596 18.6973 42.4075C20.2873 40.1815 23.6199 35.7423 26.8252 32.6896C28.9622 30.6671 31.1118 29.2934 32.7272 29.2298C34.3553 29.1535 36.5304 30.3364 38.6928 32.1935C41.9618 34.9918 45.3452 39.2402 46.9098 41.2881C48.1309 38.6424 48.8559 35.2844 48.9704 31.1123C48.9704 30.9215 49.0212 30.7307 49.1103 30.5654C49.1103 30.5654 51.2854 26.3806 53.0152 22.9208L49.9625 21.1782C47.9146 24.3836 45.4979 28.0341 45.4979 28.0341C45.1544 28.5429 44.5057 28.7464 43.9333 28.5048C43.3609 28.2631 43.0557 27.6525 43.1956 27.0547L45.8031 15.467L41.6311 14.2205C40.0792 19.4992 37.8024 27.0674 37.8024 27.0674C37.6243 27.678 37.0265 28.0469 36.4032 27.9578C35.78 27.8688 35.3221 27.3345 35.3221 26.6986V12.7068V12.7195ZM32.7781 36.8871C33.4777 36.8871 34.0501 37.4595 34.0501 38.1591C34.0501 38.8587 33.4777 39.431 32.7781 39.431C32.0785 39.431 31.5061 38.8587 31.5061 38.1591C31.5061 37.4595 32.0785 36.8871 32.7781 36.8871ZM18.2521 37.6884L19.3587 38.3244C19.9693 38.6806 20.7452 38.4643 21.1014 37.8538C21.4575 37.2432 21.2413 36.4673 20.6307 36.1112L19.5241 35.4752C18.9136 35.119 18.1376 35.3353 17.7815 35.9458C17.4253 36.5564 17.6416 37.3323 18.2521 37.6884ZM13.9401 34.3431C14.2963 33.7326 15.0722 33.5291 15.6827 33.8725C16.2933 34.2287 16.4968 35.0046 16.1534 35.6151C15.7972 36.2257 15.0213 36.4292 14.4108 36.0857C13.8002 35.7296 13.5967 34.9537 13.9401 34.3431ZM12.312 30.3491C12.0703 30.2474 11.8286 30.1583 11.5997 30.0693C10.8492 29.7767 10.0097 29.9167 9.41189 30.3873C9.19565 30.5654 8.8395 31.0742 8.82678 31.0996C8.40703 31.9264 8.5851 32.9185 9.27197 33.5418C9.47549 33.7326 9.70444 33.9234 9.9334 34.1396L12.312 30.3364V30.3491ZM46.9352 26.8894L46.2992 27.996C45.9431 28.6065 46.1593 29.3824 46.7698 29.7386C47.3804 30.0947 48.1563 29.8785 48.5124 29.2679L49.1484 28.1613C49.5046 27.5508 49.2884 26.7749 48.6778 26.4187C48.0673 26.0626 47.2914 26.2788 46.9352 26.8894ZM22.3097 23.9129L22.6404 25.1467C22.8185 25.8209 23.5181 26.2279 24.1923 26.0498C24.8664 25.8718 25.2734 25.1722 25.0954 24.498L24.7646 23.2642C24.5866 22.5901 23.887 22.183 23.2001 22.3611C22.526 22.5392 22.1189 23.2388 22.297 23.9129H22.3097ZM50.5731 23.1243C51.1836 23.4805 51.3871 24.2564 51.0437 24.8669C50.6875 25.4775 49.9116 25.681 49.3011 25.3375C48.6905 24.9814 48.487 24.2055 48.8304 23.5949C49.1866 22.9844 49.9625 22.7809 50.5731 23.1243ZM40.7661 20.7203L40.4354 21.9541C40.2573 22.6282 40.6516 23.3278 41.3385 23.5059C42.0126 23.684 42.7122 23.2897 42.8903 22.6028L43.221 21.369C43.3991 20.6948 43.0048 19.9952 42.3179 19.8172C41.6438 19.6391 40.9442 20.0334 40.7534 20.7203H40.7661ZM31.4934 19.0921V20.3641C31.4934 21.0637 32.0658 21.6361 32.7654 21.6361C33.465 21.6361 34.0374 21.0637 34.0374 20.3641V19.0921C34.0374 18.3925 33.465 17.8202 32.7654 17.8202C32.0658 17.8202 31.4934 18.3925 31.4934 19.0921ZM21.6229 18.4943C22.297 18.3162 22.9966 18.7105 23.1747 19.3974C23.3528 20.0716 22.9584 20.7711 22.2716 20.9492C21.5974 21.1273 20.8978 20.733 20.707 20.0461C20.529 19.372 20.9233 18.6724 21.6101 18.4816L21.6229 18.4943ZM54.1346 20.6567C54.1727 20.5803 54.1982 20.5167 54.2363 20.4404C54.5671 19.7536 54.3508 18.9395 53.7148 18.4943C53.346 18.2272 52.8753 18.1382 52.4174 18.2272C51.9722 18.3162 51.5779 18.5833 51.349 18.9649L51.3108 19.0413L54.1346 20.6567ZM43.3101 16.1284C43.9842 16.3065 44.3912 17.0061 44.2132 17.693C44.0351 18.3671 43.3355 18.7741 42.6486 18.5961C41.9745 18.418 41.5675 17.7184 41.7455 17.0443C41.9236 16.3701 42.6232 15.9631 43.2973 16.1411L43.3101 16.1284ZM32.7654 14.0042C33.465 14.0042 34.0374 14.5766 34.0374 15.2762C34.0374 15.9758 33.465 16.5482 32.7654 16.5482C32.0658 16.5482 31.4934 15.9758 31.4934 15.2762C31.4934 14.5766 32.0658 14.0042 32.7654 14.0042ZM22.3225 13.8898C21.7373 13.0502 20.6689 12.6432 19.6386 12.923C18.9772 13.1011 18.4175 13.5463 18.0868 14.1441C17.8324 14.6148 17.7433 15.1617 17.8324 15.6832L22.3225 13.8898ZM46.3374 12.9994C46.3755 12.5415 46.2611 12.0708 46.0067 11.6765C45.7014 11.2059 45.2053 10.8752 44.6456 10.7607C43.7298 10.5826 42.814 11.0151 42.3942 11.8037L46.3501 12.9866L46.3374 12.9994ZM35.3093 10.1883C35.3093 8.78912 34.2409 7.64434 32.829 7.64434C31.4171 7.64434 30.2214 8.7764 30.2214 10.1883H35.3093Z" fill="#454545"/>
<path fill-rule="evenodd" clip-rule="evenodd" d="M27.6902 10.1756V20.1733C26.7489 17.8456 25.7186 15.3016 24.9427 13.3682C24.0015 11.0405 21.4448 9.78127 18.9899 10.43C17.6416 10.7988 16.5095 11.6892 15.8608 12.9103C15.1994 14.1314 15.0976 15.5688 15.5428 16.8789L20.4018 30.8325C18.1249 29.9167 14.8178 28.5811 12.541 27.6907C10.5821 26.9148 8.39431 27.5253 7.10961 29.0899C6.89337 29.3443 6.51178 30.0566 6.51178 30.0566C5.64684 31.8755 6.06659 34.0379 7.5548 35.4116C10.6075 38.1718 17.0437 43.9211 18.9008 46.5159C20.4272 48.6402 21.254 54.8601 21.254 54.8601C21.3557 55.5597 22.0045 56.0431 22.6913 55.9413C23.3909 55.8395 23.8743 55.1908 23.7725 54.504C23.7725 54.504 23.5054 52.6978 23.0093 50.6117C26.7871 49.4542 30.285 47.9278 32.8035 45.2058C35.3348 47.8261 38.7691 49.5687 42.9412 50.6117V54.6948C42.9412 55.3943 43.5136 55.9667 44.2132 55.9667C44.9128 55.9667 45.4851 55.3943 45.4851 54.6948V47.6226C48.9068 44.4172 51.2218 39.253 51.4889 31.4812C52.1503 30.2219 55.0504 24.6125 56.5259 21.5216C57.3908 19.7154 56.8312 17.5658 55.1776 16.3955C54.2363 15.7341 53.0534 15.4797 51.9213 15.7087C50.7893 15.9376 49.7971 16.6245 49.1866 17.6039C48.6142 18.5197 47.9273 19.6136 47.215 20.7203L48.7796 13.788C49.0594 12.5669 48.8177 11.2949 48.1309 10.2519C47.444 9.20888 46.3628 8.48385 45.129 8.24217C42.7631 7.77154 40.4354 9.18344 39.774 11.473C39.2525 13.2665 38.5529 15.6578 37.8533 17.9982V10.1629C37.8533 7.35179 35.6782 5.07495 32.829 5.07495C29.9797 5.07495 27.6775 7.36451 27.6775 10.1629L27.6902 10.1756ZM32.7781 48.3349C30.6666 48.3349 28.9622 50.0393 28.9622 52.1508C28.9622 54.2623 30.6666 55.9667 32.7781 55.9667C34.8896 55.9667 36.594 54.2623 36.594 52.1508C36.594 50.0393 34.8896 48.3349 32.7781 48.3349ZM39.138 50.8788C39.8376 50.8788 40.41 51.4512 40.41 52.1508C40.41 52.8504 39.8376 53.4228 39.138 53.4228C38.4384 53.4228 37.866 52.8504 37.866 52.1508C37.866 51.4512 38.4384 50.8788 39.138 50.8788ZM26.4182 50.8788C27.1178 50.8788 27.6902 51.4512 27.6902 52.1508C27.6902 52.8504 27.1178 53.4228 26.4182 53.4228C25.7186 53.4228 25.1462 52.8504 25.1462 52.1508C25.1462 51.4512 25.7186 50.8788 26.4182 50.8788ZM32.7781 50.8788C33.4777 50.8788 34.0501 51.4512 34.0501 52.1508C34.0501 52.8504 33.4777 53.4228 32.7781 53.4228C32.0785 53.4228 31.5061 52.8504 31.5061 52.1508C31.5061 51.4512 32.0785 50.8788 32.7781 50.8788ZM34.0501 32.1045V34.3431C34.0501 35.0427 33.4777 35.6151 32.7781 35.6151C32.0785 35.6151 31.5061 35.0427 31.5061 34.3431V32.2698C30.7048 32.715 29.8398 33.3892 28.9622 34.2032V38.1591C28.9622 38.8587 28.3898 39.431 27.6902 39.431C26.9906 39.431 26.4182 38.8587 26.4182 38.1591V36.7981C25.9857 37.2814 25.566 37.7648 25.1462 38.2608V41.3517C25.1462 42.0513 24.5738 42.6237 23.8743 42.6237C23.1747 42.6237 22.6532 42.1022 22.6023 41.4408C21.6865 42.6491 20.9233 43.6922 20.4399 44.379C20.6434 44.6207 20.8215 44.8624 20.9742 45.0659C21.4957 45.7909 21.9536 46.9357 22.3479 48.1822C26.0875 47.0375 29.5346 45.562 31.7478 42.5219C31.9768 42.204 32.3583 42.0004 32.7527 42.0004C33.147 42.0004 33.5286 42.1658 33.7702 42.4838C35.9326 45.2058 39.0744 46.9484 42.9539 48.0169V47.0883C42.9539 46.7195 43.1193 46.3633 43.3991 46.1216C44.1877 45.4348 44.9 44.6461 45.536 43.7303C45.1417 43.1961 44.2004 41.9368 42.9539 40.4232V41.3517C42.9539 42.0513 42.3815 42.6237 41.6819 42.6237C40.9823 42.6237 40.41 42.0513 40.41 41.3517V37.4849C39.9902 37.027 39.5704 36.5818 39.138 36.1493V38.1718C39.138 38.8714 38.5656 39.4438 37.866 39.4438C37.1664 39.4438 36.594 38.8714 36.594 38.1718V33.7962C35.8817 33.2238 35.1949 32.7277 34.5334 32.3589C34.3681 32.2698 34.2027 32.1808 34.0501 32.1172V32.1045ZM41.6819 43.247C42.3815 43.247 42.9539 43.8194 42.9539 44.5189C42.9539 45.2185 42.3815 45.7909 41.6819 45.7909C40.9823 45.7909 40.41 45.2185 40.41 44.5189C40.41 43.8194 40.9823 43.247 41.6819 43.247ZM23.8743 43.247C23.1747 43.247 22.6023 43.8194 22.6023 44.5189C22.6023 45.2185 23.1747 45.7909 23.8743 45.7909C24.5738 45.7909 25.1462 45.2185 25.1462 44.5189C25.1462 43.8194 24.5738 43.247 23.8743 43.247ZM27.6902 40.703C26.9906 40.703 26.4182 41.2754 26.4182 41.975C26.4182 42.6746 26.9906 43.247 27.6902 43.247C28.3898 43.247 28.9622 42.6746 28.9622 41.975C28.9622 41.2754 28.3898 40.703 27.6902 40.703ZM37.866 40.703C38.5656 40.703 39.138 41.2754 39.138 41.975C39.138 42.6746 38.5656 43.247 37.866 43.247C37.1664 43.247 36.594 42.6746 36.594 41.975C36.594 41.2754 37.1664 40.703 37.866 40.703ZM35.3221 12.7195H30.2341V26.7113C30.2341 27.3218 29.8017 27.8433 29.2038 27.9578C28.606 28.0723 28.0082 27.7543 27.7792 27.1819C27.7792 27.1819 25.2226 20.8729 23.34 16.2047L18.6464 18.0746L23.7216 32.6387C23.887 33.1093 23.7598 33.6308 23.4036 33.9743C23.0475 34.3177 22.5132 34.4195 22.0426 34.2287C22.0426 34.2287 18.214 32.6768 14.716 31.2777L11.8541 35.8568C14.08 37.892 16.7385 40.3596 18.6973 42.4075C20.2873 40.1815 23.6199 35.7423 26.8252 32.6896C28.9622 30.6671 31.1118 29.2934 32.7272 29.2298C34.3553 29.1535 36.5304 30.3364 38.6928 32.1935C41.9618 34.9918 45.3452 39.2402 46.9098 41.2881C48.1309 38.6424 48.8559 35.2844 48.9704 31.1123C48.9704 30.9215 49.0212 30.7307 49.1103 30.5654C49.1103 30.5654 51.2854 26.3806 53.0152 22.9208L49.9625 21.1782C47.9146 24.3836 45.4979 28.0341 45.4979 28.0341C45.1544 28.5429 44.5057 28.7464 43.9333 28.5048C43.3609 28.2631 43.0557 27.6525 43.1956 27.0547L45.8031 15.467L41.6311 14.2205C40.0792 19.4992 37.8024 27.0674 37.8024 27.0674C37.6243 27.678 37.0265 28.0469 36.4032 27.9578C35.78 27.8688 35.3221 27.3345 35.3221 26.6986V12.7068V12.7195ZM32.7781 36.8871C33.4777 36.8871 34.0501 37.4595 34.0501 38.1591C34.0501 38.8587 33.4777 39.431 32.7781 39.431C32.0785 39.431 31.5061 38.8587 31.5061 38.1591C31.5061 37.4595 32.0785 36.8871 32.7781 36.8871ZM18.2521 37.6884L19.3587 38.3244C19.9693 38.6806 20.7452 38.4643 21.1014 37.8538C21.4575 37.2432 21.2413 36.4673 20.6307 36.1112L19.5241 35.4752C18.9136 35.119 18.1376 35.3353 17.7815 35.9458C17.4253 36.5564 17.6416 37.3323 18.2521 37.6884ZM13.9401 34.3431C14.2963 33.7326 15.0722 33.5291 15.6827 33.8725C16.2933 34.2287 16.4968 35.0046 16.1534 35.6151C15.7972 36.2257 15.0213 36.4292 14.4108 36.0857C13.8002 35.7296 13.5967 34.9537 13.9401 34.3431ZM12.312 30.3491C12.0703 30.2474 11.8286 30.1583 11.5997 30.0693C10.8492 29.7767 10.0097 29.9167 9.41189 30.3873C9.19565 30.5654 8.8395 31.0742 8.82678 31.0996C8.40703 31.9264 8.5851 32.9185 9.27197 33.5418C9.47549 33.7326 9.70444 33.9234 9.9334 34.1396L12.312 30.3364V30.3491ZM46.9352 26.8894L46.2992 27.996C45.9431 28.6065 46.1593 29.3824 46.7698 29.7386C47.3804 30.0947 48.1563 29.8785 48.5124 29.2679L49.1484 28.1613C49.5046 27.5508 49.2884 26.7749 48.6778 26.4187C48.0673 26.0626 47.2914 26.2788 46.9352 26.8894ZM22.3097 23.9129L22.6404 25.1467C22.8185 25.8209 23.5181 26.2279 24.1923 26.0498C24.8664 25.8718 25.2734 25.1722 25.0954 24.498L24.7646 23.2642C24.5866 22.5901 23.887 22.183 23.2001 22.3611C22.526 22.5392 22.1189 23.2388 22.297 23.9129H22.3097ZM50.5731 23.1243C51.1836 23.4805 51.3871 24.2564 51.0437 24.8669C50.6875 25.4775 49.9116 25.681 49.3011 25.3375C48.6905 24.9814 48.487 24.2055 48.8304 23.5949C49.1866 22.9844 49.9625 22.7809 50.5731 23.1243ZM40.7661 20.7203L40.4354 21.9541C40.2573 22.6282 40.6516 23.3278 41.3385 23.5059C42.0126 23.684 42.7122 23.2897 42.8903 22.6028L43.221 21.369C43.3991 20.6948 43.0048 19.9952 42.3179 19.8172C41.6438 19.6391 40.9442 20.0334 40.7534 20.7203H40.7661ZM31.4934 19.0921V20.3641C31.4934 21.0637 32.0658 21.6361 32.7654 21.6361C33.465 21.6361 34.0374 21.0637 34.0374 20.3641V19.0921C34.0374 18.3925 33.465 17.8202 32.7654 17.8202C32.0658 17.8202 31.4934 18.3925 31.4934 19.0921ZM21.6229 18.4943C22.297 18.3162 22.9966 18.7105 23.1747 19.3974C23.3528 20.0716 22.9584 20.7711 22.2716 20.9492C21.5974 21.1273 20.8978 20.733 20.707 20.0461C20.529 19.372 20.9233 18.6724 21.6101 18.4816L21.6229 18.4943ZM54.1346 20.6567C54.1727 20.5803 54.1982 20.5167 54.2363 20.4404C54.5671 19.7536 54.3508 18.9395 53.7148 18.4943C53.346 18.2272 52.8753 18.1382 52.4174 18.2272C51.9722 18.3162 51.5779 18.5833 51.349 18.9649L51.3108 19.0413L54.1346 20.6567ZM43.3101 16.1284C43.9842 16.3065 44.3912 17.0061 44.2132 17.693C44.0351 18.3671 43.3355 18.7741 42.6486 18.5961C41.9745 18.418 41.5675 17.7184 41.7455 17.0443C41.9236 16.3701 42.6232 15.9631 43.2973 16.1411L43.3101 16.1284ZM32.7654 14.0042C33.465 14.0042 34.0374 14.5766 34.0374 15.2762C34.0374 15.9758 33.465 16.5482 32.7654 16.5482C32.0658 16.5482 31.4934 15.9758 31.4934 15.2762C31.4934 14.5766 32.0658 14.0042 32.7654 14.0042ZM22.3225 13.8898C21.7373 13.0502 20.6689 12.6432 19.6386 12.923C18.9772 13.1011 18.4175 13.5463 18.0868 14.1441C17.8324 14.6148 17.7433 15.1617 17.8324 15.6832L22.3225 13.8898ZM46.3374 12.9994C46.3755 12.5415 46.2611 12.0708 46.0067 11.6765C45.7014 11.2059 45.2053 10.8752 44.6456 10.7607C43.7298 10.5826 42.814 11.0151 42.3942 11.8037L46.3501 12.9866L46.3374 12.9994ZM35.3093 10.1883C35.3093 8.78912 34.2409 7.64434 32.829 7.64434C31.4171 7.64434 30.2214 8.7764 30.2214 10.1883H35.3093Z" fill="black" fill-opacity="0.2"/>
<path fill-rule="evenodd" clip-rule="evenodd" d="M27.6902 10.1756V20.1733C26.7489 17.8456 25.7186 15.3016 24.9427 13.3682C24.0015 11.0405 21.4448 9.78127 18.9899 10.43C17.6416 10.7988 16.5095 11.6892 15.8608 12.9103C15.1994 14.1314 15.0976 15.5688 15.5428 16.8789L20.4018 30.8325C18.1249 29.9167 14.8178 28.5811 12.541 27.6907C10.5821 26.9148 8.39431 27.5253 7.10961 29.0899C6.89337 29.3443 6.51178 30.0566 6.51178 30.0566C5.64684 31.8755 6.06659 34.0379 7.5548 35.4116C10.6075 38.1718 17.0437 43.9211 18.9008 46.5159C20.4272 48.6402 21.254 54.8601 21.254 54.8601C21.3557 55.5597 22.0045 56.0431 22.6913 55.9413C23.3909 55.8395 23.8743 55.1908 23.7725 54.504C23.7725 54.504 23.5054 52.6978 23.0093 50.6117C26.7871 49.4542 30.285 47.9278 32.8035 45.2058C35.3348 47.8261 38.7691 49.5687 42.9412 50.6117V54.6948C42.9412 55.3943 43.5136 55.9667 44.2132 55.9667C44.9128 55.9667 45.4851 55.3943 45.4851 54.6948V47.6226C48.9068 44.4172 51.2218 39.253 51.4889 31.4812C52.1503 30.2219 55.0504 24.6125 56.5259 21.5216C57.3908 19.7154 56.8312 17.5658 55.1776 16.3955C54.2363 15.7341 53.0534 15.4797 51.9213 15.7087C50.7893 15.9376 49.7971 16.6245 49.1866 17.6039C48.6142 18.5197 47.9273 19.6136 47.215 20.7203L48.7796 13.788C49.0594 12.5669 48.8177 11.2949 48.1309 10.2519C47.444 9.20888 46.3628 8.48385 45.129 8.24217C42.7631 7.77154 40.4354 9.18344 39.774 11.473C39.2525 13.2665 38.5529 15.6578 37.8533 17.9982V10.1629C37.8533 7.35179 35.6782 5.07495 32.829 5.07495C29.9797 5.07495 27.6775 7.36451 27.6775 10.1629L27.6902 10.1756ZM32.7781 48.3349C30.6666 48.3349 28.9622 50.0393 28.9622 52.1508C28.9622 54.2623 30.6666 55.9667 32.7781 55.9667C34.8896 55.9667 36.594 54.2623 36.594 52.1508C36.594 50.0393 34.8896 48.3349 32.7781 48.3349ZM39.138 50.8788C39.8376 50.8788 40.41 51.4512 40.41 52.1508C40.41 52.8504 39.8376 53.4228 39.138 53.4228C38.4384 53.4228 37.866 52.8504 37.866 52.1508C37.866 51.4512 38.4384 50.8788 39.138 50.8788ZM26.4182 50.8788C27.1178 50.8788 27.6902 51.4512 27.6902 52.1508C27.6902 52.8504 27.1178 53.4228 26.4182 53.4228C25.7186 53.4228 25.1462 52.8504 25.1462 52.1508C25.1462 51.4512 25.7186 50.8788 26.4182 50.8788ZM32.7781 50.8788C33.4777 50.8788 34.0501 51.4512 34.0501 52.1508C34.0501 52.8504 33.4777 53.4228 32.7781 53.4228C32.0785 53.4228 31.5061 52.8504 31.5061 52.1508C31.5061 51.4512 32.0785 50.8788 32.7781 50.8788ZM34.0501 32.1045V34.3431C34.0501 35.0427 33.4777 35.6151 32.7781 35.6151C32.0785 35.6151 31.5061 35.0427 31.5061 34.3431V32.2698C30.7048 32.715 29.8398 33.3892 28.9622 34.2032V38.1591C28.9622 38.8587 28.3898 39.431 27.6902 39.431C26.9906 39.431 26.4182 38.8587 26.4182 38.1591V36.7981C25.9857 37.2814 25.566 37.7648 25.1462 38.2608V41.3517C25.1462 42.0513 24.5738 42.6237 23.8743 42.6237C23.1747 42.6237 22.6532 42.1022 22.6023 41.4408C21.6865 42.6491 20.9233 43.6922 20.4399 44.379C20.6434 44.6207 20.8215 44.8624 20.9742 45.0659C21.4957 45.7909 21.9536 46.9357 22.3479 48.1822C26.0875 47.0375 29.5346 45.562 31.7478 42.5219C31.9768 42.204 32.3583 42.0004 32.7527 42.0004C33.147 42.0004 33.5286 42.1658 33.7702 42.4838C35.9326 45.2058 39.0744 46.9484 42.9539 48.0169V47.0883C42.9539 46.7195 43.1193 46.3633 43.3991 46.1216C44.1877 45.4348 44.9 44.6461 45.536 43.7303C45.1417 43.1961 44.2004 41.9368 42.9539 40.4232V41.3517C42.9539 42.0513 42.3815 42.6237 41.6819 42.6237C40.9823 42.6237 40.41 42.0513 40.41 41.3517V37.4849C39.9902 37.027 39.5704 36.5818 39.138 36.1493V38.1718C39.138 38.8714 38.5656 39.4438 37.866 39.4438C37.1664 39.4438 36.594 38.8714 36.594 38.1718V33.7962C35.8817 33.2238 35.1949 32.7277 34.5334 32.3589C34.3681 32.2698 34.2027 32.1808 34.0501 32.1172V32.1045ZM41.6819 43.247C42.3815 43.247 42.9539 43.8194 42.9539 44.5189C42.9539 45.2185 42.3815 45.7909 41.6819 45.7909C40.9823 45.7909 40.41 45.2185 40.41 44.5189C40.41 43.8194 40.9823 43.247 41.6819 43.247ZM23.8743 43.247C23.1747 43.247 22.6023 43.8194 22.6023 44.5189C22.6023 45.2185 23.1747 45.7909 23.8743 45.7909C24.5738 45.7909 25.1462 45.2185 25.1462 44.5189C25.1462 43.8194 24.5738 43.247 23.8743 43.247ZM27.6902 40.703C26.9906 40.703 26.4182 41.2754 26.4182 41.975C26.4182 42.6746 26.9906 43.247 27.6902 43.247C28.3898 43.247 28.9622 42.6746 28.9622 41.975C28.9622 41.2754 28.3898 40.703 27.6902 40.703ZM37.866 40.703C38.5656 40.703 39.138 41.2754 39.138 41.975C39.138 42.6746 38.5656 43.247 37.866 43.247C37.1664 43.247 36.594 42.6746 36.594 41.975C36.594 41.2754 37.1664 40.703 37.866 40.703ZM35.3221 12.7195H30.2341V26.7113C30.2341 27.3218 29.8017 27.8433 29.2038 27.9578C28.606 28.0723 28.0082 27.7543 27.7792 27.1819C27.7792 27.1819 25.2226 20.8729 23.34 16.2047L18.6464 18.0746L23.7216 32.6387C23.887 33.1093 23.7598 33.6308 23.4036 33.9743C23.0475 34.3177 22.5132 34.4195 22.0426 34.2287C22.0426 34.2287 18.214 32.6768 14.716 31.2777L11.8541 35.8568C14.08 37.892 16.7385 40.3596 18.6973 42.4075C20.2873 40.1815 23.6199 35.7423 26.8252 32.6896C28.9622 30.6671 31.1118 29.2934 32.7272 29.2298C34.3553 29.1535 36.5304 30.3364 38.6928 32.1935C41.9618 34.9918 45.3452 39.2402 46.9098 41.2881C48.1309 38.6424 48.8559 35.2844 48.9704 31.1123C48.9704 30.9215 49.0212 30.7307 49.1103 30.5654C49.1103 30.5654 51.2854 26.3806 53.0152 22.9208L49.9625 21.1782C47.9146 24.3836 45.4979 28.0341 45.4979 28.0341C45.1544 28.5429 44.5057 28.7464 43.9333 28.5048C43.3609 28.2631 43.0557 27.6525 43.1956 27.0547L45.8031 15.467L41.6311 14.2205C40.0792 19.4992 37.8024 27.0674 37.8024 27.0674C37.6243 27.678 37.0265 28.0469 36.4032 27.9578C35.78 27.8688 35.3221 27.3345 35.3221 26.6986V12.7068V12.7195ZM32.7781 36.8871C33.4777 36.8871 34.0501 37.4595 34.0501 38.1591C34.0501 38.8587 33.4777 39.431 32.7781 39.431C32.0785 39.431 31.5061 38.8587 31.5061 38.1591C31.5061 37.4595 32.0785 36.8871 32.7781 36.8871ZM18.2521 37.6884L19.3587 38.3244C19.9693 38.6806 20.7452 38.4643 21.1014 37.8538C21.4575 37.2432 21.2413 36.4673 20.6307 36.1112L19.5241 35.4752C18.9136 35.119 18.1376 35.3353 17.7815 35.9458C17.4253 36.5564 17.6416 37.3323 18.2521 37.6884ZM13.9401 34.3431C14.2963 33.7326 15.0722 33.5291 15.6827 33.8725C16.2933 34.2287 16.4968 35.0046 16.1534 35.6151C15.7972 36.2257 15.0213 36.4292 14.4108 36.0857C13.8002 35.7296 13.5967 34.9537 13.9401 34.3431ZM12.312 30.3491C12.0703 30.2474 11.8286 30.1583 11.5997 30.0693C10.8492 29.7767 10.0097 29.9167 9.41189 30.3873C9.19565 30.5654 8.8395 31.0742 8.82678 31.0996C8.40703 31.9264 8.5851 32.9185 9.27197 33.5418C9.47549 33.7326 9.70444 33.9234 9.9334 34.1396L12.312 30.3364V30.3491ZM46.9352 26.8894L46.2992 27.996C45.9431 28.6065 46.1593 29.3824 46.7698 29.7386C47.3804 30.0947 48.1563 29.8785 48.5124 29.2679L49.1484 28.1613C49.5046 27.5508 49.2884 26.7749 48.6778 26.4187C48.0673 26.0626 47.2914 26.2788 46.9352 26.8894ZM22.3097 23.9129L22.6404 25.1467C22.8185 25.8209 23.5181 26.2279 24.1923 26.0498C24.8664 25.8718 25.2734 25.1722 25.0954 24.498L24.7646 23.2642C24.5866 22.5901 23.887 22.183 23.2001 22.3611C22.526 22.5392 22.1189 23.2388 22.297 23.9129H22.3097ZM50.5731 23.1243C51.1836 23.4805 51.3871 24.2564 51.0437 24.8669C50.6875 25.4775 49.9116 25.681 49.3011 25.3375C48.6905 24.9814 48.487 24.2055 48.8304 23.5949C49.1866 22.9844 49.9625 22.7809 50.5731 23.1243ZM40.7661 20.7203L40.4354 21.9541C40.2573 22.6282 40.6516 23.3278 41.3385 23.5059C42.0126 23.684 42.7122 23.2897 42.8903 22.6028L43.221 21.369C43.3991 20.6948 43.0048 19.9952 42.3179 19.8172C41.6438 19.6391 40.9442 20.0334 40.7534 20.7203H40.7661ZM31.4934 19.0921V20.3641C31.4934 21.0637 32.0658 21.6361 32.7654 21.6361C33.465 21.6361 34.0374 21.0637 34.0374 20.3641V19.0921C34.0374 18.3925 33.465 17.8202 32.7654 17.8202C32.0658 17.8202 31.4934 18.3925 31.4934 19.0921ZM21.6229 18.4943C22.297 18.3162 22.9966 18.7105 23.1747 19.3974C23.3528 20.0716 22.9584 20.7711 22.2716 20.9492C21.5974 21.1273 20.8978 20.733 20.707 20.0461C20.529 19.372 20.9233 18.6724 21.6101 18.4816L21.6229 18.4943ZM54.1346 20.6567C54.1727 20.5803 54.1982 20.5167 54.2363 20.4404C54.5671 19.7536 54.3508 18.9395 53.7148 18.4943C53.346 18.2272 52.8753 18.1382 52.4174 18.2272C51.9722 18.3162 51.5779 18.5833 51.349 18.9649L51.3108 19.0413L54.1346 20.6567ZM43.3101 16.1284C43.9842 16.3065 44.3912 17.0061 44.2132 17.693C44.0351 18.3671 43.3355 18.7741 42.6486 18.5961C41.9745 18.418 41.5675 17.7184 41.7455 17.0443C41.9236 16.3701 42.6232 15.9631 43.2973 16.1411L43.3101 16.1284ZM32.7654 14.0042C33.465 14.0042 34.0374 14.5766 34.0374 15.2762C34.0374 15.9758 33.465 16.5482 32.7654 16.5482C32.0658 16.5482 31.4934 15.9758 31.4934 15.2762C31.4934 14.5766 32.0658 14.0042 32.7654 14.0042ZM22.3225 13.8898C21.7373 13.0502 20.6689 12.6432 19.6386 12.923C18.9772 13.1011 18.4175 13.5463 18.0868 14.1441C17.8324 14.6148 17.7433 15.1617 17.8324 15.6832L22.3225 13.8898ZM46.3374 12.9994C46.3755 12.5415 46.2611 12.0708 46.0067 11.6765C45.7014 11.2059 45.2053 10.8752 44.6456 10.7607C43.7298 10.5826 42.814 11.0151 42.3942 11.8037L46.3501 12.9866L46.3374 12.9994ZM35.3093 10.1883C35.3093 8.78912 34.2409 7.64434 32.829 7.64434C31.4171 7.64434 30.2214 8.7764 30.2214 10.1883H35.3093Z" fill="black" fill-opacity="0.2"/>
<path fill-rule="evenodd" clip-rule="evenodd" d="M27.6902 10.1756V20.1733C26.7489 17.8456 25.7186 15.3016 24.9427 13.3682C24.0015 11.0405 21.4448 9.78127 18.9899 10.43C17.6416 10.7988 16.5095 11.6892 15.8608 12.9103C15.1994 14.1314 15.0976 15.5688 15.5428 16.8789L20.4018 30.8325C18.1249 29.9167 14.8178 28.5811 12.541 27.6907C10.5821 26.9148 8.39431 27.5253 7.10961 29.0899C6.89337 29.3443 6.51178 30.0566 6.51178 30.0566C5.64684 31.8755 6.06659 34.0379 7.5548 35.4116C10.6075 38.1718 17.0437 43.9211 18.9008 46.5159C20.4272 48.6402 21.254 54.8601 21.254 54.8601C21.3557 55.5597 22.0045 56.0431 22.6913 55.9413C23.3909 55.8395 23.8743 55.1908 23.7725 54.504C23.7725 54.504 23.5054 52.6978 23.0093 50.6117C26.7871 49.4542 30.285 47.9278 32.8035 45.2058C35.3348 47.8261 38.7691 49.5687 42.9412 50.6117V54.6948C42.9412 55.3943 43.5136 55.9667 44.2132 55.9667C44.9128 55.9667 45.4851 55.3943 45.4851 54.6948V47.6226C48.9068 44.4172 51.2218 39.253 51.4889 31.4812C52.1503 30.2219 55.0504 24.6125 56.5259 21.5216C57.3908 19.7154 56.8312 17.5658 55.1776 16.3955C54.2363 15.7341 53.0534 15.4797 51.9213 15.7087C50.7893 15.9376 49.7971 16.6245 49.1866 17.6039C48.6142 18.5197 47.9273 19.6136 47.215 20.7203L48.7796 13.788C49.0594 12.5669 48.8177 11.2949 48.1309 10.2519C47.444 9.20888 46.3628 8.48385 45.129 8.24217C42.7631 7.77154 40.4354 9.18344 39.774 11.473C39.2525 13.2665 38.5529 15.6578 37.8533 17.9982V10.1629C37.8533 7.35179 35.6782 5.07495 32.829 5.07495C29.9797 5.07495 27.6775 7.36451 27.6775 10.1629L27.6902 10.1756ZM32.7781 48.3349C30.6666 48.3349 28.9622 50.0393 28.9622 52.1508C28.9622 54.2623 30.6666 55.9667 32.7781 55.9667C34.8896 55.9667 36.594 54.2623 36.594 52.1508C36.594 50.0393 34.8896 48.3349 32.7781 48.3349ZM39.138 50.8788C39.8376 50.8788 40.41 51.4512 40.41 52.1508C40.41 52.8504 39.8376 53.4228 39.138 53.4228C38.4384 53.4228 37.866 52.8504 37.866 52.1508C37.866 51.4512 38.4384 50.8788 39.138 50.8788ZM26.4182 50.8788C27.1178 50.8788 27.6902 51.4512 27.6902 52.1508C27.6902 52.8504 27.1178 53.4228 26.4182 53.4228C25.7186 53.4228 25.1462 52.8504 25.1462 52.1508C25.1462 51.4512 25.7186 50.8788 26.4182 50.8788ZM32.7781 50.8788C33.4777 50.8788 34.0501 51.4512 34.0501 52.1508C34.0501 52.8504 33.4777 53.4228 32.7781 53.4228C32.0785 53.4228 31.5061 52.8504 31.5061 52.1508C31.5061 51.4512 32.0785 50.8788 32.7781 50.8788ZM34.0501 32.1045V34.3431C34.0501 35.0427 33.4777 35.6151 32.7781 35.6151C32.0785 35.6151 31.5061 35.0427 31.5061 34.3431V32.2698C30.7048 32.715 29.8398 33.3892 28.9622 34.2032V38.1591C28.9622 38.8587 28.3898 39.431 27.6902 39.431C26.9906 39.431 26.4182 38.8587 26.4182 38.1591V36.7981C25.9857 37.2814 25.566 37.7648 25.1462 38.2608V41.3517C25.1462 42.0513 24.5738 42.6237 23.8743 42.6237C23.1747 42.6237 22.6532 42.1022 22.6023 41.4408C21.6865 42.6491 20.9233 43.6922 20.4399 44.379C20.6434 44.6207 20.8215 44.8624 20.9742 45.0659C21.4957 45.7909 21.9536 46.9357 22.3479 48.1822C26.0875 47.0375 29.5346 45.562 31.7478 42.5219C31.9768 42.204 32.3583 42.0004 32.7527 42.0004C33.147 42.0004 33.5286 42.1658 33.7702 42.4838C35.9326 45.2058 39.0744 46.9484 42.9539 48.0169V47.0883C42.9539 46.7195 43.1193 46.3633 43.3991 46.1216C44.1877 45.4348 44.9 44.6461 45.536 43.7303C45.1417 43.1961 44.2004 41.9368 42.9539 40.4232V41.3517C42.9539 42.0513 42.3815 42.6237 41.6819 42.6237C40.9823 42.6237 40.41 42.0513 40.41 41.3517V37.4849C39.9902 37.027 39.5704 36.5818 39.138 36.1493V38.1718C39.138 38.8714 38.5656 39.4438 37.866 39.4438C37.1664 39.4438 36.594 38.8714 36.594 38.1718V33.7962C35.8817 33.2238 35.1949 32.7277 34.5334 32.3589C34.3681 32.2698 34.2027 32.1808 34.0501 32.1172V32.1045ZM41.6819 43.247C42.3815 43.247 42.9539 43.8194 42.9539 44.5189C42.9539 45.2185 42.3815 45.7909 41.6819 45.7909C40.9823 45.7909 40.41 45.2185 40.41 44.5189C40.41 43.8194 40.9823 43.247 41.6819 43.247ZM23.8743 43.247C23.1747 43.247 22.6023 43.8194 22.6023 44.5189C22.6023 45.2185 23.1747 45.7909 23.8743 45.7909C24.5738 45.7909 25.1462 45.2185 25.1462 44.5189C25.1462 43.8194 24.5738 43.247 23.8743 43.247ZM27.6902 40.703C26.9906 40.703 26.4182 41.2754 26.4182 41.975C26.4182 42.6746 26.9906 43.247 27.6902 43.247C28.3898 43.247 28.9622 42.6746 28.9622 41.975C28.9622 41.2754 28.3898 40.703 27.6902 40.703ZM37.866 40.703C38.5656 40.703 39.138 41.2754 39.138 41.975C39.138 42.6746 38.5656 43.247 37.866 43.247C37.1664 43.247 36.594 42.6746 36.594 41.975C36.594 41.2754 37.1664 40.703 37.866 40.703ZM35.3221 12.7195H30.2341V26.7113C30.2341 27.3218 29.8017 27.8433 29.2038 27.9578C28.606 28.0723 28.0082 27.7543 27.7792 27.1819C27.7792 27.1819 25.2226 20.8729 23.34 16.2047L18.6464 18.0746L23.7216 32.6387C23.887 33.1093 23.7598 33.6308 23.4036 33.9743C23.0475 34.3177 22.5132 34.4195 22.0426 34.2287C22.0426 34.2287 18.214 32.6768 14.716 31.2777L11.8541 35.8568C14.08 37.892 16.7385 40.3596 18.6973 42.4075C20.2873 40.1815 23.6199 35.7423 26.8252 32.6896C28.9622 30.6671 31.1118 29.2934 32.7272 29.2298C34.3553 29.1535 36.5304 30.3364 38.6928 32.1935C41.9618 34.9918 45.3452 39.2402 46.9098 41.2881C48.1309 38.6424 48.8559 35.2844 48.9704 31.1123C48.9704 30.9215 49.0212 30.7307 49.1103 30.5654C49.1103 30.5654 51.2854 26.3806 53.0152 22.9208L49.9625 21.1782C47.9146 24.3836 45.4979 28.0341 45.4979 28.0341C45.1544 28.5429 44.5057 28.7464 43.9333 28.5048C43.3609 28.2631 43.0557 27.6525 43.1956 27.0547L45.8031 15.467L41.6311 14.2205C40.0792 19.4992 37.8024 27.0674 37.8024 27.0674C37.6243 27.678 37.0265 28.0469 36.4032 27.9578C35.78 27.8688 35.3221 27.3345 35.3221 26.6986V12.7068V12.7195ZM32.7781 36.8871C33.4777 36.8871 34.0501 37.4595 34.0501 38.1591C34.0501 38.8587 33.4777 39.431 32.7781 39.431C32.0785 39.431 31.5061 38.8587 31.5061 38.1591C31.5061 37.4595 32.0785 36.8871 32.7781 36.8871ZM18.2521 37.6884L19.3587 38.3244C19.9693 38.6806 20.7452 38.4643 21.1014 37.8538C21.4575 37.2432 21.2413 36.4673 20.6307 36.1112L19.5241 35.4752C18.9136 35.119 18.1376 35.3353 17.7815 35.9458C17.4253 36.5564 17.6416 37.3323 18.2521 37.6884ZM13.9401 34.3431C14.2963 33.7326 15.0722 33.5291 15.6827 33.8725C16.2933 34.2287 16.4968 35.0046 16.1534 35.6151C15.7972 36.2257 15.0213 36.4292 14.4108 36.0857C13.8002 35.7296 13.5967 34.9537 13.9401 34.3431ZM12.312 30.3491C12.0703 30.2474 11.8286 30.1583 11.5997 30.0693C10.8492 29.7767 10.0097 29.9167 9.41189 30.3873C9.19565 30.5654 8.8395 31.0742 8.82678 31.0996C8.40703 31.9264 8.5851 32.9185 9.27197 33.5418C9.47549 33.7326 9.70444 33.9234 9.9334 34.1396L12.312 30.3364V30.3491ZM46.9352 26.8894L46.2992 27.996C45.9431 28.6065 46.1593 29.3824 46.7698 29.7386C47.3804 30.0947 48.1563 29.8785 48.5124 29.2679L49.1484 28.1613C49.5046 27.5508 49.2884 26.7749 48.6778 26.4187C48.0673 26.0626 47.2914 26.2788 46.9352 26.8894ZM22.3097 23.9129L22.6404 25.1467C22.8185 25.8209 23.5181 26.2279 24.1923 26.0498C24.8664 25.8718 25.2734 25.1722 25.0954 24.498L24.7646 23.2642C24.5866 22.5901 23.887 22.183 23.2001 22.3611C22.526 22.5392 22.1189 23.2388 22.297 23.9129H22.3097ZM50.5731 23.1243C51.1836 23.4805 51.3871 24.2564 51.0437 24.8669C50.6875 25.4775 49.9116 25.681 49.3011 25.3375C48.6905 24.9814 48.487 24.2055 48.8304 23.5949C49.1866 22.9844 49.9625 22.7809 50.5731 23.1243ZM40.7661 20.7203L40.4354 21.9541C40.2573 22.6282 40.6516 23.3278 41.3385 23.5059C42.0126 23.684 42.7122 23.2897 42.8903 22.6028L43.221 21.369C43.3991 20.6948 43.0048 19.9952 42.3179 19.8172C41.6438 19.6391 40.9442 20.0334 40.7534 20.7203H40.7661ZM31.4934 19.0921V20.3641C31.4934 21.0637 32.0658 21.6361 32.7654 21.6361C33.465 21.6361 34.0374 21.0637 34.0374 20.3641V19.0921C34.0374 18.3925 33.465 17.8202 32.7654 17.8202C32.0658 17.8202 31.4934 18.3925 31.4934 19.0921ZM21.6229 18.4943C22.297 18.3162 22.9966 18.7105 23.1747 19.3974C23.3528 20.0716 22.9584 20.7711 22.2716 20.9492C21.5974 21.1273 20.8978 20.733 20.707 20.0461C20.529 19.372 20.9233 18.6724 21.6101 18.4816L21.6229 18.4943ZM54.1346 20.6567C54.1727 20.5803 54.1982 20.5167 54.2363 20.4404C54.5671 19.7536 54.3508 18.9395 53.7148 18.4943C53.346 18.2272 52.8753 18.1382 52.4174 18.2272C51.9722 18.3162 51.5779 18.5833 51.349 18.9649L51.3108 19.0413L54.1346 20.6567ZM43.3101 16.1284C43.9842 16.3065 44.3912 17.0061 44.2132 17.693C44.0351 18.3671 43.3355 18.7741 42.6486 18.5961C41.9745 18.418 41.5675 17.7184 41.7455 17.0443C41.9236 16.3701 42.6232 15.9631 43.2973 16.1411L43.3101 16.1284ZM32.7654 14.0042C33.465 14.0042 34.0374 14.5766 34.0374 15.2762C34.0374 15.9758 33.465 16.5482 32.7654 16.5482C32.0658 16.5482 31.4934 15.9758 31.4934 15.2762C31.4934 14.5766 32.0658 14.0042 32.7654 14.0042ZM22.3225 13.8898C21.7373 13.0502 20.6689 12.6432 19.6386 12.923C18.9772 13.1011 18.4175 13.5463 18.0868 14.1441C17.8324 14.6148 17.7433 15.1617 17.8324 15.6832L22.3225 13.8898ZM46.3374 12.9994C46.3755 12.5415 46.2611 12.0708 46.0067 11.6765C45.7014 11.2059 45.2053 10.8752 44.6456 10.7607C43.7298 10.5826 42.814 11.0151 42.3942 11.8037L46.3501 12.9866L46.3374 12.9994ZM35.3093 10.1883C35.3093 8.78912 34.2409 7.64434 32.829 7.64434C31.4171 7.64434 30.2214 8.7764 30.2214 10.1883H35.3093Z" fill="black" fill-opacity="0.2"/>
<path fill-rule="evenodd" clip-rule="evenodd" d="M27.6902 10.1756V20.1733C26.7489 17.8456 25.7186 15.3016 24.9427 13.3682C24.0015 11.0405 21.4448 9.78127 18.9899 10.43C17.6416 10.7988 16.5095 11.6892 15.8608 12.9103C15.1994 14.1314 15.0976 15.5688 15.5428 16.8789L20.4018 30.8325C18.1249 29.9167 14.8178 28.5811 12.541 27.6907C10.5821 26.9148 8.39431 27.5253 7.10961 29.0899C6.89337 29.3443 6.51178 30.0566 6.51178 30.0566C5.64684 31.8755 6.06659 34.0379 7.5548 35.4116C10.6075 38.1718 17.0437 43.9211 18.9008 46.5159C20.4272 48.6402 21.254 54.8601 21.254 54.8601C21.3557 55.5597 22.0045 56.0431 22.6913 55.9413C23.3909 55.8395 23.8743 55.1908 23.7725 54.504C23.7725 54.504 23.5054 52.6978 23.0093 50.6117C26.7871 49.4542 30.285 47.9278 32.8035 45.2058C35.3348 47.8261 38.7691 49.5687 42.9412 50.6117V54.6948C42.9412 55.3943 43.5136 55.9667 44.2132 55.9667C44.9128 55.9667 45.4851 55.3943 45.4851 54.6948V47.6226C48.9068 44.4172 51.2218 39.253 51.4889 31.4812C52.1503 30.2219 55.0504 24.6125 56.5259 21.5216C57.3908 19.7154 56.8312 17.5658 55.1776 16.3955C54.2363 15.7341 53.0534 15.4797 51.9213 15.7087C50.7893 15.9376 49.7971 16.6245 49.1866 17.6039C48.6142 18.5197 47.9273 19.6136 47.215 20.7203L48.7796 13.788C49.0594 12.5669 48.8177 11.2949 48.1309 10.2519C47.444 9.20888 46.3628 8.48385 45.129 8.24217C42.7631 7.77154 40.4354 9.18344 39.774 11.473C39.2525 13.2665 38.5529 15.6578 37.8533 17.9982V10.1629C37.8533 7.35179 35.6782 5.07495 32.829 5.07495C29.9797 5.07495 27.6775 7.36451 27.6775 10.1629L27.6902 10.1756ZM32.7781 48.3349C30.6666 48.3349 28.9622 50.0393 28.9622 52.1508C28.9622 54.2623 30.6666 55.9667 32.7781 55.9667C34.8896 55.9667 36.594 54.2623 36.594 52.1508C36.594 50.0393 34.8896 48.3349 32.7781 48.3349ZM39.138 50.8788C39.8376 50.8788 40.41 51.4512 40.41 52.1508C40.41 52.8504 39.8376 53.4228 39.138 53.4228C38.4384 53.4228 37.866 52.8504 37.866 52.1508C37.866 51.4512 38.4384 50.8788 39.138 50.8788ZM26.4182 50.8788C27.1178 50.8788 27.6902 51.4512 27.6902 52.1508C27.6902 52.8504 27.1178 53.4228 26.4182 53.4228C25.7186 53.4228 25.1462 52.8504 25.1462 52.1508C25.1462 51.4512 25.7186 50.8788 26.4182 50.8788ZM32.7781 50.8788C33.4777 50.8788 34.0501 51.4512 34.0501 52.1508C34.0501 52.8504 33.4777 53.4228 32.7781 53.4228C32.0785 53.4228 31.5061 52.8504 31.5061 52.1508C31.5061 51.4512 32.0785 50.8788 32.7781 50.8788ZM34.0501 32.1045V34.3431C34.0501 35.0427 33.4777 35.6151 32.7781 35.6151C32.0785 35.6151 31.5061 35.0427 31.5061 34.3431V32.2698C30.7048 32.715 29.8398 33.3892 28.9622 34.2032V38.1591C28.9622 38.8587 28.3898 39.431 27.6902 39.431C26.9906 39.431 26.4182 38.8587 26.4182 38.1591V36.7981C25.9857 37.2814 25.566 37.7648 25.1462 38.2608V41.3517C25.1462 42.0513 24.5738 42.6237 23.8743 42.6237C23.1747 42.6237 22.6532 42.1022 22.6023 41.4408C21.6865 42.6491 20.9233 43.6922 20.4399 44.379C20.6434 44.6207 20.8215 44.8624 20.9742 45.0659C21.4957 45.7909 21.9536 46.9357 22.3479 48.1822C26.0875 47.0375 29.5346 45.562 31.7478 42.5219C31.9768 42.204 32.3583 42.0004 32.7527 42.0004C33.147 42.0004 33.5286 42.1658 33.7702 42.4838C35.9326 45.2058 39.0744 46.9484 42.9539 48.0169V47.0883C42.9539 46.7195 43.1193 46.3633 43.3991 46.1216C44.1877 45.4348 44.9 44.6461 45.536 43.7303C45.1417 43.1961 44.2004 41.9368 42.9539 40.4232V41.3517C42.9539 42.0513 42.3815 42.6237 41.6819 42.6237C40.9823 42.6237 40.41 42.0513 40.41 41.3517V37.4849C39.9902 37.027 39.5704 36.5818 39.138 36.1493V38.1718C39.138 38.8714 38.5656 39.4438 37.866 39.4438C37.1664 39.4438 36.594 38.8714 36.594 38.1718V33.7962C35.8817 33.2238 35.1949 32.7277 34.5334 32.3589C34.3681 32.2698 34.2027 32.1808 34.0501 32.1172V32.1045ZM41.6819 43.247C42.3815 43.247 42.9539 43.8194 42.9539 44.5189C42.9539 45.2185 42.3815 45.7909 41.6819 45.7909C40.9823 45.7909 40.41 45.2185 40.41 44.5189C40.41 43.8194 40.9823 43.247 41.6819 43.247ZM23.8743 43.247C23.1747 43.247 22.6023 43.8194 22.6023 44.5189C22.6023 45.2185 23.1747 45.7909 23.8743 45.7909C24.5738 45.7909 25.1462 45.2185 25.1462 44.5189C25.1462 43.8194 24.5738 43.247 23.8743 43.247ZM27.6902 40.703C26.9906 40.703 26.4182 41.2754 26.4182 41.975C26.4182 42.6746 26.9906 43.247 27.6902 43.247C28.3898 43.247 28.9622 42.6746 28.9622 41.975C28.9622 41.2754 28.3898 40.703 27.6902 40.703ZM37.866 40.703C38.5656 40.703 39.138 41.2754 39.138 41.975C39.138 42.6746 38.5656 43.247 37.866 43.247C37.1664 43.247 36.594 42.6746 36.594 41.975C36.594 41.2754 37.1664 40.703 37.866 40.703ZM35.3221 12.7195H30.2341V26.7113C30.2341 27.3218 29.8017 27.8433 29.2038 27.9578C28.606 28.0723 28.0082 27.7543 27.7792 27.1819C27.7792 27.1819 25.2226 20.8729 23.34 16.2047L18.6464 18.0746L23.7216 32.6387C23.887 33.1093 23.7598 33.6308 23.4036 33.9743C23.0475 34.3177 22.5132 34.4195 22.0426 34.2287C22.0426 34.2287 18.214 32.6768 14.716 31.2777L11.8541 35.8568C14.08 37.892 16.7385 40.3596 18.6973 42.4075C20.2873 40.1815 23.6199 35.7423 26.8252 32.6896C28.9622 30.6671 31.1118 29.2934 32.7272 29.2298C34.3553 29.1535 36.5304 30.3364 38.6928 32.1935C41.9618 34.9918 45.3452 39.2402 46.9098 41.2881C48.1309 38.6424 48.8559 35.2844 48.9704 31.1123C48.9704 30.9215 49.0212 30.7307 49.1103 30.5654C49.1103 30.5654 51.2854 26.3806 53.0152 22.9208L49.9625 21.1782C47.9146 24.3836 45.4979 28.0341 45.4979 28.0341C45.1544 28.5429 44.5057 28.7464 43.9333 28.5048C43.3609 28.2631 43.0557 27.6525 43.1956 27.0547L45.8031 15.467L41.6311 14.2205C40.0792 19.4992 37.8024 27.0674 37.8024 27.0674C37.6243 27.678 37.0265 28.0469 36.4032 27.9578C35.78 27.8688 35.3221 27.3345 35.3221 26.6986V12.7068V12.7195ZM32.7781 36.8871C33.4777 36.8871 34.0501 37.4595 34.0501 38.1591C34.0501 38.8587 33.4777 39.431 32.7781 39.431C32.0785 39.431 31.5061 38.8587 31.5061 38.1591C31.5061 37.4595 32.0785 36.8871 32.7781 36.8871ZM18.2521 37.6884L19.3587 38.3244C19.9693 38.6806 20.7452 38.4643 21.1014 37.8538C21.4575 37.2432 21.2413 36.4673 20.6307 36.1112L19.5241 35.4752C18.9136 35.119 18.1376 35.3353 17.7815 35.9458C17.4253 36.5564 17.6416 37.3323 18.2521 37.6884ZM13.9401 34.3431C14.2963 33.7326 15.0722 33.5291 15.6827 33.8725C16.2933 34.2287 16.4968 35.0046 16.1534 35.6151C15.7972 36.2257 15.0213 36.4292 14.4108 36.0857C13.8002 35.7296 13.5967 34.9537 13.9401 34.3431ZM12.312 30.3491C12.0703 30.2474 11.8286 30.1583 11.5997 30.0693C10.8492 29.7767 10.0097 29.9167 9.41189 30.3873C9.19565 30.5654 8.8395 31.0742 8.82678 31.0996C8.40703 31.9264 8.5851 32.9185 9.27197 33.5418C9.47549 33.7326 9.70444 33.9234 9.9334 34.1396L12.312 30.3364V30.3491ZM46.9352 26.8894L46.2992 27.996C45.9431 28.6065 46.1593 29.3824 46.7698 29.7386C47.3804 30.0947 48.1563 29.8785 48.5124 29.2679L49.1484 28.1613C49.5046 27.5508 49.2884 26.7749 48.6778 26.4187C48.0673 26.0626 47.2914 26.2788 46.9352 26.8894ZM22.3097 23.9129L22.6404 25.1467C22.8185 25.8209 23.5181 26.2279 24.1923 26.0498C24.8664 25.8718 25.2734 25.1722 25.0954 24.498L24.7646 23.2642C24.5866 22.5901 23.887 22.183 23.2001 22.3611C22.526 22.5392 22.1189 23.2388 22.297 23.9129H22.3097ZM50.5731 23.1243C51.1836 23.4805 51.3871 24.2564 51.0437 24.8669C50.6875 25.4775 49.9116 25.681 49.3011 25.3375C48.6905 24.9814 48.487 24.2055 48.8304 23.5949C49.1866 22.9844 49.9625 22.7809 50.5731 23.1243ZM40.7661 20.7203L40.4354 21.9541C40.2573 22.6282 40.6516 23.3278 41.3385 23.5059C42.0126 23.684 42.7122 23.2897 42.8903 22.6028L43.221 21.369C43.3991 20.6948 43.0048 19.9952 42.3179 19.8172C41.6438 19.6391 40.9442 20.0334 40.7534 20.7203H40.7661ZM31.4934 19.0921V20.3641C31.4934 21.0637 32.0658 21.6361 32.7654 21.6361C33.465 21.6361 34.0374 21.0637 34.0374 20.3641V19.0921C34.0374 18.3925 33.465 17.8202 32.7654 17.8202C32.0658 17.8202 31.4934 18.3925 31.4934 19.0921ZM21.6229 18.4943C22.297 18.3162 22.9966 18.7105 23.1747 19.3974C23.3528 20.0716 22.9584 20.7711 22.2716 20.9492C21.5974 21.1273 20.8978 20.733 20.707 20.0461C20.529 19.372 20.9233 18.6724 21.6101 18.4816L21.6229 18.4943ZM54.1346 20.6567C54.1727 20.5803 54.1982 20.5167 54.2363 20.4404C54.5671 19.7536 54.3508 18.9395 53.7148 18.4943C53.346 18.2272 52.8753 18.1382 52.4174 18.2272C51.9722 18.3162 51.5779 18.5833 51.349 18.9649L51.3108 19.0413L54.1346 20.6567ZM43.3101 16.1284C43.9842 16.3065 44.3912 17.0061 44.2132 17.693C44.0351 18.3671 43.3355 18.7741 42.6486 18.5961C41.9745 18.418 41.5675 17.7184 41.7455 17.0443C41.9236 16.3701 42.6232 15.9631 43.2973 16.1411L43.3101 16.1284ZM32.7654 14.0042C33.465 14.0042 34.0374 14.5766 34.0374 15.2762C34.0374 15.9758 33.465 16.5482 32.7654 16.5482C32.0658 16.5482 31.4934 15.9758 31.4934 15.2762C31.4934 14.5766 32.0658 14.0042 32.7654 14.0042ZM22.3225 13.8898C21.7373 13.0502 20.6689 12.6432 19.6386 12.923C18.9772 13.1011 18.4175 13.5463 18.0868 14.1441C17.8324 14.6148 17.7433 15.1617 17.8324 15.6832L22.3225 13.8898ZM46.3374 12.9994C46.3755 12.5415 46.2611 12.0708 46.0067 11.6765C45.7014 11.2059 45.2053 10.8752 44.6456 10.7607C43.7298 10.5826 42.814 11.0151 42.3942 11.8037L46.3501 12.9866L46.3374 12.9994ZM35.3093 10.1883C35.3093 8.78912 34.2409 7.64434 32.829 7.64434C31.4171 7.64434 30.2214 8.7764 30.2214 10.1883H35.3093Z" fill="black" fill-opacity="0.2"/>
<path fill-rule="evenodd" clip-rule="evenodd" d="M27.6902 10.1756V20.1733C26.7489 17.8456 25.7186 15.3016 24.9427 13.3682C24.0015 11.0405 21.4448 9.78127 18.9899 10.43C17.6416 10.7988 16.5095 11.6892 15.8608 12.9103C15.1994 14.1314 15.0976 15.5688 15.5428 16.8789L20.4018 30.8325C18.1249 29.9167 14.8178 28.5811 12.541 27.6907C10.5821 26.9148 8.39431 27.5253 7.10961 29.0899C6.89337 29.3443 6.51178 30.0566 6.51178 30.0566C5.64684 31.8755 6.06659 34.0379 7.5548 35.4116C10.6075 38.1718 17.0437 43.9211 18.9008 46.5159C20.4272 48.6402 21.254 54.8601 21.254 54.8601C21.3557 55.5597 22.0045 56.0431 22.6913 55.9413C23.3909 55.8395 23.8743 55.1908 23.7725 54.504C23.7725 54.504 23.5054 52.6978 23.0093 50.6117C26.7871 49.4542 30.285 47.9278 32.8035 45.2058C35.3348 47.8261 38.7691 49.5687 42.9412 50.6117V54.6948C42.9412 55.3943 43.5136 55.9667 44.2132 55.9667C44.9128 55.9667 45.4851 55.3943 45.4851 54.6948V47.6226C48.9068 44.4172 51.2218 39.253 51.4889 31.4812C52.1503 30.2219 55.0504 24.6125 56.5259 21.5216C57.3908 19.7154 56.8312 17.5658 55.1776 16.3955C54.2363 15.7341 53.0534 15.4797 51.9213 15.7087C50.7893 15.9376 49.7971 16.6245 49.1866 17.6039C48.6142 18.5197 47.9273 19.6136 47.215 20.7203L48.7796 13.788C49.0594 12.5669 48.8177 11.2949 48.1309 10.2519C47.444 9.20888 46.3628 8.48385 45.129 8.24217C42.7631 7.77154 40.4354 9.18344 39.774 11.473C39.2525 13.2665 38.5529 15.6578 37.8533 17.9982V10.1629C37.8533 7.35179 35.6782 5.07495 32.829 5.07495C29.9797 5.07495 27.6775 7.36451 27.6775 10.1629L27.6902 10.1756ZM32.7781 48.3349C30.6666 48.3349 28.9622 50.0393 28.9622 52.1508C28.9622 54.2623 30.6666 55.9667 32.7781 55.9667C34.8896 55.9667 36.594 54.2623 36.594 52.1508C36.594 50.0393 34.8896 48.3349 32.7781 48.3349ZM39.138 50.8788C39.8376 50.8788 40.41 51.4512 40.41 52.1508C40.41 52.8504 39.8376 53.4228 39.138 53.4228C38.4384 53.4228 37.866 52.8504 37.866 52.1508C37.866 51.4512 38.4384 50.8788 39.138 50.8788ZM26.4182 50.8788C27.1178 50.8788 27.6902 51.4512 27.6902 52.1508C27.6902 52.8504 27.1178 53.4228 26.4182 53.4228C25.7186 53.4228 25.1462 52.8504 25.1462 52.1508C25.1462 51.4512 25.7186 50.8788 26.4182 50.8788ZM32.7781 50.8788C33.4777 50.8788 34.0501 51.4512 34.0501 52.1508C34.0501 52.8504 33.4777 53.4228 32.7781 53.4228C32.0785 53.4228 31.5061 52.8504 31.5061 52.1508C31.5061 51.4512 32.0785 50.8788 32.7781 50.8788ZM34.0501 32.1045V34.3431C34.0501 35.0427 33.4777 35.6151 32.7781 35.6151C32.0785 35.6151 31.5061 35.0427 31.5061 34.3431V32.2698C30.7048 32.715 29.8398 33.3892 28.9622 34.2032V38.1591C28.9622 38.8587 28.3898 39.431 27.6902 39.431C26.9906 39.431 26.4182 38.8587 26.4182 38.1591V36.7981C25.9857 37.2814 25.566 37.7648 25.1462 38.2608V41.3517C25.1462 42.0513 24.5738 42.6237 23.8743 42.6237C23.1747 42.6237 22.6532 42.1022 22.6023 41.4408C21.6865 42.6491 20.9233 43.6922 20.4399 44.379C20.6434 44.6207 20.8215 44.8624 20.9742 45.0659C21.4957 45.7909 21.9536 46.9357 22.3479 48.1822C26.0875 47.0375 29.5346 45.562 31.7478 42.5219C31.9768 42.204 32.3583 42.0004 32.7527 42.0004C33.147 42.0004 33.5286 42.1658 33.7702 42.4838C35.9326 45.2058 39.0744 46.9484 42.9539 48.0169V47.0883C42.9539 46.7195 43.1193 46.3633 43.3991 46.1216C44.1877 45.4348 44.9 44.6461 45.536 43.7303C45.1417 43.1961 44.2004 41.9368 42.9539 40.4232V41.3517C42.9539 42.0513 42.3815 42.6237 41.6819 42.6237C40.9823 42.6237 40.41 42.0513 40.41 41.3517V37.4849C39.9902 37.027 39.5704 36.5818 39.138 36.1493V38.1718C39.138 38.8714 38.5656 39.4438 37.866 39.4438C37.1664 39.4438 36.594 38.8714 36.594 38.1718V33.7962C35.8817 33.2238 35.1949 32.7277 34.5334 32.3589C34.3681 32.2698 34.2027 32.1808 34.0501 32.1172V32.1045ZM41.6819 43.247C42.3815 43.247 42.9539 43.8194 42.9539 44.5189C42.9539 45.2185 42.3815 45.7909 41.6819 45.7909C40.9823 45.7909 40.41 45.2185 40.41 44.5189C40.41 43.8194 40.9823 43.247 41.6819 43.247ZM23.8743 43.247C23.1747 43.247 22.6023 43.8194 22.6023 44.5189C22.6023 45.2185 23.1747 45.7909 23.8743 45.7909C24.5738 45.7909 25.1462 45.2185 25.1462 44.5189C25.1462 43.8194 24.5738 43.247 23.8743 43.247ZM27.6902 40.703C26.9906 40.703 26.4182 41.2754 26.4182 41.975C26.4182 42.6746 26.9906 43.247 27.6902 43.247C28.3898 43.247 28.9622 42.6746 28.9622 41.975C28.9622 41.2754 28.3898 40.703 27.6902 40.703ZM37.866 40.703C38.5656 40.703 39.138 41.2754 39.138 41.975C39.138 42.6746 38.5656 43.247 37.866 43.247C37.1664 43.247 36.594 42.6746 36.594 41.975C36.594 41.2754 37.1664 40.703 37.866 40.703ZM35.3221 12.7195H30.2341V26.7113C30.2341 27.3218 29.8017 27.8433 29.2038 27.9578C28.606 28.0723 28.0082 27.7543 27.7792 27.1819C27.7792 27.1819 25.2226 20.8729 23.34 16.2047L18.6464 18.0746L23.7216 32.6387C23.887 33.1093 23.7598 33.6308 23.4036 33.9743C23.0475 34.3177 22.5132 34.4195 22.0426 34.2287C22.0426 34.2287 18.214 32.6768 14.716 31.2777L11.8541 35.8568C14.08 37.892 16.7385 40.3596 18.6973 42.4075C20.2873 40.1815 23.6199 35.7423 26.8252 32.6896C28.9622 30.6671 31.1118 29.2934 32.7272 29.2298C34.3553 29.1535 36.5304 30.3364 38.6928 32.1935C41.9618 34.9918 45.3452 39.2402 46.9098 41.2881C48.1309 38.6424 48.8559 35.2844 48.9704 31.1123C48.9704 30.9215 49.0212 30.7307 49.1103 30.5654C49.1103 30.5654 51.2854 26.3806 53.0152 22.9208L49.9625 21.1782C47.9146 24.3836 45.4979 28.0341 45.4979 28.0341C45.1544 28.5429 44.5057 28.7464 43.9333 28.5048C43.3609 28.2631 43.0557 27.6525 43.1956 27.0547L45.8031 15.467L41.6311 14.2205C40.0792 19.4992 37.8024 27.0674 37.8024 27.0674C37.6243 27.678 37.0265 28.0469 36.4032 27.9578C35.78 27.8688 35.3221 27.3345 35.3221 26.6986V12.7068V12.7195ZM32.7781 36.8871C33.4777 36.8871 34.0501 37.4595 34.0501 38.1591C34.0501 38.8587 33.4777 39.431 32.7781 39.431C32.0785 39.431 31.5061 38.8587 31.5061 38.1591C31.5061 37.4595 32.0785 36.8871 32.7781 36.8871ZM18.2521 37.6884L19.3587 38.3244C19.9693 38.6806 20.7452 38.4643 21.1014 37.8538C21.4575 37.2432 21.2413 36.4673 20.6307 36.1112L19.5241 35.4752C18.9136 35.119 18.1376 35.3353 17.7815 35.9458C17.4253 36.5564 17.6416 37.3323 18.2521 37.6884ZM13.9401 34.3431C14.2963 33.7326 15.0722 33.5291 15.6827 33.8725C16.2933 34.2287 16.4968 35.0046 16.1534 35.6151C15.7972 36.2257 15.0213 36.4292 14.4108 36.0857C13.8002 35.7296 13.5967 34.9537 13.9401 34.3431ZM12.312 30.3491C12.0703 30.2474 11.8286 30.1583 11.5997 30.0693C10.8492 29.7767 10.0097 29.9167 9.41189 30.3873C9.19565 30.5654 8.8395 31.0742 8.82678 31.0996C8.40703 31.9264 8.5851 32.9185 9.27197 33.5418C9.47549 33.7326 9.70444 33.9234 9.9334 34.1396L12.312 30.3364V30.3491ZM46.9352 26.8894L46.2992 27.996C45.9431 28.6065 46.1593 29.3824 46.7698 29.7386C47.3804 30.0947 48.1563 29.8785 48.5124 29.2679L49.1484 28.1613C49.5046 27.5508 49.2884 26.7749 48.6778 26.4187C48.0673 26.0626 47.2914 26.2788 46.9352 26.8894ZM22.3097 23.9129L22.6404 25.1467C22.8185 25.8209 23.5181 26.2279 24.1923 26.0498C24.8664 25.8718 25.2734 25.1722 25.0954 24.498L24.7646 23.2642C24.5866 22.5901 23.887 22.183 23.2001 22.3611C22.526 22.5392 22.1189 23.2388 22.297 23.9129H22.3097ZM50.5731 23.1243C51.1836 23.4805 51.3871 24.2564 51.0437 24.8669C50.6875 25.4775 49.9116 25.681 49.3011 25.3375C48.6905 24.9814 48.487 24.2055 48.8304 23.5949C49.1866 22.9844 49.9625 22.7809 50.5731 23.1243ZM40.7661 20.7203L40.4354 21.9541C40.2573 22.6282 40.6516 23.3278 41.3385 23.5059C42.0126 23.684 42.7122 23.2897 42.8903 22.6028L43.221 21.369C43.3991 20.6948 43.0048 19.9952 42.3179 19.8172C41.6438 19.6391 40.9442 20.0334 40.7534 20.7203H40.7661ZM31.4934 19.0921V20.3641C31.4934 21.0637 32.0658 21.6361 32.7654 21.6361C33.465 21.6361 34.0374 21.0637 34.0374 20.3641V19.0921C34.0374 18.3925 33.465 17.8202 32.7654 17.8202C32.0658 17.8202 31.4934 18.3925 31.4934 19.0921ZM21.6229 18.4943C22.297 18.3162 22.9966 18.7105 23.1747 19.3974C23.3528 20.0716 22.9584 20.7711 22.2716 20.9492C21.5974 21.1273 20.8978 20.733 20.707 20.0461C20.529 19.372 20.9233 18.6724 21.6101 18.4816L21.6229 18.4943ZM54.1346 20.6567C54.1727 20.5803 54.1982 20.5167 54.2363 20.4404C54.5671 19.7536 54.3508 18.9395 53.7148 18.4943C53.346 18.2272 52.8753 18.1382 52.4174 18.2272C51.9722 18.3162 51.5779 18.5833 51.349 18.9649L51.3108 19.0413L54.1346 20.6567ZM43.3101 16.1284C43.9842 16.3065 44.3912 17.0061 44.2132 17.693C44.0351 18.3671 43.3355 18.7741 42.6486 18.5961C41.9745 18.418 41.5675 17.7184 41.7455 17.0443C41.9236 16.3701 42.6232 15.9631 43.2973 16.1411L43.3101 16.1284ZM32.7654 14.0042C33.465 14.0042 34.0374 14.5766 34.0374 15.2762C34.0374 15.9758 33.465 16.5482 32.7654 16.5482C32.0658 16.5482 31.4934 15.9758 31.4934 15.2762C31.4934 14.5766 32.0658 14.0042 32.7654 14.0042ZM22.3225 13.8898C21.7373 13.0502 20.6689 12.6432 19.6386 12.923C18.9772 13.1011 18.4175 13.5463 18.0868 14.1441C17.8324 14.6148 17.7433 15.1617 17.8324 15.6832L22.3225 13.8898ZM46.3374 12.9994C46.3755 12.5415 46.2611 12.0708 46.0067 11.6765C45.7014 11.2059 45.2053 10.8752 44.6456 10.7607C43.7298 10.5826 42.814 11.0151 42.3942 11.8037L46.3501 12.9866L46.3374 12.9994ZM35.3093 10.1883C35.3093 8.78912 34.2409 7.64434 32.829 7.64434C31.4171 7.64434 30.2214 8.7764 30.2214 10.1883H35.3093Z" fill="black" fill-opacity="0.2"/>
<path fill-rule="evenodd" clip-rule="evenodd" d="M27.6902 10.1756V20.1733C26.7489 17.8456 25.7186 15.3016 24.9427 13.3682C24.0015 11.0405 21.4448 9.78127 18.9899 10.43C17.6416 10.7988 16.5095 11.6892 15.8608 12.9103C15.1994 14.1314 15.0976 15.5688 15.5428 16.8789L20.4018 30.8325C18.1249 29.9167 14.8178 28.5811 12.541 27.6907C10.5821 26.9148 8.39431 27.5253 7.10961 29.0899C6.89337 29.3443 6.51178 30.0566 6.51178 30.0566C5.64684 31.8755 6.06659 34.0379 7.5548 35.4116C10.6075 38.1718 17.0437 43.9211 18.9008 46.5159C20.4272 48.6402 21.254 54.8601 21.254 54.8601C21.3557 55.5597 22.0045 56.0431 22.6913 55.9413C23.3909 55.8395 23.8743 55.1908 23.7725 54.504C23.7725 54.504 23.5054 52.6978 23.0093 50.6117C26.7871 49.4542 30.285 47.9278 32.8035 45.2058C35.3348 47.8261 38.7691 49.5687 42.9412 50.6117V54.6948C42.9412 55.3943 43.5136 55.9667 44.2132 55.9667C44.9128 55.9667 45.4851 55.3943 45.4851 54.6948V47.6226C48.9068 44.4172 51.2218 39.253 51.4889 31.4812C52.1503 30.2219 55.0504 24.6125 56.5259 21.5216C57.3908 19.7154 56.8312 17.5658 55.1776 16.3955C54.2363 15.7341 53.0534 15.4797 51.9213 15.7087C50.7893 15.9376 49.7971 16.6245 49.1866 17.6039C48.6142 18.5197 47.9273 19.6136 47.215 20.7203L48.7796 13.788C49.0594 12.5669 48.8177 11.2949 48.1309 10.2519C47.444 9.20888 46.3628 8.48385 45.129 8.24217C42.7631 7.77154 40.4354 9.18344 39.774 11.473C39.2525 13.2665 38.5529 15.6578 37.8533 17.9982V10.1629C37.8533 7.35179 35.6782 5.07495 32.829 5.07495C29.9797 5.07495 27.6775 7.36451 27.6775 10.1629L27.6902 10.1756ZM32.7781 48.3349C30.6666 48.3349 28.9622 50.0393 28.9622 52.1508C28.9622 54.2623 30.6666 55.9667 32.7781 55.9667C34.8896 55.9667 36.594 54.2623 36.594 52.1508C36.594 50.0393 34.8896 48.3349 32.7781 48.3349ZM39.138 50.8788C39.8376 50.8788 40.41 51.4512 40.41 52.1508C40.41 52.8504 39.8376 53.4228 39.138 53.4228C38.4384 53.4228 37.866 52.8504 37.866 52.1508C37.866 51.4512 38.4384 50.8788 39.138 50.8788ZM26.4182 50.8788C27.1178 50.8788 27.6902 51.4512 27.6902 52.1508C27.6902 52.8504 27.1178 53.4228 26.4182 53.4228C25.7186 53.4228 25.1462 52.8504 25.1462 52.1508C25.1462 51.4512 25.7186 50.8788 26.4182 50.8788ZM32.7781 50.8788C33.4777 50.8788 34.0501 51.4512 34.0501 52.1508C34.0501 52.8504 33.4777 53.4228 32.7781 53.4228C32.0785 53.4228 31.5061 52.8504 31.5061 52.1508C31.5061 51.4512 32.0785 50.8788 32.7781 50.8788ZM34.0501 32.1045V34.3431C34.0501 35.0427 33.4777 35.6151 32.7781 35.6151C32.0785 35.6151 31.5061 35.0427 31.5061 34.3431V32.2698C30.7048 32.715 29.8398 33.3892 28.9622 34.2032V38.1591C28.9622 38.8587 28.3898 39.431 27.6902 39.431C26.9906 39.431 26.4182 38.8587 26.4182 38.1591V36.7981C25.9857 37.2814 25.566 37.7648 25.1462 38.2608V41.3517C25.1462 42.0513 24.5738 42.6237 23.8743 42.6237C23.1747 42.6237 22.6532 42.1022 22.6023 41.4408C21.6865 42.6491 20.9233 43.6922 20.4399 44.379C20.6434 44.6207 20.8215 44.8624 20.9742 45.0659C21.4957 45.7909 21.9536 46.9357 22.3479 48.1822C26.0875 47.0375 29.5346 45.562 31.7478 42.5219C31.9768 42.204 32.3583 42.0004 32.7527 42.0004C33.147 42.0004 33.5286 42.1658 33.7702 42.4838C35.9326 45.2058 39.0744 46.9484 42.9539 48.0169V47.0883C42.9539 46.7195 43.1193 46.3633 43.3991 46.1216C44.1877 45.4348 44.9 44.6461 45.536 43.7303C45.1417 43.1961 44.2004 41.9368 42.9539 40.4232V41.3517C42.9539 42.0513 42.3815 42.6237 41.6819 42.6237C40.9823 42.6237 40.41 42.0513 40.41 41.3517V37.4849C39.9902 37.027 39.5704 36.5818 39.138 36.1493V38.1718C39.138 38.8714 38.5656 39.4438 37.866 39.4438C37.1664 39.4438 36.594 38.8714 36.594 38.1718V33.7962C35.8817 33.2238 35.1949 32.7277 34.5334 32.3589C34.3681 32.2698 34.2027 32.1808 34.0501 32.1172V32.1045ZM41.6819 43.247C42.3815 43.247 42.9539 43.8194 42.9539 44.5189C42.9539 45.2185 42.3815 45.7909 41.6819 45.7909C40.9823 45.7909 40.41 45.2185 40.41 44.5189C40.41 43.8194 40.9823 43.247 41.6819 43.247ZM23.8743 43.247C23.1747 43.247 22.6023 43.8194 22.6023 44.5189C22.6023 45.2185 23.1747 45.7909 23.8743 45.7909C24.5738 45.7909 25.1462 45.2185 25.1462 44.5189C25.1462 43.8194 24.5738 43.247 23.8743 43.247ZM27.6902 40.703C26.9906 40.703 26.4182 41.2754 26.4182 41.975C26.4182 42.6746 26.9906 43.247 27.6902 43.247C28.3898 43.247 28.9622 42.6746 28.9622 41.975C28.9622 41.2754 28.3898 40.703 27.6902 40.703ZM37.866 40.703C38.5656 40.703 39.138 41.2754 39.138 41.975C39.138 42.6746 38.5656 43.247 37.866 43.247C37.1664 43.247 36.594 42.6746 36.594 41.975C36.594 41.2754 37.1664 40.703 37.866 40.703ZM35.3221 12.7195H30.2341V26.7113C30.2341 27.3218 29.8017 27.8433 29.2038 27.9578C28.606 28.0723 28.0082 27.7543 27.7792 27.1819C27.7792 27.1819 25.2226 20.8729 23.34 16.2047L18.6464 18.0746L23.7216 32.6387C23.887 33.1093 23.7598 33.6308 23.4036 33.9743C23.0475 34.3177 22.5132 34.4195 22.0426 34.2287C22.0426 34.2287 18.214 32.6768 14.716 31.2777L11.8541 35.8568C14.08 37.892 16.7385 40.3596 18.6973 42.4075C20.2873 40.1815 23.6199 35.7423 26.8252 32.6896C28.9622 30.6671 31.1118 29.2934 32.7272 29.2298C34.3553 29.1535 36.5304 30.3364 38.6928 32.1935C41.9618 34.9918 45.3452 39.2402 46.9098 41.2881C48.1309 38.6424 48.8559 35.2844 48.9704 31.1123C48.9704 30.9215 49.0212 30.7307 49.1103 30.5654C49.1103 30.5654 51.2854 26.3806 53.0152 22.9208L49.9625 21.1782C47.9146 24.3836 45.4979 28.0341 45.4979 28.0341C45.1544 28.5429 44.5057 28.7464 43.9333 28.5048C43.3609 28.2631 43.0557 27.6525 43.1956 27.0547L45.8031 15.467L41.6311 14.2205C40.0792 19.4992 37.8024 27.0674 37.8024 27.0674C37.6243 27.678 37.0265 28.0469 36.4032 27.9578C35.78 27.8688 35.3221 27.3345 35.3221 26.6986V12.7068V12.7195ZM32.7781 36.8871C33.4777 36.8871 34.0501 37.4595 34.0501 38.1591C34.0501 38.8587 33.4777 39.431 32.7781 39.431C32.0785 39.431 31.5061 38.8587 31.5061 38.1591C31.5061 37.4595 32.0785 36.8871 32.7781 36.8871ZM18.2521 37.6884L19.3587 38.3244C19.9693 38.6806 20.7452 38.4643 21.1014 37.8538C21.4575 37.2432 21.2413 36.4673 20.6307 36.1112L19.5241 35.4752C18.9136 35.119 18.1376 35.3353 17.7815 35.9458C17.4253 36.5564 17.6416 37.3323 18.2521 37.6884ZM13.9401 34.3431C14.2963 33.7326 15.0722 33.5291 15.6827 33.8725C16.2933 34.2287 16.4968 35.0046 16.1534 35.6151C15.7972 36.2257 15.0213 36.4292 14.4108 36.0857C13.8002 35.7296 13.5967 34.9537 13.9401 34.3431ZM12.312 30.3491C12.0703 30.2474 11.8286 30.1583 11.5997 30.0693C10.8492 29.7767 10.0097 29.9167 9.41189 30.3873C9.19565 30.5654 8.8395 31.0742 8.82678 31.0996C8.40703 31.9264 8.5851 32.9185 9.27197 33.5418C9.47549 33.7326 9.70444 33.9234 9.9334 34.1396L12.312 30.3364V30.3491ZM46.9352 26.8894L46.2992 27.996C45.9431 28.6065 46.1593 29.3824 46.7698 29.7386C47.3804 30.0947 48.1563 29.8785 48.5124 29.2679L49.1484 28.1613C49.5046 27.5508 49.2884 26.7749 48.6778 26.4187C48.0673 26.0626 47.2914 26.2788 46.9352 26.8894ZM22.3097 23.9129L22.6404 25.1467C22.8185 25.8209 23.5181 26.2279 24.1923 26.0498C24.8664 25.8718 25.2734 25.1722 25.0954 24.498L24.7646 23.2642C24.5866 22.5901 23.887 22.183 23.2001 22.3611C22.526 22.5392 22.1189 23.2388 22.297 23.9129H22.3097ZM50.5731 23.1243C51.1836 23.4805 51.3871 24.2564 51.0437 24.8669C50.6875 25.4775 49.9116 25.681 49.3011 25.3375C48.6905 24.9814 48.487 24.2055 48.8304 23.5949C49.1866 22.9844 49.9625 22.7809 50.5731 23.1243ZM40.7661 20.7203L40.4354 21.9541C40.2573 22.6282 40.6516 23.3278 41.3385 23.5059C42.0126 23.684 42.7122 23.2897 42.8903 22.6028L43.221 21.369C43.3991 20.6948 43.0048 19.9952 42.3179 19.8172C41.6438 19.6391 40.9442 20.0334 40.7534 20.7203H40.7661ZM31.4934 19.0921V20.3641C31.4934 21.0637 32.0658 21.6361 32.7654 21.6361C33.465 21.6361 34.0374 21.0637 34.0374 20.3641V19.0921C34.0374 18.3925 33.465 17.8202 32.7654 17.8202C32.0658 17.8202 31.4934 18.3925 31.4934 19.0921ZM21.6229 18.4943C22.297 18.3162 22.9966 18.7105 23.1747 19.3974C23.3528 20.0716 22.9584 20.7711 22.2716 20.9492C21.5974 21.1273 20.8978 20.733 20.707 20.0461C20.529 19.372 20.9233 18.6724 21.6101 18.4816L21.6229 18.4943ZM54.1346 20.6567C54.1727 20.5803 54.1982 20.5167 54.2363 20.4404C54.5671 19.7536 54.3508 18.9395 53.7148 18.4943C53.346 18.2272 52.8753 18.1382 52.4174 18.2272C51.9722 18.3162 51.5779 18.5833 51.349 18.9649L51.3108 19.0413L54.1346 20.6567ZM43.3101 16.1284C43.9842 16.3065 44.3912 17.0061 44.2132 17.693C44.0351 18.3671 43.3355 18.7741 42.6486 18.5961C41.9745 18.418 41.5675 17.7184 41.7455 17.0443C41.9236 16.3701 42.6232 15.9631 43.2973 16.1411L43.3101 16.1284ZM32.7654 14.0042C33.465 14.0042 34.0374 14.5766 34.0374 15.2762C34.0374 15.9758 33.465 16.5482 32.7654 16.5482C32.0658 16.5482 31.4934 15.9758 31.4934 15.2762C31.4934 14.5766 32.0658 14.0042 32.7654 14.0042ZM22.3225 13.8898C21.7373 13.0502 20.6689 12.6432 19.6386 12.923C18.9772 13.1011 18.4175 13.5463 18.0868 14.1441C17.8324 14.6148 17.7433 15.1617 17.8324 15.6832L22.3225 13.8898ZM46.3374 12.9994C46.3755 12.5415 46.2611 12.0708 46.0067 11.6765C45.7014 11.2059 45.2053 10.8752 44.6456 10.7607C43.7298 10.5826 42.814 11.0151 42.3942 11.8037L46.3501 12.9866L46.3374 12.9994ZM35.3093 10.1883C35.3093 8.78912 34.2409 7.64434 32.829 7.64434C31.4171 7.64434 30.2214 8.7764 30.2214 10.1883H35.3093Z" fill="black" fill-opacity="0.2"/>
<path fill-rule="evenodd" clip-rule="evenodd" d="M27.6902 10.1756V20.1733C26.7489 17.8456 25.7186 15.3016 24.9427 13.3682C24.0015 11.0405 21.4448 9.78127 18.9899 10.43C17.6416 10.7988 16.5095 11.6892 15.8608 12.9103C15.1994 14.1314 15.0976 15.5688 15.5428 16.8789L20.4018 30.8325C18.1249 29.9167 14.8178 28.5811 12.541 27.6907C10.5821 26.9148 8.39431 27.5253 7.10961 29.0899C6.89337 29.3443 6.51178 30.0566 6.51178 30.0566C5.64684 31.8755 6.06659 34.0379 7.5548 35.4116C10.6075 38.1718 17.0437 43.9211 18.9008 46.5159C20.4272 48.6402 21.254 54.8601 21.254 54.8601C21.3557 55.5597 22.0045 56.0431 22.6913 55.9413C23.3909 55.8395 23.8743 55.1908 23.7725 54.504C23.7725 54.504 23.5054 52.6978 23.0093 50.6117C26.7871 49.4542 30.285 47.9278 32.8035 45.2058C35.3348 47.8261 38.7691 49.5687 42.9412 50.6117V54.6948C42.9412 55.3943 43.5136 55.9667 44.2132 55.9667C44.9128 55.9667 45.4851 55.3943 45.4851 54.6948V47.6226C48.9068 44.4172 51.2218 39.253 51.4889 31.4812C52.1503 30.2219 55.0504 24.6125 56.5259 21.5216C57.3908 19.7154 56.8312 17.5658 55.1776 16.3955C54.2363 15.7341 53.0534 15.4797 51.9213 15.7087C50.7893 15.9376 49.7971 16.6245 49.1866 17.6039C48.6142 18.5197 47.9273 19.6136 47.215 20.7203L48.7796 13.788C49.0594 12.5669 48.8177 11.2949 48.1309 10.2519C47.444 9.20888 46.3628 8.48385 45.129 8.24217C42.7631 7.77154 40.4354 9.18344 39.774 11.473C39.2525 13.2665 38.5529 15.6578 37.8533 17.9982V10.1629C37.8533 7.35179 35.6782 5.07495 32.829 5.07495C29.9797 5.07495 27.6775 7.36451 27.6775 10.1629L27.6902 10.1756ZM32.7781 48.3349C30.6666 48.3349 28.9622 50.0393 28.9622 52.1508C28.9622 54.2623 30.6666 55.9667 32.7781 55.9667C34.8896 55.9667 36.594 54.2623 36.594 52.1508C36.594 50.0393 34.8896 48.3349 32.7781 48.3349ZM39.138 50.8788C39.8376 50.8788 40.41 51.4512 40.41 52.1508C40.41 52.8504 39.8376 53.4228 39.138 53.4228C38.4384 53.4228 37.866 52.8504 37.866 52.1508C37.866 51.4512 38.4384 50.8788 39.138 50.8788ZM26.4182 50.8788C27.1178 50.8788 27.6902 51.4512 27.6902 52.1508C27.6902 52.8504 27.1178 53.4228 26.4182 53.4228C25.7186 53.4228 25.1462 52.8504 25.1462 52.1508C25.1462 51.4512 25.7186 50.8788 26.4182 50.8788ZM32.7781 50.8788C33.4777 50.8788 34.0501 51.4512 34.0501 52.1508C34.0501 52.8504 33.4777 53.4228 32.7781 53.4228C32.0785 53.4228 31.5061 52.8504 31.5061 52.1508C31.5061 51.4512 32.0785 50.8788 32.7781 50.8788ZM34.0501 32.1045V34.3431C34.0501 35.0427 33.4777 35.6151 32.7781 35.6151C32.0785 35.6151 31.5061 35.0427 31.5061 34.3431V32.2698C30.7048 32.715 29.8398 33.3892 28.9622 34.2032V38.1591C28.9622 38.8587 28.3898 39.431 27.6902 39.431C26.9906 39.431 26.4182 38.8587 26.4182 38.1591V36.7981C25.9857 37.2814 25.566 37.7648 25.1462 38.2608V41.3517C25.1462 42.0513 24.5738 42.6237 23.8743 42.6237C23.1747 42.6237 22.6532 42.1022 22.6023 41.4408C21.6865 42.6491 20.9233 43.6922 20.4399 44.379C20.6434 44.6207 20.8215 44.8624 20.9742 45.0659C21.4957 45.7909 21.9536 46.9357 22.3479 48.1822C26.0875 47.0375 29.5346 45.562 31.7478 42.5219C31.9768 42.204 32.3583 42.0004 32.7527 42.0004C33.147 42.0004 33.5286 42.1658 33.7702 42.4838C35.9326 45.2058 39.0744 46.9484 42.9539 48.0169V47.0883C42.9539 46.7195 43.1193 46.3633 43.3991 46.1216C44.1877 45.4348 44.9 44.6461 45.536 43.7303C45.1417 43.1961 44.2004 41.9368 42.9539 40.4232V41.3517C42.9539 42.0513 42.3815 42.6237 41.6819 42.6237C40.9823 42.6237 40.41 42.0513 40.41 41.3517V37.4849C39.9902 37.027 39.5704 36.5818 39.138 36.1493V38.1718C39.138 38.8714 38.5656 39.4438 37.866 39.4438C37.1664 39.4438 36.594 38.8714 36.594 38.1718V33.7962C35.8817 33.2238 35.1949 32.7277 34.5334 32.3589C34.3681 32.2698 34.2027 32.1808 34.0501 32.1172V32.1045ZM41.6819 43.247C42.3815 43.247 42.9539 43.8194 42.9539 44.5189C42.9539 45.2185 42.3815 45.7909 41.6819 45.7909C40.9823 45.7909 40.41 45.2185 40.41 44.5189C40.41 43.8194 40.9823 43.247 41.6819 43.247ZM23.8743 43.247C23.1747 43.247 22.6023 43.8194 22.6023 44.5189C22.6023 45.2185 23.1747 45.7909 23.8743 45.7909C24.5738 45.7909 25.1462 45.2185 25.1462 44.5189C25.1462 43.8194 24.5738 43.247 23.8743 43.247ZM27.6902 40.703C26.9906 40.703 26.4182 41.2754 26.4182 41.975C26.4182 42.6746 26.9906 43.247 27.6902 43.247C28.3898 43.247 28.9622 42.6746 28.9622 41.975C28.9622 41.2754 28.3898 40.703 27.6902 40.703ZM37.866 40.703C38.5656 40.703 39.138 41.2754 39.138 41.975C39.138 42.6746 38.5656 43.247 37.866 43.247C37.1664 43.247 36.594 42.6746 36.594 41.975C36.594 41.2754 37.1664 40.703 37.866 40.703ZM35.3221 12.7195H30.2341V26.7113C30.2341 27.3218 29.8017 27.8433 29.2038 27.9578C28.606 28.0723 28.0082 27.7543 27.7792 27.1819C27.7792 27.1819 25.2226 20.8729 23.34 16.2047L18.6464 18.0746L23.7216 32.6387C23.887 33.1093 23.7598 33.6308 23.4036 33.9743C23.0475 34.3177 22.5132 34.4195 22.0426 34.2287C22.0426 34.2287 18.214 32.6768 14.716 31.2777L11.8541 35.8568C14.08 37.892 16.7385 40.3596 18.6973 42.4075C20.2873 40.1815 23.6199 35.7423 26.8252 32.6896C28.9622 30.6671 31.1118 29.2934 32.7272 29.2298C34.3553 29.1535 36.5304 30.3364 38.6928 32.1935C41.9618 34.9918 45.3452 39.2402 46.9098 41.2881C48.1309 38.6424 48.8559 35.2844 48.9704 31.1123C48.9704 30.9215 49.0212 30.7307 49.1103 30.5654C49.1103 30.5654 51.2854 26.3806 53.0152 22.9208L49.9625 21.1782C47.9146 24.3836 45.4979 28.0341 45.4979 28.0341C45.1544 28.5429 44.5057 28.7464 43.9333 28.5048C43.3609 28.2631 43.0557 27.6525 43.1956 27.0547L45.8031 15.467L41.6311 14.2205C40.0792 19.4992 37.8024 27.0674 37.8024 27.0674C37.6243 27.678 37.0265 28.0469 36.4032 27.9578C35.78 27.8688 35.3221 27.3345 35.3221 26.6986V12.7068V12.7195ZM32.7781 36.8871C33.4777 36.8871 34.0501 37.4595 34.0501 38.1591C34.0501 38.8587 33.4777 39.431 32.7781 39.431C32.0785 39.431 31.5061 38.8587 31.5061 38.1591C31.5061 37.4595 32.0785 36.8871 32.7781 36.8871ZM18.2521 37.6884L19.3587 38.3244C19.9693 38.6806 20.7452 38.4643 21.1014 37.8538C21.4575 37.2432 21.2413 36.4673 20.6307 36.1112L19.5241 35.4752C18.9136 35.119 18.1376 35.3353 17.7815 35.9458C17.4253 36.5564 17.6416 37.3323 18.2521 37.6884ZM13.9401 34.3431C14.2963 33.7326 15.0722 33.5291 15.6827 33.8725C16.2933 34.2287 16.4968 35.0046 16.1534 35.6151C15.7972 36.2257 15.0213 36.4292 14.4108 36.0857C13.8002 35.7296 13.5967 34.9537 13.9401 34.3431ZM12.312 30.3491C12.0703 30.2474 11.8286 30.1583 11.5997 30.0693C10.8492 29.7767 10.0097 29.9167 9.41189 30.3873C9.19565 30.5654 8.8395 31.0742 8.82678 31.0996C8.40703 31.9264 8.5851 32.9185 9.27197 33.5418C9.47549 33.7326 9.70444 33.9234 9.9334 34.1396L12.312 30.3364V30.3491ZM46.9352 26.8894L46.2992 27.996C45.9431 28.6065 46.1593 29.3824 46.7698 29.7386C47.3804 30.0947 48.1563 29.8785 48.5124 29.2679L49.1484 28.1613C49.5046 27.5508 49.2884 26.7749 48.6778 26.4187C48.0673 26.0626 47.2914 26.2788 46.9352 26.8894ZM22.3097 23.9129L22.6404 25.1467C22.8185 25.8209 23.5181 26.2279 24.1923 26.0498C24.8664 25.8718 25.2734 25.1722 25.0954 24.498L24.7646 23.2642C24.5866 22.5901 23.887 22.183 23.2001 22.3611C22.526 22.5392 22.1189 23.2388 22.297 23.9129H22.3097ZM50.5731 23.1243C51.1836 23.4805 51.3871 24.2564 51.0437 24.8669C50.6875 25.4775 49.9116 25.681 49.3011 25.3375C48.6905 24.9814 48.487 24.2055 48.8304 23.5949C49.1866 22.9844 49.9625 22.7809 50.5731 23.1243ZM40.7661 20.7203L40.4354 21.9541C40.2573 22.6282 40.6516 23.3278 41.3385 23.5059C42.0126 23.684 42.7122 23.2897 42.8903 22.6028L43.221 21.369C43.3991 20.6948 43.0048 19.9952 42.3179 19.8172C41.6438 19.6391 40.9442 20.0334 40.7534 20.7203H40.7661ZM31.4934 19.0921V20.3641C31.4934 21.0637 32.0658 21.6361 32.7654 21.6361C33.465 21.6361 34.0374 21.0637 34.0374 20.3641V19.0921C34.0374 18.3925 33.465 17.8202 32.7654 17.8202C32.0658 17.8202 31.4934 18.3925 31.4934 19.0921ZM21.6229 18.4943C22.297 18.3162 22.9966 18.7105 23.1747 19.3974C23.3528 20.0716 22.9584 20.7711 22.2716 20.9492C21.5974 21.1273 20.8978 20.733 20.707 20.0461C20.529 19.372 20.9233 18.6724 21.6101 18.4816L21.6229 18.4943ZM54.1346 20.6567C54.1727 20.5803 54.1982 20.5167 54.2363 20.4404C54.5671 19.7536 54.3508 18.9395 53.7148 18.4943C53.346 18.2272 52.8753 18.1382 52.4174 18.2272C51.9722 18.3162 51.5779 18.5833 51.349 18.9649L51.3108 19.0413L54.1346 20.6567ZM43.3101 16.1284C43.9842 16.3065 44.3912 17.0061 44.2132 17.693C44.0351 18.3671 43.3355 18.7741 42.6486 18.5961C41.9745 18.418 41.5675 17.7184 41.7455 17.0443C41.9236 16.3701 42.6232 15.9631 43.2973 16.1411L43.3101 16.1284ZM32.7654 14.0042C33.465 14.0042 34.0374 14.5766 34.0374 15.2762C34.0374 15.9758 33.465 16.5482 32.7654 16.5482C32.0658 16.5482 31.4934 15.9758 31.4934 15.2762C31.4934 14.5766 32.0658 14.0042 32.7654 14.0042ZM22.3225 13.8898C21.7373 13.0502 20.6689 12.6432 19.6386 12.923C18.9772 13.1011 18.4175 13.5463 18.0868 14.1441C17.8324 14.6148 17.7433 15.1617 17.8324 15.6832L22.3225 13.8898ZM46.3374 12.9994C46.3755 12.5415 46.2611 12.0708 46.0067 11.6765C45.7014 11.2059 45.2053 10.8752 44.6456 10.7607C43.7298 10.5826 42.814 11.0151 42.3942 11.8037L46.3501 12.9866L46.3374 12.9994ZM35.3093 10.1883C35.3093 8.78912 34.2409 7.64434 32.829 7.64434C31.4171 7.64434 30.2214 8.7764 30.2214 10.1883H35.3093Z" fill="black" fill-opacity="0.2"/>
<path fill-rule="evenodd" clip-rule="evenodd" d="M27.6902 10.1756V20.1733C26.7489 17.8456 25.7186 15.3016 24.9427 13.3682C24.0015 11.0405 21.4448 9.78127 18.9899 10.43C17.6416 10.7988 16.5095 11.6892 15.8608 12.9103C15.1994 14.1314 15.0976 15.5688 15.5428 16.8789L20.4018 30.8325C18.1249 29.9167 14.8178 28.5811 12.541 27.6907C10.5821 26.9148 8.39431 27.5253 7.10961 29.0899C6.89337 29.3443 6.51178 30.0566 6.51178 30.0566C5.64684 31.8755 6.06659 34.0379 7.5548 35.4116C10.6075 38.1718 17.0437 43.9211 18.9008 46.5159C20.4272 48.6402 21.254 54.8601 21.254 54.8601C21.3557 55.5597 22.0045 56.0431 22.6913 55.9413C23.3909 55.8395 23.8743 55.1908 23.7725 54.504C23.7725 54.504 23.5054 52.6978 23.0093 50.6117C26.7871 49.4542 30.285 47.9278 32.8035 45.2058C35.3348 47.8261 38.7691 49.5687 42.9412 50.6117V54.6948C42.9412 55.3943 43.5136 55.9667 44.2132 55.9667C44.9128 55.9667 45.4851 55.3943 45.4851 54.6948V47.6226C48.9068 44.4172 51.2218 39.253 51.4889 31.4812C52.1503 30.2219 55.0504 24.6125 56.5259 21.5216C57.3908 19.7154 56.8312 17.5658 55.1776 16.3955C54.2363 15.7341 53.0534 15.4797 51.9213 15.7087C50.7893 15.9376 49.7971 16.6245 49.1866 17.6039C48.6142 18.5197 47.9273 19.6136 47.215 20.7203L48.7796 13.788C49.0594 12.5669 48.8177 11.2949 48.1309 10.2519C47.444 9.20888 46.3628 8.48385 45.129 8.24217C42.7631 7.77154 40.4354 9.18344 39.774 11.473C39.2525 13.2665 38.5529 15.6578 37.8533 17.9982V10.1629C37.8533 7.35179 35.6782 5.07495 32.829 5.07495C29.9797 5.07495 27.6775 7.36451 27.6775 10.1629L27.6902 10.1756ZM32.7781 48.3349C30.6666 48.3349 28.9622 50.0393 28.9622 52.1508C28.9622 54.2623 30.6666 55.9667 32.7781 55.9667C34.8896 55.9667 36.594 54.2623 36.594 52.1508C36.594 50.0393 34.8896 48.3349 32.7781 48.3349ZM39.138 50.8788C39.8376 50.8788 40.41 51.4512 40.41 52.1508C40.41 52.8504 39.8376 53.4228 39.138 53.4228C38.4384 53.4228 37.866 52.8504 37.866 52.1508C37.866 51.4512 38.4384 50.8788 39.138 50.8788ZM26.4182 50.8788C27.1178 50.8788 27.6902 51.4512 27.6902 52.1508C27.6902 52.8504 27.1178 53.4228 26.4182 53.4228C25.7186 53.4228 25.1462 52.8504 25.1462 52.1508C25.1462 51.4512 25.7186 50.8788 26.4182 50.8788ZM32.7781 50.8788C33.4777 50.8788 34.0501 51.4512 34.0501 52.1508C34.0501 52.8504 33.4777 53.4228 32.7781 53.4228C32.0785 53.4228 31.5061 52.8504 31.5061 52.1508C31.5061 51.4512 32.0785 50.8788 32.7781 50.8788ZM34.0501 32.1045V34.3431C34.0501 35.0427 33.4777 35.6151 32.7781 35.6151C32.0785 35.6151 31.5061 35.0427 31.5061 34.3431V32.2698C30.7048 32.715 29.8398 33.3892 28.9622 34.2032V38.1591C28.9622 38.8587 28.3898 39.431 27.6902 39.431C26.9906 39.431 26.4182 38.8587 26.4182 38.1591V36.7981C25.9857 37.2814 25.566 37.7648 25.1462 38.2608V41.3517C25.1462 42.0513 24.5738 42.6237 23.8743 42.6237C23.1747 42.6237 22.6532 42.1022 22.6023 41.4408C21.6865 42.6491 20.9233 43.6922 20.4399 44.379C20.6434 44.6207 20.8215 44.8624 20.9742 45.0659C21.4957 45.7909 21.9536 46.9357 22.3479 48.1822C26.0875 47.0375 29.5346 45.562 31.7478 42.5219C31.9768 42.204 32.3583 42.0004 32.7527 42.0004C33.147 42.0004 33.5286 42.1658 33.7702 42.4838C35.9326 45.2058 39.0744 46.9484 42.9539 48.0169V47.0883C42.9539 46.7195 43.1193 46.3633 43.3991 46.1216C44.1877 45.4348 44.9 44.6461 45.536 43.7303C45.1417 43.1961 44.2004 41.9368 42.9539 40.4232V41.3517C42.9539 42.0513 42.3815 42.6237 41.6819 42.6237C40.9823 42.6237 40.41 42.0513 40.41 41.3517V37.4849C39.9902 37.027 39.5704 36.5818 39.138 36.1493V38.1718C39.138 38.8714 38.5656 39.4438 37.866 39.4438C37.1664 39.4438 36.594 38.8714 36.594 38.1718V33.7962C35.8817 33.2238 35.1949 32.7277 34.5334 32.3589C34.3681 32.2698 34.2027 32.1808 34.0501 32.1172V32.1045ZM41.6819 43.247C42.3815 43.247 42.9539 43.8194 42.9539 44.5189C42.9539 45.2185 42.3815 45.7909 41.6819 45.7909C40.9823 45.7909 40.41 45.2185 40.41 44.5189C40.41 43.8194 40.9823 43.247 41.6819 43.247ZM23.8743 43.247C23.1747 43.247 22.6023 43.8194 22.6023 44.5189C22.6023 45.2185 23.1747 45.7909 23.8743 45.7909C24.5738 45.7909 25.1462 45.2185 25.1462 44.5189C25.1462 43.8194 24.5738 43.247 23.8743 43.247ZM27.6902 40.703C26.9906 40.703 26.4182 41.2754 26.4182 41.975C26.4182 42.6746 26.9906 43.247 27.6902 43.247C28.3898 43.247 28.9622 42.6746 28.9622 41.975C28.9622 41.2754 28.3898 40.703 27.6902 40.703ZM37.866 40.703C38.5656 40.703 39.138 41.2754 39.138 41.975C39.138 42.6746 38.5656 43.247 37.866 43.247C37.1664 43.247 36.594 42.6746 36.594 41.975C36.594 41.2754 37.1664 40.703 37.866 40.703ZM35.3221 12.7195H30.2341V26.7113C30.2341 27.3218 29.8017 27.8433 29.2038 27.9578C28.606 28.0723 28.0082 27.7543 27.7792 27.1819C27.7792 27.1819 25.2226 20.8729 23.34 16.2047L18.6464 18.0746L23.7216 32.6387C23.887 33.1093 23.7598 33.6308 23.4036 33.9743C23.0475 34.3177 22.5132 34.4195 22.0426 34.2287C22.0426 34.2287 18.214 32.6768 14.716 31.2777L11.8541 35.8568C14.08 37.892 16.7385 40.3596 18.6973 42.4075C20.2873 40.1815 23.6199 35.7423 26.8252 32.6896C28.9622 30.6671 31.1118 29.2934 32.7272 29.2298C34.3553 29.1535 36.5304 30.3364 38.6928 32.1935C41.9618 34.9918 45.3452 39.2402 46.9098 41.2881C48.1309 38.6424 48.8559 35.2844 48.9704 31.1123C48.9704 30.9215 49.0212 30.7307 49.1103 30.5654C49.1103 30.5654 51.2854 26.3806 53.0152 22.9208L49.9625 21.1782C47.9146 24.3836 45.4979 28.0341 45.4979 28.0341C45.1544 28.5429 44.5057 28.7464 43.9333 28.5048C43.3609 28.2631 43.0557 27.6525 43.1956 27.0547L45.8031 15.467L41.6311 14.2205C40.0792 19.4992 37.8024 27.0674 37.8024 27.0674C37.6243 27.678 37.0265 28.0469 36.4032 27.9578C35.78 27.8688 35.3221 27.3345 35.3221 26.6986V12.7068V12.7195ZM32.7781 36.8871C33.4777 36.8871 34.0501 37.4595 34.0501 38.1591C34.0501 38.8587 33.4777 39.431 32.7781 39.431C32.0785 39.431 31.5061 38.8587 31.5061 38.1591C31.5061 37.4595 32.0785 36.8871 32.7781 36.8871ZM18.2521 37.6884L19.3587 38.3244C19.9693 38.6806 20.7452 38.4643 21.1014 37.8538C21.4575 37.2432 21.2413 36.4673 20.6307 36.1112L19.5241 35.4752C18.9136 35.119 18.1376 35.3353 17.7815 35.9458C17.4253 36.5564 17.6416 37.3323 18.2521 37.6884ZM13.9401 34.3431C14.2963 33.7326 15.0722 33.5291 15.6827 33.8725C16.2933 34.2287 16.4968 35.0046 16.1534 35.6151C15.7972 36.2257 15.0213 36.4292 14.4108 36.0857C13.8002 35.7296 13.5967 34.9537 13.9401 34.3431ZM12.312 30.3491C12.0703 30.2474 11.8286 30.1583 11.5997 30.0693C10.8492 29.7767 10.0097 29.9167 9.41189 30.3873C9.19565 30.5654 8.8395 31.0742 8.82678 31.0996C8.40703 31.9264 8.5851 32.9185 9.27197 33.5418C9.47549 33.7326 9.70444 33.9234 9.9334 34.1396L12.312 30.3364V30.3491ZM46.9352 26.8894L46.2992 27.996C45.9431 28.6065 46.1593 29.3824 46.7698 29.7386C47.3804 30.0947 48.1563 29.8785 48.5124 29.2679L49.1484 28.1613C49.5046 27.5508 49.2884 26.7749 48.6778 26.4187C48.0673 26.0626 47.2914 26.2788 46.9352 26.8894ZM22.3097 23.9129L22.6404 25.1467C22.8185 25.8209 23.5181 26.2279 24.1923 26.0498C24.8664 25.8718 25.2734 25.1722 25.0954 24.498L24.7646 23.2642C24.5866 22.5901 23.887 22.183 23.2001 22.3611C22.526 22.5392 22.1189 23.2388 22.297 23.9129H22.3097ZM50.5731 23.1243C51.1836 23.4805 51.3871 24.2564 51.0437 24.8669C50.6875 25.4775 49.9116 25.681 49.3011 25.3375C48.6905 24.9814 48.487 24.2055 48.8304 23.5949C49.1866 22.9844 49.9625 22.7809 50.5731 23.1243ZM40.7661 20.7203L40.4354 21.9541C40.2573 22.6282 40.6516 23.3278 41.3385 23.5059C42.0126 23.684 42.7122 23.2897 42.8903 22.6028L43.221 21.369C43.3991 20.6948 43.0048 19.9952 42.3179 19.8172C41.6438 19.6391 40.9442 20.0334 40.7534 20.7203H40.7661ZM31.4934 19.0921V20.3641C31.4934 21.0637 32.0658 21.6361 32.7654 21.6361C33.465 21.6361 34.0374 21.0637 34.0374 20.3641V19.0921C34.0374 18.3925 33.465 17.8202 32.7654 17.8202C32.0658 17.8202 31.4934 18.3925 31.4934 19.0921ZM21.6229 18.4943C22.297 18.3162 22.9966 18.7105 23.1747 19.3974C23.3528 20.0716 22.9584 20.7711 22.2716 20.9492C21.5974 21.1273 20.8978 20.733 20.707 20.0461C20.529 19.372 20.9233 18.6724 21.6101 18.4816L21.6229 18.4943ZM54.1346 20.6567C54.1727 20.5803 54.1982 20.5167 54.2363 20.4404C54.5671 19.7536 54.3508 18.9395 53.7148 18.4943C53.346 18.2272 52.8753 18.1382 52.4174 18.2272C51.9722 18.3162 51.5779 18.5833 51.349 18.9649L51.3108 19.0413L54.1346 20.6567ZM43.3101 16.1284C43.9842 16.3065 44.3912 17.0061 44.2132 17.693C44.0351 18.3671 43.3355 18.7741 42.6486 18.5961C41.9745 18.418 41.5675 17.7184 41.7455 17.0443C41.9236 16.3701 42.6232 15.9631 43.2973 16.1411L43.3101 16.1284ZM32.7654 14.0042C33.465 14.0042 34.0374 14.5766 34.0374 15.2762C34.0374 15.9758 33.465 16.5482 32.7654 16.5482C32.0658 16.5482 31.4934 15.9758 31.4934 15.2762C31.4934 14.5766 32.0658 14.0042 32.7654 14.0042ZM22.3225 13.8898C21.7373 13.0502 20.6689 12.6432 19.6386 12.923C18.9772 13.1011 18.4175 13.5463 18.0868 14.1441C17.8324 14.6148 17.7433 15.1617 17.8324 15.6832L22.3225 13.8898ZM46.3374 12.9994C46.3755 12.5415 46.2611 12.0708 46.0067 11.6765C45.7014 11.2059 45.2053 10.8752 44.6456 10.7607C43.7298 10.5826 42.814 11.0151 42.3942 11.8037L46.3501 12.9866L46.3374 12.9994ZM35.3093 10.1883C35.3093 8.78912 34.2409 7.64434 32.829 7.64434C31.4171 7.64434 30.2214 8.7764 30.2214 10.1883H35.3093Z" fill="black" fill-opacity="0.2"/>
<path fill-rule="evenodd" clip-rule="evenodd" d="M27.6902 10.1756V20.1733C26.7489 17.8456 25.7186 15.3016 24.9427 13.3682C24.0015 11.0405 21.4448 9.78127 18.9899 10.43C17.6416 10.7988 16.5095 11.6892 15.8608 12.9103C15.1994 14.1314 15.0976 15.5688 15.5428 16.8789L20.4018 30.8325C18.1249 29.9167 14.8178 28.5811 12.541 27.6907C10.5821 26.9148 8.39431 27.5253 7.10961 29.0899C6.89337 29.3443 6.51178 30.0566 6.51178 30.0566C5.64684 31.8755 6.06659 34.0379 7.5548 35.4116C10.6075 38.1718 17.0437 43.9211 18.9008 46.5159C20.4272 48.6402 21.254 54.8601 21.254 54.8601C21.3557 55.5597 22.0045 56.0431 22.6913 55.9413C23.3909 55.8395 23.8743 55.1908 23.7725 54.504C23.7725 54.504 23.5054 52.6978 23.0093 50.6117C26.7871 49.4542 30.285 47.9278 32.8035 45.2058C35.3348 47.8261 38.7691 49.5687 42.9412 50.6117V54.6948C42.9412 55.3943 43.5136 55.9667 44.2132 55.9667C44.9128 55.9667 45.4851 55.3943 45.4851 54.6948V47.6226C48.9068 44.4172 51.2218 39.253 51.4889 31.4812C52.1503 30.2219 55.0504 24.6125 56.5259 21.5216C57.3908 19.7154 56.8312 17.5658 55.1776 16.3955C54.2363 15.7341 53.0534 15.4797 51.9213 15.7087C50.7893 15.9376 49.7971 16.6245 49.1866 17.6039C48.6142 18.5197 47.9273 19.6136 47.215 20.7203L48.7796 13.788C49.0594 12.5669 48.8177 11.2949 48.1309 10.2519C47.444 9.20888 46.3628 8.48385 45.129 8.24217C42.7631 7.77154 40.4354 9.18344 39.774 11.473C39.2525 13.2665 38.5529 15.6578 37.8533 17.9982V10.1629C37.8533 7.35179 35.6782 5.07495 32.829 5.07495C29.9797 5.07495 27.6775 7.36451 27.6775 10.1629L27.6902 10.1756ZM32.7781 48.3349C30.6666 48.3349 28.9622 50.0393 28.9622 52.1508C28.9622 54.2623 30.6666 55.9667 32.7781 55.9667C34.8896 55.9667 36.594 54.2623 36.594 52.1508C36.594 50.0393 34.8896 48.3349 32.7781 48.3349ZM39.138 50.8788C39.8376 50.8788 40.41 51.4512 40.41 52.1508C40.41 52.8504 39.8376 53.4228 39.138 53.4228C38.4384 53.4228 37.866 52.8504 37.866 52.1508C37.866 51.4512 38.4384 50.8788 39.138 50.8788ZM26.4182 50.8788C27.1178 50.8788 27.6902 51.4512 27.6902 52.1508C27.6902 52.8504 27.1178 53.4228 26.4182 53.4228C25.7186 53.4228 25.1462 52.8504 25.1462 52.1508C25.1462 51.4512 25.7186 50.8788 26.4182 50.8788ZM32.7781 50.8788C33.4777 50.8788 34.0501 51.4512 34.0501 52.1508C34.0501 52.8504 33.4777 53.4228 32.7781 53.4228C32.0785 53.4228 31.5061 52.8504 31.5061 52.1508C31.5061 51.4512 32.0785 50.8788 32.7781 50.8788ZM34.0501 32.1045V34.3431C34.0501 35.0427 33.4777 35.6151 32.7781 35.6151C32.0785 35.6151 31.5061 35.0427 31.5061 34.3431V32.2698C30.7048 32.715 29.8398 33.3892 28.9622 34.2032V38.1591C28.9622 38.8587 28.3898 39.431 27.6902 39.431C26.9906 39.431 26.4182 38.8587 26.4182 38.1591V36.7981C25.9857 37.2814 25.566 37.7648 25.1462 38.2608V41.3517C25.1462 42.0513 24.5738 42.6237 23.8743 42.6237C23.1747 42.6237 22.6532 42.1022 22.6023 41.4408C21.6865 42.6491 20.9233 43.6922 20.4399 44.379C20.6434 44.6207 20.8215 44.8624 20.9742 45.0659C21.4957 45.7909 21.9536 46.9357 22.3479 48.1822C26.0875 47.0375 29.5346 45.562 31.7478 42.5219C31.9768 42.204 32.3583 42.0004 32.7527 42.0004C33.147 42.0004 33.5286 42.1658 33.7702 42.4838C35.9326 45.2058 39.0744 46.9484 42.9539 48.0169V47.0883C42.9539 46.7195 43.1193 46.3633 43.3991 46.1216C44.1877 45.4348 44.9 44.6461 45.536 43.7303C45.1417 43.1961 44.2004 41.9368 42.9539 40.4232V41.3517C42.9539 42.0513 42.3815 42.6237 41.6819 42.6237C40.9823 42.6237 40.41 42.0513 40.41 41.3517V37.4849C39.9902 37.027 39.5704 36.5818 39.138 36.1493V38.1718C39.138 38.8714 38.5656 39.4438 37.866 39.4438C37.1664 39.4438 36.594 38.8714 36.594 38.1718V33.7962C35.8817 33.2238 35.1949 32.7277 34.5334 32.3589C34.3681 32.2698 34.2027 32.1808 34.0501 32.1172V32.1045ZM41.6819 43.247C42.3815 43.247 42.9539 43.8194 42.9539 44.5189C42.9539 45.2185 42.3815 45.7909 41.6819 45.7909C40.9823 45.7909 40.41 45.2185 40.41 44.5189C40.41 43.8194 40.9823 43.247 41.6819 43.247ZM23.8743 43.247C23.1747 43.247 22.6023 43.8194 22.6023 44.5189C22.6023 45.2185 23.1747 45.7909 23.8743 45.7909C24.5738 45.7909 25.1462 45.2185 25.1462 44.5189C25.1462 43.8194 24.5738 43.247 23.8743 43.247ZM27.6902 40.703C26.9906 40.703 26.4182 41.2754 26.4182 41.975C26.4182 42.6746 26.9906 43.247 27.6902 43.247C28.3898 43.247 28.9622 42.6746 28.9622 41.975C28.9622 41.2754 28.3898 40.703 27.6902 40.703ZM37.866 40.703C38.5656 40.703 39.138 41.2754 39.138 41.975C39.138 42.6746 38.5656 43.247 37.866 43.247C37.1664 43.247 36.594 42.6746 36.594 41.975C36.594 41.2754 37.1664 40.703 37.866 40.703ZM35.3221 12.7195H30.2341V26.7113C30.2341 27.3218 29.8017 27.8433 29.2038 27.9578C28.606 28.0723 28.0082 27.7543 27.7792 27.1819C27.7792 27.1819 25.2226 20.8729 23.34 16.2047L18.6464 18.0746L23.7216 32.6387C23.887 33.1093 23.7598 33.6308 23.4036 33.9743C23.0475 34.3177 22.5132 34.4195 22.0426 34.2287C22.0426 34.2287 18.214 32.6768 14.716 31.2777L11.8541 35.8568C14.08 37.892 16.7385 40.3596 18.6973 42.4075C20.2873 40.1815 23.6199 35.7423 26.8252 32.6896C28.9622 30.6671 31.1118 29.2934 32.7272 29.2298C34.3553 29.1535 36.5304 30.3364 38.6928 32.1935C41.9618 34.9918 45.3452 39.2402 46.9098 41.2881C48.1309 38.6424 48.8559 35.2844 48.9704 31.1123C48.9704 30.9215 49.0212 30.7307 49.1103 30.5654C49.1103 30.5654 51.2854 26.3806 53.0152 22.9208L49.9625 21.1782C47.9146 24.3836 45.4979 28.0341 45.4979 28.0341C45.1544 28.5429 44.5057 28.7464 43.9333 28.5048C43.3609 28.2631 43.0557 27.6525 43.1956 27.0547L45.8031 15.467L41.6311 14.2205C40.0792 19.4992 37.8024 27.0674 37.8024 27.0674C37.6243 27.678 37.0265 28.0469 36.4032 27.9578C35.78 27.8688 35.3221 27.3345 35.3221 26.6986V12.7068V12.7195ZM32.7781 36.8871C33.4777 36.8871 34.0501 37.4595 34.0501 38.1591C34.0501 38.8587 33.4777 39.431 32.7781 39.431C32.0785 39.431 31.5061 38.8587 31.5061 38.1591C31.5061 37.4595 32.0785 36.8871 32.7781 36.8871ZM18.2521 37.6884L19.3587 38.3244C19.9693 38.6806 20.7452 38.4643 21.1014 37.8538C21.4575 37.2432 21.2413 36.4673 20.6307 36.1112L19.5241 35.4752C18.9136 35.119 18.1376 35.3353 17.7815 35.9458C17.4253 36.5564 17.6416 37.3323 18.2521 37.6884ZM13.9401 34.3431C14.2963 33.7326 15.0722 33.5291 15.6827 33.8725C16.2933 34.2287 16.4968 35.0046 16.1534 35.6151C15.7972 36.2257 15.0213 36.4292 14.4108 36.0857C13.8002 35.7296 13.5967 34.9537 13.9401 34.3431ZM12.312 30.3491C12.0703 30.2474 11.8286 30.1583 11.5997 30.0693C10.8492 29.7767 10.0097 29.9167 9.41189 30.3873C9.19565 30.5654 8.8395 31.0742 8.82678 31.0996C8.40703 31.9264 8.5851 32.9185 9.27197 33.5418C9.47549 33.7326 9.70444 33.9234 9.9334 34.1396L12.312 30.3364V30.3491ZM46.9352 26.8894L46.2992 27.996C45.9431 28.6065 46.1593 29.3824 46.7698 29.7386C47.3804 30.0947 48.1563 29.8785 48.5124 29.2679L49.1484 28.1613C49.5046 27.5508 49.2884 26.7749 48.6778 26.4187C48.0673 26.0626 47.2914 26.2788 46.9352 26.8894ZM22.3097 23.9129L22.6404 25.1467C22.8185 25.8209 23.5181 26.2279 24.1923 26.0498C24.8664 25.8718 25.2734 25.1722 25.0954 24.498L24.7646 23.2642C24.5866 22.5901 23.887 22.183 23.2001 22.3611C22.526 22.5392 22.1189 23.2388 22.297 23.9129H22.3097ZM50.5731 23.1243C51.1836 23.4805 51.3871 24.2564 51.0437 24.8669C50.6875 25.4775 49.9116 25.681 49.3011 25.3375C48.6905 24.9814 48.487 24.2055 48.8304 23.5949C49.1866 22.9844 49.9625 22.7809 50.5731 23.1243ZM40.7661 20.7203L40.4354 21.9541C40.2573 22.6282 40.6516 23.3278 41.3385 23.5059C42.0126 23.684 42.7122 23.2897 42.8903 22.6028L43.221 21.369C43.3991 20.6948 43.0048 19.9952 42.3179 19.8172C41.6438 19.6391 40.9442 20.0334 40.7534 20.7203H40.7661ZM31.4934 19.0921V20.3641C31.4934 21.0637 32.0658 21.6361 32.7654 21.6361C33.465 21.6361 34.0374 21.0637 34.0374 20.3641V19.0921C34.0374 18.3925 33.465 17.8202 32.7654 17.8202C32.0658 17.8202 31.4934 18.3925 31.4934 19.0921ZM21.6229 18.4943C22.297 18.3162 22.9966 18.7105 23.1747 19.3974C23.3528 20.0716 22.9584 20.7711 22.2716 20.9492C21.5974 21.1273 20.8978 20.733 20.707 20.0461C20.529 19.372 20.9233 18.6724 21.6101 18.4816L21.6229 18.4943ZM54.1346 20.6567C54.1727 20.5803 54.1982 20.5167 54.2363 20.4404C54.5671 19.7536 54.3508 18.9395 53.7148 18.4943C53.346 18.2272 52.8753 18.1382 52.4174 18.2272C51.9722 18.3162 51.5779 18.5833 51.349 18.9649L51.3108 19.0413L54.1346 20.6567ZM43.3101 16.1284C43.9842 16.3065 44.3912 17.0061 44.2132 17.693C44.0351 18.3671 43.3355 18.7741 42.6486 18.5961C41.9745 18.418 41.5675 17.7184 41.7455 17.0443C41.9236 16.3701 42.6232 15.9631 43.2973 16.1411L43.3101 16.1284ZM32.7654 14.0042C33.465 14.0042 34.0374 14.5766 34.0374 15.2762C34.0374 15.9758 33.465 16.5482 32.7654 16.5482C32.0658 16.5482 31.4934 15.9758 31.4934 15.2762C31.4934 14.5766 32.0658 14.0042 32.7654 14.0042ZM22.3225 13.8898C21.7373 13.0502 20.6689 12.6432 19.6386 12.923C18.9772 13.1011 18.4175 13.5463 18.0868 14.1441C17.8324 14.6148 17.7433 15.1617 17.8324 15.6832L22.3225 13.8898ZM46.3374 12.9994C46.3755 12.5415 46.2611 12.0708 46.0067 11.6765C45.7014 11.2059 45.2053 10.8752 44.6456 10.7607C43.7298 10.5826 42.814 11.0151 42.3942 11.8037L46.3501 12.9866L46.3374 12.9994ZM35.3093 10.1883C35.3093 8.78912 34.2409 7.64434 32.829 7.64434C31.4171 7.64434 30.2214 8.7764 30.2214 10.1883H35.3093Z" fill="black" fill-opacity="0.2"/>
</svg>
