<svg width="38" height="39" viewBox="0 0 38 39" fill="none" xmlns="http://www.w3.org/2000/svg">
<path d="M19.0008 15.2475C18.2242 15.2475 17.465 15.4778 16.8193 15.9092C16.1735 16.3407 15.6702 16.954 15.373 17.6715C15.0758 18.389 14.9981 19.1785 15.1496 19.9402C15.3011 20.7019 15.6751 21.4016 16.2242 21.9507C16.7734 22.4999 17.4731 22.8739 18.2348 23.0254C18.9965 23.1769 19.786 23.0991 20.5035 22.8019C21.221 22.5047 21.8342 22.0014 22.2657 21.3557C22.6972 20.71 22.9275 19.9508 22.9275 19.1742C22.9275 18.6585 22.8259 18.1479 22.6286 17.6715C22.4312 17.1951 22.142 16.7622 21.7774 16.3976C21.4128 16.033 20.9799 15.7437 20.5035 15.5464C20.0271 15.3491 19.5165 15.2475 19.0008 15.2475ZM34.7233 11.3683C34.715 10.1456 34.4898 8.93406 34.0583 7.78999C33.7405 6.95282 33.2488 6.19255 32.6156 5.55936C31.9824 4.92618 31.2222 4.43446 30.385 4.11665C29.2409 3.68514 28.0294 3.45998 26.8066 3.45165C24.7641 3.34082 24.1625 3.34082 19.0008 3.34082C13.8391 3.34082 13.2375 3.34082 11.195 3.45165C9.97226 3.45998 8.76072 3.68514 7.61665 4.11665C6.77948 4.43446 6.01921 4.92618 5.38602 5.55936C4.75284 6.19255 4.26112 6.95282 3.94331 7.78999C3.5118 8.93406 3.28664 10.1456 3.27831 11.3683C3.16748 13.4108 3.16748 14.0125 3.16748 19.1742C3.16748 24.3358 3.16748 24.9375 3.27831 26.98C3.29536 28.207 3.52021 29.4223 3.94331 30.5742C4.25971 31.4075 4.75102 32.1634 5.38415 32.7908C6.01462 33.4278 6.77651 33.9195 7.61665 34.2317C8.76072 34.6632 9.97226 34.8883 11.195 34.8967C13.2375 35.0075 13.8391 35.0075 19.0008 35.0075C24.1625 35.0075 24.7641 35.0075 26.8066 34.8967C28.0294 34.8883 29.2409 34.6632 30.385 34.2317C31.2251 33.9195 31.987 33.4278 32.6175 32.7908C33.2506 32.1634 33.7419 31.4075 34.0583 30.5742C34.4894 29.4245 34.7145 28.2078 34.7233 26.98C34.8341 24.9375 34.8341 24.3358 34.8341 19.1742C34.8341 14.0125 34.8341 13.4108 34.7233 11.3683ZM30.7016 24.035C30.6508 25.0121 30.4423 25.9745 30.0841 26.885C29.7768 27.6445 29.3198 28.3344 28.7405 28.9138C28.1611 29.4932 27.4711 29.9501 26.7116 30.2575C25.7925 30.5957 24.8247 30.7828 23.8458 30.8117C22.595 30.8117 22.2625 30.8117 19.0008 30.8117C15.7391 30.8117 15.4066 30.8117 14.1558 30.8117C13.1769 30.7828 12.2091 30.5957 11.29 30.2575C10.5048 29.9657 9.79575 29.5002 9.21581 28.8958C8.64212 28.3278 8.19907 27.6416 7.91748 26.885C7.57795 25.9668 7.39594 24.9979 7.37915 24.0192C7.37915 22.7683 7.37915 22.4358 7.37915 19.1742C7.37915 15.9125 7.37915 15.58 7.37915 14.3292C7.39594 13.3504 7.57795 12.3815 7.91748 11.4633C8.20926 10.6782 8.67475 9.96909 9.27915 9.38915C9.84967 8.81856 10.5351 8.37597 11.29 8.09082C12.2091 7.75263 13.1769 7.56549 14.1558 7.53665C15.4066 7.53665 15.7391 7.53665 19.0008 7.53665C22.2625 7.53665 22.595 7.53665 23.8458 7.53665C24.8247 7.56549 25.7925 7.75263 26.7116 8.09082C27.4968 8.3826 28.2059 8.84809 28.7858 9.45249C29.3595 10.0205 29.8026 10.7067 30.0841 11.4633C30.4223 12.3824 30.6095 13.3502 30.6383 14.3292C30.6383 15.58 30.6383 15.9125 30.6383 19.1742C30.6383 22.4358 30.7491 22.7683 30.7016 24.0192V24.035ZM28.1683 12.255C27.9798 11.7435 27.6826 11.2791 27.2971 10.8937C26.9117 10.5082 26.4473 10.211 25.9358 10.0225C25.2336 9.77907 24.4939 9.66116 23.7508 9.67415C22.5158 9.67415 22.1675 9.67415 19.0008 9.67415C15.8341 9.67415 15.4858 9.67415 14.2508 9.67415C13.5039 9.68145 12.7642 9.82082 12.0658 10.0858C11.5622 10.2658 11.1027 10.5509 10.7177 10.9221C10.3328 11.2934 10.0313 11.7424 9.83331 12.2392C9.60338 12.9443 9.49104 13.6825 9.50081 14.4242C9.50081 15.6592 9.50081 16.0075 9.50081 19.1742C9.50081 22.3408 9.50081 22.6892 9.50081 23.9242C9.51651 24.6702 9.65561 25.4085 9.91248 26.1092C10.101 26.6206 10.3982 27.0851 10.7837 27.4705C11.1691 27.8559 11.6335 28.1531 12.145 28.3417C12.8205 28.5901 13.5314 28.7291 14.2508 28.7533C15.4858 28.7533 15.8341 28.7533 19.0008 28.7533C22.1675 28.7533 22.5158 28.7533 23.7508 28.7533C24.4977 28.746 25.2375 28.6067 25.9358 28.3417C26.4473 28.1531 26.9117 27.8559 27.2971 27.4705C27.6826 27.0851 27.9798 26.6206 28.1683 26.1092C28.4333 25.4108 28.5727 24.6711 28.58 23.9242C28.58 22.6892 28.58 22.3408 28.58 19.1742C28.58 16.0075 28.58 15.6592 28.58 14.4242C28.5804 13.6765 28.4408 12.9354 28.1683 12.2392V12.255ZM19.0008 25.2225C18.2073 25.2225 17.4215 25.0659 16.6886 24.7618C15.9557 24.4576 15.29 24.0119 14.7296 23.45C14.1692 22.8882 13.7252 22.2213 13.423 21.4876C13.1207 20.7538 12.9662 19.9677 12.9683 19.1742C12.9683 17.9772 13.3234 16.8072 13.9888 15.8122C14.6541 14.8173 15.5996 14.042 16.7057 13.5847C17.8118 13.1274 19.0288 13.0086 20.2025 13.2432C21.3761 13.4779 22.4538 14.0555 23.2991 14.903C24.1443 15.7504 24.7191 16.8296 24.9507 18.0039C25.1823 19.1782 25.0602 20.3948 24.6 21.4997C24.1398 22.6047 23.3621 23.5482 22.3654 24.2109C21.3687 24.8736 20.1977 25.2256 19.0008 25.2225ZM25.3341 14.3133C24.9841 14.2763 24.6602 14.111 24.4248 13.8494C24.1894 13.5877 24.0591 13.2482 24.0591 12.8962C24.0591 12.5443 24.1894 12.2048 24.4248 11.9431C24.6602 11.6815 24.9841 11.5162 25.3341 11.4792C25.6842 11.5162 26.0081 11.6815 26.2435 11.9431C26.4789 12.2048 26.6091 12.5443 26.6091 12.8962C26.6091 13.2482 26.4789 13.5877 26.2435 13.8494C26.0081 14.111 25.6842 14.2763 25.3341 14.3133Z" fill="black"/>
</svg>
