<svg width="38" height="39" viewBox="0 0 38 39" fill="none" xmlns="http://www.w3.org/2000/svg">
<path d="M32.4104 3.34104H5.58873C5.28723 3.33685 4.98786 3.3921 4.70771 3.50362C4.42756 3.61515 4.17213 3.78077 3.95599 3.99102C3.73986 4.20127 3.56726 4.45204 3.44805 4.72901C3.32884 5.00597 3.26536 5.30371 3.26123 5.60521V32.7435C3.26536 33.045 3.32884 33.3428 3.44805 33.6197C3.56726 33.8967 3.73986 34.1475 3.95599 34.3577C4.17213 34.568 4.42756 34.7336 4.70771 34.8451C4.98786 34.9566 5.28723 35.0119 5.58873 35.0077H32.4104C32.7119 35.0119 33.0113 34.9566 33.2914 34.8451C33.5716 34.7336 33.827 34.568 34.0431 34.3577C34.2593 34.1475 34.4319 33.8967 34.5511 33.6197C34.6703 33.3428 34.7338 33.045 34.7379 32.7435V5.60521C34.7338 5.30371 34.6703 5.00597 34.5511 4.72901C34.4319 4.45204 34.2593 4.20127 34.0431 3.99102C33.827 3.78077 33.5716 3.61515 33.2914 3.50362C33.0113 3.3921 32.7119 3.33685 32.4104 3.34104ZM12.8087 29.846H8.05873V15.596H12.8087V29.846ZM10.4337 13.601C9.77865 13.601 9.15039 13.3408 8.68718 12.8776C8.22396 12.4144 7.96373 11.7861 7.96373 11.131C7.96373 10.476 8.22396 9.8477 8.68718 9.38449C9.15039 8.92127 9.77865 8.66104 10.4337 8.66104C10.7816 8.62159 11.1338 8.65606 11.4674 8.76219C11.8011 8.86832 12.1085 9.04372 12.3696 9.2769C12.6307 9.51008 12.8396 9.79578 12.9827 10.1153C13.1257 10.4348 13.1997 10.781 13.1997 11.131C13.1997 11.4811 13.1257 11.8273 12.9827 12.1468C12.8396 12.4663 12.6307 12.752 12.3696 12.9852C12.1085 13.2184 11.8011 13.3938 11.4674 13.4999C11.1338 13.606 10.7816 13.6405 10.4337 13.601ZM29.9404 29.846H25.1904V22.1985C25.1904 20.2827 24.5096 19.0319 22.7837 19.0319C22.2496 19.0358 21.7295 19.2033 21.2936 19.5119C20.8576 19.8205 20.5267 20.2553 20.3454 20.7577C20.2215 21.1299 20.1678 21.5218 20.1871 21.9135V29.8302H15.4371C15.4371 29.8302 15.4371 16.8785 15.4371 15.5802H20.1871V17.591C20.6186 16.8423 21.2462 16.2254 22.0023 15.8069C22.7584 15.3884 23.6143 15.1841 24.4779 15.216C27.6446 15.216 29.9404 17.2585 29.9404 21.6444V29.846Z" fill="black"/>
</svg>
