<svg width="32" height="32" viewBox="0 0 32 32" fill="none" xmlns="http://www.w3.org/2000/svg">
<path d="M15 1.03079C13.347 1.03079 12 2.37779 12 4.03079V7.73379C10.167 9.29179 9 11.7538 9 14.5308V30.4698C9 30.6024 9.05268 30.7296 9.14645 30.8233C9.24021 30.9171 9.36739 30.9698 9.5 30.9698H23.5C23.6326 30.9698 23.7598 30.9171 23.8536 30.8233C23.9473 30.7296 24 30.6024 24 30.4698V14.5298C24 11.7528 22.832 9.28979 21 7.73279V6.06279C21.0004 6.05179 21.0004 6.04078 21 6.02979V4.02979C21 2.37679 19.653 1.02979 18 1.02979H15V1.03079ZM15 2.03079H18C19.035 2.03079 19.86 2.79079 19.977 3.79079C19.4336 3.30334 18.73 3.03282 18 3.03079H15C14.24 3.03079 13.553 3.32279 13.023 3.79079C13.141 2.79079 13.965 2.03079 15 2.03079ZM15 4.03079H18C19.117 4.03079 20 4.91479 20 6.03079V15.6148C19.5162 15.0579 18.9058 14.6255 18.22 14.3538C17.6452 14.1309 17.0324 14.0222 16.416 14.0338C15.7702 14.0448 15.1336 14.1888 14.5459 14.4567C13.9582 14.7245 13.432 15.1106 13 15.5908V6.06379C13.0004 6.05279 13.0004 6.04178 13 6.03079C13 4.91479 13.883 4.03079 15 4.03079ZM16.898 4.55479L16.492 4.82579L16.002 5.15378L14.998 4.75579L15.291 5.79479L14.601 6.62479L15.68 6.66578L16.256 7.57979L16.631 6.56579L17.676 6.30079L16.828 5.63278L16.898 4.55479ZM16.354 5.49779V5.49979L16.33 5.85379L16.61 6.07378L16.266 6.16179L16.143 6.49378L15.953 6.19378L15.6 6.17778L15.824 5.90579L15.729 5.56279L16.059 5.69479L16.354 5.49779ZM17.666 8.47779L17.57 8.95879L17.455 9.53679L16.463 9.96279L17.404 10.4928L17.504 11.5658L18.297 10.8338L19.35 11.0718L18.898 10.0898L19.449 9.16179L18.377 9.29079L17.666 8.47879V8.47779ZM21 9.12579C22.223 10.4818 23 12.3908 23 14.5318V29.9698H10V14.5298C10 12.3898 10.778 10.4818 12 9.12579V17.0298C12 18.6838 13.347 20.0298 15 20.0298H18C19.653 20.0298 21 18.6838 21 17.0298V9.12479V9.12579ZM17.947 9.53379L18.182 9.79979L18.535 9.75879L18.354 10.0638L18.502 10.3878L18.154 10.3078L17.894 10.5478L17.861 10.1938L17.553 10.0218L17.879 9.88179L17.947 9.53379ZM15.777 10.5558L15.371 10.8268L14.881 11.1548L13.877 10.7568L14.17 11.7958L13.48 12.6258L14.559 12.6668L15.135 13.5808L15.51 12.5668L16.555 12.3018L15.707 11.6338L15.777 10.5558ZM15.232 11.4988V11.5008L15.209 11.8548L15.489 12.0748L15.145 12.1628L15.021 12.4948L14.832 12.1948L14.479 12.1788L14.703 11.9068L14.607 11.5648L14.937 11.6958L15.232 11.4988ZM16.434 15.0298C16.907 15.0218 17.391 15.1038 17.859 15.2858C18.3221 15.4624 18.7433 15.7336 19.0957 16.0821C19.4482 16.4306 19.7241 16.8487 19.906 17.3098C19.9198 17.3482 19.9383 17.3848 19.961 17.4188C19.8748 17.8747 19.6312 18.2858 19.2728 18.5804C18.9144 18.875 18.4639 19.0344 18 19.0308H15C14.5292 19.034 14.0727 18.8693 13.7125 18.5661C13.3523 18.2629 13.1121 17.8412 13.035 17.3768C13.0722 17.3344 13.1019 17.2861 13.123 17.2338C13.681 15.8878 15.013 15.0538 16.433 15.0288L16.434 15.0298Z" fill="#454545"/>
<path d="M15 1.03079C13.347 1.03079 12 2.37779 12 4.03079V7.73379C10.167 9.29179 9 11.7538 9 14.5308V30.4698C9 30.6024 9.05268 30.7296 9.14645 30.8233C9.24021 30.9171 9.36739 30.9698 9.5 30.9698H23.5C23.6326 30.9698 23.7598 30.9171 23.8536 30.8233C23.9473 30.7296 24 30.6024 24 30.4698V14.5298C24 11.7528 22.832 9.28979 21 7.73279V6.06279C21.0004 6.05179 21.0004 6.04078 21 6.02979V4.02979C21 2.37679 19.653 1.02979 18 1.02979H15V1.03079ZM15 2.03079H18C19.035 2.03079 19.86 2.79079 19.977 3.79079C19.4336 3.30334 18.73 3.03282 18 3.03079H15C14.24 3.03079 13.553 3.32279 13.023 3.79079C13.141 2.79079 13.965 2.03079 15 2.03079ZM15 4.03079H18C19.117 4.03079 20 4.91479 20 6.03079V15.6148C19.5162 15.0579 18.9058 14.6255 18.22 14.3538C17.6452 14.1309 17.0324 14.0222 16.416 14.0338C15.7702 14.0448 15.1336 14.1888 14.5459 14.4567C13.9582 14.7245 13.432 15.1106 13 15.5908V6.06379C13.0004 6.05279 13.0004 6.04178 13 6.03079C13 4.91479 13.883 4.03079 15 4.03079ZM16.898 4.55479L16.492 4.82579L16.002 5.15378L14.998 4.75579L15.291 5.79479L14.601 6.62479L15.68 6.66578L16.256 7.57979L16.631 6.56579L17.676 6.30079L16.828 5.63278L16.898 4.55479ZM16.354 5.49779V5.49979L16.33 5.85379L16.61 6.07378L16.266 6.16179L16.143 6.49378L15.953 6.19378L15.6 6.17778L15.824 5.90579L15.729 5.56279L16.059 5.69479L16.354 5.49779ZM17.666 8.47779L17.57 8.95879L17.455 9.53679L16.463 9.96279L17.404 10.4928L17.504 11.5658L18.297 10.8338L19.35 11.0718L18.898 10.0898L19.449 9.16179L18.377 9.29079L17.666 8.47879V8.47779ZM21 9.12579C22.223 10.4818 23 12.3908 23 14.5318V29.9698H10V14.5298C10 12.3898 10.778 10.4818 12 9.12579V17.0298C12 18.6838 13.347 20.0298 15 20.0298H18C19.653 20.0298 21 18.6838 21 17.0298V9.12479V9.12579ZM17.947 9.53379L18.182 9.79979L18.535 9.75879L18.354 10.0638L18.502 10.3878L18.154 10.3078L17.894 10.5478L17.861 10.1938L17.553 10.0218L17.879 9.88179L17.947 9.53379ZM15.777 10.5558L15.371 10.8268L14.881 11.1548L13.877 10.7568L14.17 11.7958L13.48 12.6258L14.559 12.6668L15.135 13.5808L15.51 12.5668L16.555 12.3018L15.707 11.6338L15.777 10.5558ZM15.232 11.4988V11.5008L15.209 11.8548L15.489 12.0748L15.145 12.1628L15.021 12.4948L14.832 12.1948L14.479 12.1788L14.703 11.9068L14.607 11.5648L14.937 11.6958L15.232 11.4988ZM16.434 15.0298C16.907 15.0218 17.391 15.1038 17.859 15.2858C18.3221 15.4624 18.7433 15.7336 19.0957 16.0821C19.4482 16.4306 19.7241 16.8487 19.906 17.3098C19.9198 17.3482 19.9383 17.3848 19.961 17.4188C19.8748 17.8747 19.6312 18.2858 19.2728 18.5804C18.9144 18.875 18.4639 19.0344 18 19.0308H15C14.5292 19.034 14.0727 18.8693 13.7125 18.5661C13.3523 18.2629 13.1121 17.8412 13.035 17.3768C13.0722 17.3344 13.1019 17.2861 13.123 17.2338C13.681 15.8878 15.013 15.0538 16.433 15.0288L16.434 15.0298Z" fill="black" fill-opacity="0.2"/>
<path d="M15 1.03079C13.347 1.03079 12 2.37779 12 4.03079V7.73379C10.167 9.29179 9 11.7538 9 14.5308V30.4698C9 30.6024 9.05268 30.7296 9.14645 30.8233C9.24021 30.9171 9.36739 30.9698 9.5 30.9698H23.5C23.6326 30.9698 23.7598 30.9171 23.8536 30.8233C23.9473 30.7296 24 30.6024 24 30.4698V14.5298C24 11.7528 22.832 9.28979 21 7.73279V6.06279C21.0004 6.05179 21.0004 6.04078 21 6.02979V4.02979C21 2.37679 19.653 1.02979 18 1.02979H15V1.03079ZM15 2.03079H18C19.035 2.03079 19.86 2.79079 19.977 3.79079C19.4336 3.30334 18.73 3.03282 18 3.03079H15C14.24 3.03079 13.553 3.32279 13.023 3.79079C13.141 2.79079 13.965 2.03079 15 2.03079ZM15 4.03079H18C19.117 4.03079 20 4.91479 20 6.03079V15.6148C19.5162 15.0579 18.9058 14.6255 18.22 14.3538C17.6452 14.1309 17.0324 14.0222 16.416 14.0338C15.7702 14.0448 15.1336 14.1888 14.5459 14.4567C13.9582 14.7245 13.432 15.1106 13 15.5908V6.06379C13.0004 6.05279 13.0004 6.04178 13 6.03079C13 4.91479 13.883 4.03079 15 4.03079ZM16.898 4.55479L16.492 4.82579L16.002 5.15378L14.998 4.75579L15.291 5.79479L14.601 6.62479L15.68 6.66578L16.256 7.57979L16.631 6.56579L17.676 6.30079L16.828 5.63278L16.898 4.55479ZM16.354 5.49779V5.49979L16.33 5.85379L16.61 6.07378L16.266 6.16179L16.143 6.49378L15.953 6.19378L15.6 6.17778L15.824 5.90579L15.729 5.56279L16.059 5.69479L16.354 5.49779ZM17.666 8.47779L17.57 8.95879L17.455 9.53679L16.463 9.96279L17.404 10.4928L17.504 11.5658L18.297 10.8338L19.35 11.0718L18.898 10.0898L19.449 9.16179L18.377 9.29079L17.666 8.47879V8.47779ZM21 9.12579C22.223 10.4818 23 12.3908 23 14.5318V29.9698H10V14.5298C10 12.3898 10.778 10.4818 12 9.12579V17.0298C12 18.6838 13.347 20.0298 15 20.0298H18C19.653 20.0298 21 18.6838 21 17.0298V9.12479V9.12579ZM17.947 9.53379L18.182 9.79979L18.535 9.75879L18.354 10.0638L18.502 10.3878L18.154 10.3078L17.894 10.5478L17.861 10.1938L17.553 10.0218L17.879 9.88179L17.947 9.53379ZM15.777 10.5558L15.371 10.8268L14.881 11.1548L13.877 10.7568L14.17 11.7958L13.48 12.6258L14.559 12.6668L15.135 13.5808L15.51 12.5668L16.555 12.3018L15.707 11.6338L15.777 10.5558ZM15.232 11.4988V11.5008L15.209 11.8548L15.489 12.0748L15.145 12.1628L15.021 12.4948L14.832 12.1948L14.479 12.1788L14.703 11.9068L14.607 11.5648L14.937 11.6958L15.232 11.4988ZM16.434 15.0298C16.907 15.0218 17.391 15.1038 17.859 15.2858C18.3221 15.4624 18.7433 15.7336 19.0957 16.0821C19.4482 16.4306 19.7241 16.8487 19.906 17.3098C19.9198 17.3482 19.9383 17.3848 19.961 17.4188C19.8748 17.8747 19.6312 18.2858 19.2728 18.5804C18.9144 18.875 18.4639 19.0344 18 19.0308H15C14.5292 19.034 14.0727 18.8693 13.7125 18.5661C13.3523 18.2629 13.1121 17.8412 13.035 17.3768C13.0722 17.3344 13.1019 17.2861 13.123 17.2338C13.681 15.8878 15.013 15.0538 16.433 15.0288L16.434 15.0298Z" fill="black" fill-opacity="0.2"/>
<path d="M15 1.03079C13.347 1.03079 12 2.37779 12 4.03079V7.73379C10.167 9.29179 9 11.7538 9 14.5308V30.4698C9 30.6024 9.05268 30.7296 9.14645 30.8233C9.24021 30.9171 9.36739 30.9698 9.5 30.9698H23.5C23.6326 30.9698 23.7598 30.9171 23.8536 30.8233C23.9473 30.7296 24 30.6024 24 30.4698V14.5298C24 11.7528 22.832 9.28979 21 7.73279V6.06279C21.0004 6.05179 21.0004 6.04078 21 6.02979V4.02979C21 2.37679 19.653 1.02979 18 1.02979H15V1.03079ZM15 2.03079H18C19.035 2.03079 19.86 2.79079 19.977 3.79079C19.4336 3.30334 18.73 3.03282 18 3.03079H15C14.24 3.03079 13.553 3.32279 13.023 3.79079C13.141 2.79079 13.965 2.03079 15 2.03079ZM15 4.03079H18C19.117 4.03079 20 4.91479 20 6.03079V15.6148C19.5162 15.0579 18.9058 14.6255 18.22 14.3538C17.6452 14.1309 17.0324 14.0222 16.416 14.0338C15.7702 14.0448 15.1336 14.1888 14.5459 14.4567C13.9582 14.7245 13.432 15.1106 13 15.5908V6.06379C13.0004 6.05279 13.0004 6.04178 13 6.03079C13 4.91479 13.883 4.03079 15 4.03079ZM16.898 4.55479L16.492 4.82579L16.002 5.15378L14.998 4.75579L15.291 5.79479L14.601 6.62479L15.68 6.66578L16.256 7.57979L16.631 6.56579L17.676 6.30079L16.828 5.63278L16.898 4.55479ZM16.354 5.49779V5.49979L16.33 5.85379L16.61 6.07378L16.266 6.16179L16.143 6.49378L15.953 6.19378L15.6 6.17778L15.824 5.90579L15.729 5.56279L16.059 5.69479L16.354 5.49779ZM17.666 8.47779L17.57 8.95879L17.455 9.53679L16.463 9.96279L17.404 10.4928L17.504 11.5658L18.297 10.8338L19.35 11.0718L18.898 10.0898L19.449 9.16179L18.377 9.29079L17.666 8.47879V8.47779ZM21 9.12579C22.223 10.4818 23 12.3908 23 14.5318V29.9698H10V14.5298C10 12.3898 10.778 10.4818 12 9.12579V17.0298C12 18.6838 13.347 20.0298 15 20.0298H18C19.653 20.0298 21 18.6838 21 17.0298V9.12479V9.12579ZM17.947 9.53379L18.182 9.79979L18.535 9.75879L18.354 10.0638L18.502 10.3878L18.154 10.3078L17.894 10.5478L17.861 10.1938L17.553 10.0218L17.879 9.88179L17.947 9.53379ZM15.777 10.5558L15.371 10.8268L14.881 11.1548L13.877 10.7568L14.17 11.7958L13.48 12.6258L14.559 12.6668L15.135 13.5808L15.51 12.5668L16.555 12.3018L15.707 11.6338L15.777 10.5558ZM15.232 11.4988V11.5008L15.209 11.8548L15.489 12.0748L15.145 12.1628L15.021 12.4948L14.832 12.1948L14.479 12.1788L14.703 11.9068L14.607 11.5648L14.937 11.6958L15.232 11.4988ZM16.434 15.0298C16.907 15.0218 17.391 15.1038 17.859 15.2858C18.3221 15.4624 18.7433 15.7336 19.0957 16.0821C19.4482 16.4306 19.7241 16.8487 19.906 17.3098C19.9198 17.3482 19.9383 17.3848 19.961 17.4188C19.8748 17.8747 19.6312 18.2858 19.2728 18.5804C18.9144 18.875 18.4639 19.0344 18 19.0308H15C14.5292 19.034 14.0727 18.8693 13.7125 18.5661C13.3523 18.2629 13.1121 17.8412 13.035 17.3768C13.0722 17.3344 13.1019 17.2861 13.123 17.2338C13.681 15.8878 15.013 15.0538 16.433 15.0288L16.434 15.0298Z" fill="black" fill-opacity="0.2"/>
<path d="M15 1.03079C13.347 1.03079 12 2.37779 12 4.03079V7.73379C10.167 9.29179 9 11.7538 9 14.5308V30.4698C9 30.6024 9.05268 30.7296 9.14645 30.8233C9.24021 30.9171 9.36739 30.9698 9.5 30.9698H23.5C23.6326 30.9698 23.7598 30.9171 23.8536 30.8233C23.9473 30.7296 24 30.6024 24 30.4698V14.5298C24 11.7528 22.832 9.28979 21 7.73279V6.06279C21.0004 6.05179 21.0004 6.04078 21 6.02979V4.02979C21 2.37679 19.653 1.02979 18 1.02979H15V1.03079ZM15 2.03079H18C19.035 2.03079 19.86 2.79079 19.977 3.79079C19.4336 3.30334 18.73 3.03282 18 3.03079H15C14.24 3.03079 13.553 3.32279 13.023 3.79079C13.141 2.79079 13.965 2.03079 15 2.03079ZM15 4.03079H18C19.117 4.03079 20 4.91479 20 6.03079V15.6148C19.5162 15.0579 18.9058 14.6255 18.22 14.3538C17.6452 14.1309 17.0324 14.0222 16.416 14.0338C15.7702 14.0448 15.1336 14.1888 14.5459 14.4567C13.9582 14.7245 13.432 15.1106 13 15.5908V6.06379C13.0004 6.05279 13.0004 6.04178 13 6.03079C13 4.91479 13.883 4.03079 15 4.03079ZM16.898 4.55479L16.492 4.82579L16.002 5.15378L14.998 4.75579L15.291 5.79479L14.601 6.62479L15.68 6.66578L16.256 7.57979L16.631 6.56579L17.676 6.30079L16.828 5.63278L16.898 4.55479ZM16.354 5.49779V5.49979L16.33 5.85379L16.61 6.07378L16.266 6.16179L16.143 6.49378L15.953 6.19378L15.6 6.17778L15.824 5.90579L15.729 5.56279L16.059 5.69479L16.354 5.49779ZM17.666 8.47779L17.57 8.95879L17.455 9.53679L16.463 9.96279L17.404 10.4928L17.504 11.5658L18.297 10.8338L19.35 11.0718L18.898 10.0898L19.449 9.16179L18.377 9.29079L17.666 8.47879V8.47779ZM21 9.12579C22.223 10.4818 23 12.3908 23 14.5318V29.9698H10V14.5298C10 12.3898 10.778 10.4818 12 9.12579V17.0298C12 18.6838 13.347 20.0298 15 20.0298H18C19.653 20.0298 21 18.6838 21 17.0298V9.12479V9.12579ZM17.947 9.53379L18.182 9.79979L18.535 9.75879L18.354 10.0638L18.502 10.3878L18.154 10.3078L17.894 10.5478L17.861 10.1938L17.553 10.0218L17.879 9.88179L17.947 9.53379ZM15.777 10.5558L15.371 10.8268L14.881 11.1548L13.877 10.7568L14.17 11.7958L13.48 12.6258L14.559 12.6668L15.135 13.5808L15.51 12.5668L16.555 12.3018L15.707 11.6338L15.777 10.5558ZM15.232 11.4988V11.5008L15.209 11.8548L15.489 12.0748L15.145 12.1628L15.021 12.4948L14.832 12.1948L14.479 12.1788L14.703 11.9068L14.607 11.5648L14.937 11.6958L15.232 11.4988ZM16.434 15.0298C16.907 15.0218 17.391 15.1038 17.859 15.2858C18.3221 15.4624 18.7433 15.7336 19.0957 16.0821C19.4482 16.4306 19.7241 16.8487 19.906 17.3098C19.9198 17.3482 19.9383 17.3848 19.961 17.4188C19.8748 17.8747 19.6312 18.2858 19.2728 18.5804C18.9144 18.875 18.4639 19.0344 18 19.0308H15C14.5292 19.034 14.0727 18.8693 13.7125 18.5661C13.3523 18.2629 13.1121 17.8412 13.035 17.3768C13.0722 17.3344 13.1019 17.2861 13.123 17.2338C13.681 15.8878 15.013 15.0538 16.433 15.0288L16.434 15.0298Z" fill="black" fill-opacity="0.2"/>
<path d="M15 1.03079C13.347 1.03079 12 2.37779 12 4.03079V7.73379C10.167 9.29179 9 11.7538 9 14.5308V30.4698C9 30.6024 9.05268 30.7296 9.14645 30.8233C9.24021 30.9171 9.36739 30.9698 9.5 30.9698H23.5C23.6326 30.9698 23.7598 30.9171 23.8536 30.8233C23.9473 30.7296 24 30.6024 24 30.4698V14.5298C24 11.7528 22.832 9.28979 21 7.73279V6.06279C21.0004 6.05179 21.0004 6.04078 21 6.02979V4.02979C21 2.37679 19.653 1.02979 18 1.02979H15V1.03079ZM15 2.03079H18C19.035 2.03079 19.86 2.79079 19.977 3.79079C19.4336 3.30334 18.73 3.03282 18 3.03079H15C14.24 3.03079 13.553 3.32279 13.023 3.79079C13.141 2.79079 13.965 2.03079 15 2.03079ZM15 4.03079H18C19.117 4.03079 20 4.91479 20 6.03079V15.6148C19.5162 15.0579 18.9058 14.6255 18.22 14.3538C17.6452 14.1309 17.0324 14.0222 16.416 14.0338C15.7702 14.0448 15.1336 14.1888 14.5459 14.4567C13.9582 14.7245 13.432 15.1106 13 15.5908V6.06379C13.0004 6.05279 13.0004 6.04178 13 6.03079C13 4.91479 13.883 4.03079 15 4.03079ZM16.898 4.55479L16.492 4.82579L16.002 5.15378L14.998 4.75579L15.291 5.79479L14.601 6.62479L15.68 6.66578L16.256 7.57979L16.631 6.56579L17.676 6.30079L16.828 5.63278L16.898 4.55479ZM16.354 5.49779V5.49979L16.33 5.85379L16.61 6.07378L16.266 6.16179L16.143 6.49378L15.953 6.19378L15.6 6.17778L15.824 5.90579L15.729 5.56279L16.059 5.69479L16.354 5.49779ZM17.666 8.47779L17.57 8.95879L17.455 9.53679L16.463 9.96279L17.404 10.4928L17.504 11.5658L18.297 10.8338L19.35 11.0718L18.898 10.0898L19.449 9.16179L18.377 9.29079L17.666 8.47879V8.47779ZM21 9.12579C22.223 10.4818 23 12.3908 23 14.5318V29.9698H10V14.5298C10 12.3898 10.778 10.4818 12 9.12579V17.0298C12 18.6838 13.347 20.0298 15 20.0298H18C19.653 20.0298 21 18.6838 21 17.0298V9.12479V9.12579ZM17.947 9.53379L18.182 9.79979L18.535 9.75879L18.354 10.0638L18.502 10.3878L18.154 10.3078L17.894 10.5478L17.861 10.1938L17.553 10.0218L17.879 9.88179L17.947 9.53379ZM15.777 10.5558L15.371 10.8268L14.881 11.1548L13.877 10.7568L14.17 11.7958L13.48 12.6258L14.559 12.6668L15.135 13.5808L15.51 12.5668L16.555 12.3018L15.707 11.6338L15.777 10.5558ZM15.232 11.4988V11.5008L15.209 11.8548L15.489 12.0748L15.145 12.1628L15.021 12.4948L14.832 12.1948L14.479 12.1788L14.703 11.9068L14.607 11.5648L14.937 11.6958L15.232 11.4988ZM16.434 15.0298C16.907 15.0218 17.391 15.1038 17.859 15.2858C18.3221 15.4624 18.7433 15.7336 19.0957 16.0821C19.4482 16.4306 19.7241 16.8487 19.906 17.3098C19.9198 17.3482 19.9383 17.3848 19.961 17.4188C19.8748 17.8747 19.6312 18.2858 19.2728 18.5804C18.9144 18.875 18.4639 19.0344 18 19.0308H15C14.5292 19.034 14.0727 18.8693 13.7125 18.5661C13.3523 18.2629 13.1121 17.8412 13.035 17.3768C13.0722 17.3344 13.1019 17.2861 13.123 17.2338C13.681 15.8878 15.013 15.0538 16.433 15.0288L16.434 15.0298Z" fill="black" fill-opacity="0.2"/>
<path d="M15 1.03079C13.347 1.03079 12 2.37779 12 4.03079V7.73379C10.167 9.29179 9 11.7538 9 14.5308V30.4698C9 30.6024 9.05268 30.7296 9.14645 30.8233C9.24021 30.9171 9.36739 30.9698 9.5 30.9698H23.5C23.6326 30.9698 23.7598 30.9171 23.8536 30.8233C23.9473 30.7296 24 30.6024 24 30.4698V14.5298C24 11.7528 22.832 9.28979 21 7.73279V6.06279C21.0004 6.05179 21.0004 6.04078 21 6.02979V4.02979C21 2.37679 19.653 1.02979 18 1.02979H15V1.03079ZM15 2.03079H18C19.035 2.03079 19.86 2.79079 19.977 3.79079C19.4336 3.30334 18.73 3.03282 18 3.03079H15C14.24 3.03079 13.553 3.32279 13.023 3.79079C13.141 2.79079 13.965 2.03079 15 2.03079ZM15 4.03079H18C19.117 4.03079 20 4.91479 20 6.03079V15.6148C19.5162 15.0579 18.9058 14.6255 18.22 14.3538C17.6452 14.1309 17.0324 14.0222 16.416 14.0338C15.7702 14.0448 15.1336 14.1888 14.5459 14.4567C13.9582 14.7245 13.432 15.1106 13 15.5908V6.06379C13.0004 6.05279 13.0004 6.04178 13 6.03079C13 4.91479 13.883 4.03079 15 4.03079ZM16.898 4.55479L16.492 4.82579L16.002 5.15378L14.998 4.75579L15.291 5.79479L14.601 6.62479L15.68 6.66578L16.256 7.57979L16.631 6.56579L17.676 6.30079L16.828 5.63278L16.898 4.55479ZM16.354 5.49779V5.49979L16.33 5.85379L16.61 6.07378L16.266 6.16179L16.143 6.49378L15.953 6.19378L15.6 6.17778L15.824 5.90579L15.729 5.56279L16.059 5.69479L16.354 5.49779ZM17.666 8.47779L17.57 8.95879L17.455 9.53679L16.463 9.96279L17.404 10.4928L17.504 11.5658L18.297 10.8338L19.35 11.0718L18.898 10.0898L19.449 9.16179L18.377 9.29079L17.666 8.47879V8.47779ZM21 9.12579C22.223 10.4818 23 12.3908 23 14.5318V29.9698H10V14.5298C10 12.3898 10.778 10.4818 12 9.12579V17.0298C12 18.6838 13.347 20.0298 15 20.0298H18C19.653 20.0298 21 18.6838 21 17.0298V9.12479V9.12579ZM17.947 9.53379L18.182 9.79979L18.535 9.75879L18.354 10.0638L18.502 10.3878L18.154 10.3078L17.894 10.5478L17.861 10.1938L17.553 10.0218L17.879 9.88179L17.947 9.53379ZM15.777 10.5558L15.371 10.8268L14.881 11.1548L13.877 10.7568L14.17 11.7958L13.48 12.6258L14.559 12.6668L15.135 13.5808L15.51 12.5668L16.555 12.3018L15.707 11.6338L15.777 10.5558ZM15.232 11.4988V11.5008L15.209 11.8548L15.489 12.0748L15.145 12.1628L15.021 12.4948L14.832 12.1948L14.479 12.1788L14.703 11.9068L14.607 11.5648L14.937 11.6958L15.232 11.4988ZM16.434 15.0298C16.907 15.0218 17.391 15.1038 17.859 15.2858C18.3221 15.4624 18.7433 15.7336 19.0957 16.0821C19.4482 16.4306 19.7241 16.8487 19.906 17.3098C19.9198 17.3482 19.9383 17.3848 19.961 17.4188C19.8748 17.8747 19.6312 18.2858 19.2728 18.5804C18.9144 18.875 18.4639 19.0344 18 19.0308H15C14.5292 19.034 14.0727 18.8693 13.7125 18.5661C13.3523 18.2629 13.1121 17.8412 13.035 17.3768C13.0722 17.3344 13.1019 17.2861 13.123 17.2338C13.681 15.8878 15.013 15.0538 16.433 15.0288L16.434 15.0298Z" fill="black" fill-opacity="0.2"/>
<path d="M15 1.03079C13.347 1.03079 12 2.37779 12 4.03079V7.73379C10.167 9.29179 9 11.7538 9 14.5308V30.4698C9 30.6024 9.05268 30.7296 9.14645 30.8233C9.24021 30.9171 9.36739 30.9698 9.5 30.9698H23.5C23.6326 30.9698 23.7598 30.9171 23.8536 30.8233C23.9473 30.7296 24 30.6024 24 30.4698V14.5298C24 11.7528 22.832 9.28979 21 7.73279V6.06279C21.0004 6.05179 21.0004 6.04078 21 6.02979V4.02979C21 2.37679 19.653 1.02979 18 1.02979H15V1.03079ZM15 2.03079H18C19.035 2.03079 19.86 2.79079 19.977 3.79079C19.4336 3.30334 18.73 3.03282 18 3.03079H15C14.24 3.03079 13.553 3.32279 13.023 3.79079C13.141 2.79079 13.965 2.03079 15 2.03079ZM15 4.03079H18C19.117 4.03079 20 4.91479 20 6.03079V15.6148C19.5162 15.0579 18.9058 14.6255 18.22 14.3538C17.6452 14.1309 17.0324 14.0222 16.416 14.0338C15.7702 14.0448 15.1336 14.1888 14.5459 14.4567C13.9582 14.7245 13.432 15.1106 13 15.5908V6.06379C13.0004 6.05279 13.0004 6.04178 13 6.03079C13 4.91479 13.883 4.03079 15 4.03079ZM16.898 4.55479L16.492 4.82579L16.002 5.15378L14.998 4.75579L15.291 5.79479L14.601 6.62479L15.68 6.66578L16.256 7.57979L16.631 6.56579L17.676 6.30079L16.828 5.63278L16.898 4.55479ZM16.354 5.49779V5.49979L16.33 5.85379L16.61 6.07378L16.266 6.16179L16.143 6.49378L15.953 6.19378L15.6 6.17778L15.824 5.90579L15.729 5.56279L16.059 5.69479L16.354 5.49779ZM17.666 8.47779L17.57 8.95879L17.455 9.53679L16.463 9.96279L17.404 10.4928L17.504 11.5658L18.297 10.8338L19.35 11.0718L18.898 10.0898L19.449 9.16179L18.377 9.29079L17.666 8.47879V8.47779ZM21 9.12579C22.223 10.4818 23 12.3908 23 14.5318V29.9698H10V14.5298C10 12.3898 10.778 10.4818 12 9.12579V17.0298C12 18.6838 13.347 20.0298 15 20.0298H18C19.653 20.0298 21 18.6838 21 17.0298V9.12479V9.12579ZM17.947 9.53379L18.182 9.79979L18.535 9.75879L18.354 10.0638L18.502 10.3878L18.154 10.3078L17.894 10.5478L17.861 10.1938L17.553 10.0218L17.879 9.88179L17.947 9.53379ZM15.777 10.5558L15.371 10.8268L14.881 11.1548L13.877 10.7568L14.17 11.7958L13.48 12.6258L14.559 12.6668L15.135 13.5808L15.51 12.5668L16.555 12.3018L15.707 11.6338L15.777 10.5558ZM15.232 11.4988V11.5008L15.209 11.8548L15.489 12.0748L15.145 12.1628L15.021 12.4948L14.832 12.1948L14.479 12.1788L14.703 11.9068L14.607 11.5648L14.937 11.6958L15.232 11.4988ZM16.434 15.0298C16.907 15.0218 17.391 15.1038 17.859 15.2858C18.3221 15.4624 18.7433 15.7336 19.0957 16.0821C19.4482 16.4306 19.7241 16.8487 19.906 17.3098C19.9198 17.3482 19.9383 17.3848 19.961 17.4188C19.8748 17.8747 19.6312 18.2858 19.2728 18.5804C18.9144 18.875 18.4639 19.0344 18 19.0308H15C14.5292 19.034 14.0727 18.8693 13.7125 18.5661C13.3523 18.2629 13.1121 17.8412 13.035 17.3768C13.0722 17.3344 13.1019 17.2861 13.123 17.2338C13.681 15.8878 15.013 15.0538 16.433 15.0288L16.434 15.0298Z" fill="black" fill-opacity="0.2"/>
<path d="M15 1.03079C13.347 1.03079 12 2.37779 12 4.03079V7.73379C10.167 9.29179 9 11.7538 9 14.5308V30.4698C9 30.6024 9.05268 30.7296 9.14645 30.8233C9.24021 30.9171 9.36739 30.9698 9.5 30.9698H23.5C23.6326 30.9698 23.7598 30.9171 23.8536 30.8233C23.9473 30.7296 24 30.6024 24 30.4698V14.5298C24 11.7528 22.832 9.28979 21 7.73279V6.06279C21.0004 6.05179 21.0004 6.04078 21 6.02979V4.02979C21 2.37679 19.653 1.02979 18 1.02979H15V1.03079ZM15 2.03079H18C19.035 2.03079 19.86 2.79079 19.977 3.79079C19.4336 3.30334 18.73 3.03282 18 3.03079H15C14.24 3.03079 13.553 3.32279 13.023 3.79079C13.141 2.79079 13.965 2.03079 15 2.03079ZM15 4.03079H18C19.117 4.03079 20 4.91479 20 6.03079V15.6148C19.5162 15.0579 18.9058 14.6255 18.22 14.3538C17.6452 14.1309 17.0324 14.0222 16.416 14.0338C15.7702 14.0448 15.1336 14.1888 14.5459 14.4567C13.9582 14.7245 13.432 15.1106 13 15.5908V6.06379C13.0004 6.05279 13.0004 6.04178 13 6.03079C13 4.91479 13.883 4.03079 15 4.03079ZM16.898 4.55479L16.492 4.82579L16.002 5.15378L14.998 4.75579L15.291 5.79479L14.601 6.62479L15.68 6.66578L16.256 7.57979L16.631 6.56579L17.676 6.30079L16.828 5.63278L16.898 4.55479ZM16.354 5.49779V5.49979L16.33 5.85379L16.61 6.07378L16.266 6.16179L16.143 6.49378L15.953 6.19378L15.6 6.17778L15.824 5.90579L15.729 5.56279L16.059 5.69479L16.354 5.49779ZM17.666 8.47779L17.57 8.95879L17.455 9.53679L16.463 9.96279L17.404 10.4928L17.504 11.5658L18.297 10.8338L19.35 11.0718L18.898 10.0898L19.449 9.16179L18.377 9.29079L17.666 8.47879V8.47779ZM21 9.12579C22.223 10.4818 23 12.3908 23 14.5318V29.9698H10V14.5298C10 12.3898 10.778 10.4818 12 9.12579V17.0298C12 18.6838 13.347 20.0298 15 20.0298H18C19.653 20.0298 21 18.6838 21 17.0298V9.12479V9.12579ZM17.947 9.53379L18.182 9.79979L18.535 9.75879L18.354 10.0638L18.502 10.3878L18.154 10.3078L17.894 10.5478L17.861 10.1938L17.553 10.0218L17.879 9.88179L17.947 9.53379ZM15.777 10.5558L15.371 10.8268L14.881 11.1548L13.877 10.7568L14.17 11.7958L13.48 12.6258L14.559 12.6668L15.135 13.5808L15.51 12.5668L16.555 12.3018L15.707 11.6338L15.777 10.5558ZM15.232 11.4988V11.5008L15.209 11.8548L15.489 12.0748L15.145 12.1628L15.021 12.4948L14.832 12.1948L14.479 12.1788L14.703 11.9068L14.607 11.5648L14.937 11.6958L15.232 11.4988ZM16.434 15.0298C16.907 15.0218 17.391 15.1038 17.859 15.2858C18.3221 15.4624 18.7433 15.7336 19.0957 16.0821C19.4482 16.4306 19.7241 16.8487 19.906 17.3098C19.9198 17.3482 19.9383 17.3848 19.961 17.4188C19.8748 17.8747 19.6312 18.2858 19.2728 18.5804C18.9144 18.875 18.4639 19.0344 18 19.0308H15C14.5292 19.034 14.0727 18.8693 13.7125 18.5661C13.3523 18.2629 13.1121 17.8412 13.035 17.3768C13.0722 17.3344 13.1019 17.2861 13.123 17.2338C13.681 15.8878 15.013 15.0538 16.433 15.0288L16.434 15.0298Z" fill="black" fill-opacity="0.2"/>
<path d="M15 1.03079C13.347 1.03079 12 2.37779 12 4.03079V7.73379C10.167 9.29179 9 11.7538 9 14.5308V30.4698C9 30.6024 9.05268 30.7296 9.14645 30.8233C9.24021 30.9171 9.36739 30.9698 9.5 30.9698H23.5C23.6326 30.9698 23.7598 30.9171 23.8536 30.8233C23.9473 30.7296 24 30.6024 24 30.4698V14.5298C24 11.7528 22.832 9.28979 21 7.73279V6.06279C21.0004 6.05179 21.0004 6.04078 21 6.02979V4.02979C21 2.37679 19.653 1.02979 18 1.02979H15V1.03079ZM15 2.03079H18C19.035 2.03079 19.86 2.79079 19.977 3.79079C19.4336 3.30334 18.73 3.03282 18 3.03079H15C14.24 3.03079 13.553 3.32279 13.023 3.79079C13.141 2.79079 13.965 2.03079 15 2.03079ZM15 4.03079H18C19.117 4.03079 20 4.91479 20 6.03079V15.6148C19.5162 15.0579 18.9058 14.6255 18.22 14.3538C17.6452 14.1309 17.0324 14.0222 16.416 14.0338C15.7702 14.0448 15.1336 14.1888 14.5459 14.4567C13.9582 14.7245 13.432 15.1106 13 15.5908V6.06379C13.0004 6.05279 13.0004 6.04178 13 6.03079C13 4.91479 13.883 4.03079 15 4.03079ZM16.898 4.55479L16.492 4.82579L16.002 5.15378L14.998 4.75579L15.291 5.79479L14.601 6.62479L15.68 6.66578L16.256 7.57979L16.631 6.56579L17.676 6.30079L16.828 5.63278L16.898 4.55479ZM16.354 5.49779V5.49979L16.33 5.85379L16.61 6.07378L16.266 6.16179L16.143 6.49378L15.953 6.19378L15.6 6.17778L15.824 5.90579L15.729 5.56279L16.059 5.69479L16.354 5.49779ZM17.666 8.47779L17.57 8.95879L17.455 9.53679L16.463 9.96279L17.404 10.4928L17.504 11.5658L18.297 10.8338L19.35 11.0718L18.898 10.0898L19.449 9.16179L18.377 9.29079L17.666 8.47879V8.47779ZM21 9.12579C22.223 10.4818 23 12.3908 23 14.5318V29.9698H10V14.5298C10 12.3898 10.778 10.4818 12 9.12579V17.0298C12 18.6838 13.347 20.0298 15 20.0298H18C19.653 20.0298 21 18.6838 21 17.0298V9.12479V9.12579ZM17.947 9.53379L18.182 9.79979L18.535 9.75879L18.354 10.0638L18.502 10.3878L18.154 10.3078L17.894 10.5478L17.861 10.1938L17.553 10.0218L17.879 9.88179L17.947 9.53379ZM15.777 10.5558L15.371 10.8268L14.881 11.1548L13.877 10.7568L14.17 11.7958L13.48 12.6258L14.559 12.6668L15.135 13.5808L15.51 12.5668L16.555 12.3018L15.707 11.6338L15.777 10.5558ZM15.232 11.4988V11.5008L15.209 11.8548L15.489 12.0748L15.145 12.1628L15.021 12.4948L14.832 12.1948L14.479 12.1788L14.703 11.9068L14.607 11.5648L14.937 11.6958L15.232 11.4988ZM16.434 15.0298C16.907 15.0218 17.391 15.1038 17.859 15.2858C18.3221 15.4624 18.7433 15.7336 19.0957 16.0821C19.4482 16.4306 19.7241 16.8487 19.906 17.3098C19.9198 17.3482 19.9383 17.3848 19.961 17.4188C19.8748 17.8747 19.6312 18.2858 19.2728 18.5804C18.9144 18.875 18.4639 19.0344 18 19.0308H15C14.5292 19.034 14.0727 18.8693 13.7125 18.5661C13.3523 18.2629 13.1121 17.8412 13.035 17.3768C13.0722 17.3344 13.1019 17.2861 13.123 17.2338C13.681 15.8878 15.013 15.0538 16.433 15.0288L16.434 15.0298Z" fill="black" fill-opacity="0.2"/>
</svg>
