<svg width="19" height="26" viewBox="0 0 19 26" fill="none" xmlns="http://www.w3.org/2000/svg">
<path d="M8.16451 24.7846C5.63493 21.6179 0.00878906 13.943 0.00878906 9.63198C0.00878906 4.40158 4.17436 0.161621 9.313 0.161621C14.4497 0.161621 18.6172 4.40158 18.6172 9.63198C18.6172 13.943 12.9475 21.6179 10.4615 24.7846C9.86544 25.5392 8.76056 25.5392 8.16451 24.7846ZM9.313 12.7888C11.0236 12.7888 12.4144 11.3731 12.4144 9.63198C12.4144 7.89082 11.0236 6.47519 9.313 6.47519C7.60238 6.47519 6.2116 7.89082 6.2116 9.63198C6.2116 11.3731 7.60238 12.7888 9.313 12.7888Z" fill="#0E0F1D"/>
</svg>
