<svg width="27" height="26" viewBox="0 0 27 26" fill="none" xmlns="http://www.w3.org/2000/svg">
<path d="M1.67552 4.225L4.99326 0.910375C5.2273 0.675309 5.50547 0.4888 5.81181 0.361563C6.11814 0.234325 6.44659 0.168866 6.7783 0.168945C7.45431 0.168945 8.08982 0.433742 8.56645 0.910375L12.1365 4.48045C12.3716 4.71449 12.5581 4.99266 12.6853 5.299C12.8126 5.60533 12.878 5.93378 12.878 6.26549C12.878 6.9415 12.6132 7.57701 12.1365 8.05364L9.52595 10.6642C10.137 12.0111 10.9866 13.2364 12.0337 14.281C13.0782 15.3307 14.3034 16.1834 15.6505 16.7981L18.2611 14.1876C18.4951 13.9525 18.7733 13.766 19.0797 13.6388C19.386 13.5115 19.7144 13.4461 20.0461 13.4461C20.7222 13.4461 21.3577 13.7109 21.8343 14.1876L25.4075 17.7545C25.6428 17.989 25.8295 18.2677 25.9568 18.5746C26.084 18.8815 26.1493 19.2105 26.1489 19.5427C26.1489 20.2187 25.8841 20.8542 25.4075 21.3308L22.096 24.6423C21.3359 25.4056 20.286 25.8386 19.2081 25.8386C18.9807 25.8386 18.7627 25.8199 18.5477 25.7825C14.3484 25.0909 10.1833 22.8573 6.82191 19.4991C3.46367 16.1439 1.23315 11.982 0.532223 7.77016C0.320385 6.48356 0.747175 5.15958 1.67552 4.225Z" fill="#0E0F1D"/>
</svg>
