<svg width="38" height="39" viewBox="0 0 38 39" fill="none" xmlns="http://www.w3.org/2000/svg">
<path d="M34.8332 10.9659C34.8154 10.2828 34.7625 9.60106 34.6748 8.92339C34.5566 8.32983 34.3596 7.75474 34.089 7.21338C33.806 6.62613 33.4259 6.09084 32.9648 5.63005C32.4995 5.17438 31.9651 4.79499 31.3815 4.50589C30.8394 4.24059 30.2643 4.04889 29.6715 3.93589C29.0003 3.83534 28.3234 3.77717 27.6448 3.76172H10.3707C9.68758 3.77951 9.00585 3.83236 8.32817 3.92005C7.73462 4.03828 7.15953 4.2353 6.61817 4.50589C6.03092 4.78889 5.49563 5.16894 5.03484 5.63005C4.57916 6.09541 4.19977 6.62976 3.91067 7.21338C3.64537 7.75546 3.45368 8.33055 3.34067 8.92339C3.24013 9.59461 3.18196 10.2715 3.1665 10.9501C3.1665 11.2509 3.1665 11.6784 3.1665 11.8051V27.3851C3.1665 27.5592 3.1665 27.9392 3.1665 28.2242C3.18429 28.9073 3.23714 29.589 3.32484 30.2667C3.44306 30.8603 3.64008 31.4354 3.91067 31.9767C4.19367 32.564 4.57373 33.0993 5.03484 33.5601C5.5002 34.0157 6.03454 34.3951 6.61817 34.6842C7.16025 34.9495 7.73533 35.1412 8.32817 35.2542C8.9994 35.3548 9.67629 35.4129 10.3548 35.4284H27.629C28.3121 35.4106 28.9938 35.3577 29.6715 35.2701C30.2651 35.1518 30.8401 34.9548 31.3815 34.6842C31.9688 34.4012 32.504 34.0212 32.9648 33.5601C33.4205 33.0947 33.7999 32.5603 34.089 31.9767C34.3543 31.4346 34.546 30.8596 34.659 30.2667C34.7595 29.5955 34.8177 28.9186 34.8332 28.24C34.8332 27.9392 34.8332 27.5592 34.8332 27.3851V11.8051C34.8332 11.6784 34.8332 11.2509 34.8332 10.9659ZM19.364 30.6784C17.4625 30.669 15.5943 30.1788 13.9332 29.2534L7.9165 30.8367L9.49984 24.9467C8.47877 23.2311 7.93231 21.2748 7.9165 19.2784C7.92281 17.0347 8.59291 14.843 9.84241 12.9794C11.0919 11.1158 12.8649 9.66364 14.9382 8.80577C17.0114 7.9479 19.2921 7.7227 21.4931 8.15854C23.6941 8.59438 25.7168 9.67177 27.3067 11.255C28.8965 12.8382 29.9823 14.8565 30.4273 17.0557C30.8723 19.2548 30.6566 21.5365 29.8073 23.6132C28.9581 25.69 27.5133 27.4691 25.6549 28.7263C23.7965 29.9835 21.6077 30.6628 19.364 30.6784ZM19.364 9.88922C17.6854 9.90843 16.0418 10.3721 14.6006 11.2331C13.1595 12.094 11.9722 13.3215 11.1596 14.7905C10.3471 16.2595 9.93834 17.9175 9.97497 19.5959C10.0116 21.2742 10.4923 22.9129 11.3682 24.3451L11.5898 24.7092L10.6398 28.1767L14.2498 27.195L14.5982 27.4009C16.0383 28.2492 17.6768 28.7025 19.3482 28.7151C21.8677 28.7151 24.2841 27.7142 26.0657 25.9326C27.8473 24.151 28.8482 21.7346 28.8482 19.2151C28.8482 16.6955 27.8473 14.2791 26.0657 12.4975C24.2841 10.7159 21.8677 9.71505 19.3482 9.71505L19.364 9.88922ZM24.9057 23.3792C24.6983 23.7251 24.4206 24.0236 24.0906 24.2555C23.7606 24.4873 23.3856 24.6473 22.9898 24.725C22.3985 24.8331 21.7898 24.7951 21.2165 24.6142C20.6771 24.4456 20.1484 24.2447 19.6332 24.0126C17.6758 23.0304 16.0064 21.5574 14.7882 19.7376C14.1262 18.8944 13.7245 17.8764 13.6323 16.8084C13.6229 16.3647 13.7068 15.924 13.8787 15.5149C14.0505 15.1057 14.3064 14.7373 14.6298 14.4334C14.7251 14.3254 14.842 14.2386 14.9729 14.1786C15.1038 14.1186 15.2458 14.0867 15.3898 14.0851H15.8332C16.0073 14.0851 16.2448 14.0851 16.4665 14.5759C16.6882 15.0667 17.274 16.5392 17.3532 16.6817C17.3921 16.7577 17.4124 16.8418 17.4124 16.9271C17.4124 17.0125 17.3921 17.0966 17.3532 17.1726C17.2832 17.3446 17.187 17.5048 17.0682 17.6476C16.9257 17.8217 16.7673 18.0276 16.6407 18.1542C16.514 18.2809 16.3557 18.4392 16.514 18.7242C16.9448 19.4513 17.4781 20.1125 18.0973 20.6876C18.7717 21.2834 19.5428 21.76 20.3773 22.0967C20.6623 22.2392 20.8365 22.2234 20.9948 22.0967C21.1532 21.9701 21.7073 21.2734 21.8973 20.9884C22.0873 20.7034 22.2773 20.7509 22.5307 20.8459C22.784 20.9409 24.1932 21.6217 24.4782 21.7642C24.7632 21.9067 24.9373 21.9701 25.0165 22.0967C25.0852 22.5111 25.047 22.9362 24.9057 23.3317V23.3792Z" fill="black"/>
</svg>
