<svg width="47" height="48" viewBox="0 0 47 48" fill="none" xmlns="http://www.w3.org/2000/svg">
<path d="M45.044 19.1899C45.1408 16.3868 44.5278 13.6048 43.2619 11.102C42.403 10.075 41.2109 9.38198 39.8935 9.14363C34.4445 8.64921 28.973 8.44655 23.5023 8.53655C18.0516 8.44247 12.5997 8.63858 7.16979 9.12405C6.09627 9.31933 5.10281 9.82287 4.31062 10.5732C2.54812 12.1986 2.35229 14.9795 2.15646 17.3295C1.87233 21.5547 1.87233 25.7942 2.15646 30.0195C2.21311 31.3421 2.41005 32.655 2.74396 33.9361C2.98008 34.9252 3.45781 35.8403 4.13437 36.5995C4.93194 37.3896 5.94854 37.9217 7.05229 38.127C11.2743 38.6481 15.5284 38.8641 19.7815 38.7732C26.6356 38.8711 32.6477 38.7732 39.7565 38.2249C40.8873 38.0323 41.9325 37.4994 42.7527 36.6974C43.301 36.1489 43.7105 35.4775 43.9473 34.739C44.6476 32.59 44.9916 30.3408 44.9656 28.0807C45.044 26.984 45.044 20.3649 45.044 19.1899ZM19.0765 29.2557V17.1336L30.6698 23.2241C27.419 25.0257 23.1302 27.0624 19.0765 29.2557Z" fill="black"/>
</svg>
