<svg width="37" height="37" viewBox="0 0 37 37" fill="none" xmlns="http://www.w3.org/2000/svg">
<path d="M17.6396 35.2792C7.91632 35.2792 0 27.3629 0 17.6396C0 7.91632 7.91632 0 17.6396 0C27.3629 0 35.2792 7.91632 35.2792 17.6396C35.2792 27.3629 27.3629 35.2792 17.6396 35.2792ZM17.6396 2.58141C9.32749 2.58141 2.58141 9.34469 2.58141 17.6396C2.58141 25.9345 9.32749 32.6978 17.6396 32.6978C25.9517 32.6978 32.6978 25.9345 32.6978 17.6396C32.6978 9.34469 25.9517 2.58141 17.6396 2.58141Z" fill="#757575"/>
<path d="M35.7102 36.9999C35.3832 36.9999 35.0563 36.8795 34.7981 36.6213L31.3562 33.1795C30.8572 32.6804 30.8572 31.8543 31.3562 31.3553C31.8553 30.8562 32.6814 30.8562 33.1804 31.3553L36.6223 34.7971C37.1214 35.2962 37.1214 36.1223 36.6223 36.6213C36.3642 36.8795 36.0372 36.9999 35.7102 36.9999Z" fill="#757575"/>
</svg>
