<svg width="128" height="128" viewBox="0 0 128 128" fill="none" xmlns="http://www.w3.org/2000/svg">
<path d="M6.20832 0.125H0.125V6.20832H6.20832V0.125Z" fill="black"/>
<path d="M12.2916 0.125H6.20832V6.20832H12.2916V0.125Z" fill="black"/>
<path d="M18.375 0.125H12.2916V6.20832H18.375V0.125Z" fill="black"/>
<path d="M24.4583 0.125H18.375V6.20832H24.4583V0.125Z" fill="black"/>
<path d="M30.5416 0.125H24.4583V6.20832H30.5416V0.125Z" fill="black"/>
<path d="M36.6249 0.125H30.5416V6.20832H36.6249V0.125Z" fill="black"/>
<path d="M42.7083 0.125H36.6249V6.20832H42.7083V0.125Z" fill="black"/>
<path d="M54.8749 0.125H48.7916V6.20832H54.8749V0.125Z" fill="black"/>
<path d="M60.9582 0.125H54.8749V6.20832H60.9582V0.125Z" fill="black"/>
<path d="M73.1249 0.125H67.0416V6.20832H73.1249V0.125Z" fill="black"/>
<path d="M79.2082 0.125H73.1249V6.20832H79.2082V0.125Z" fill="black"/>
<path d="M91.3749 0.125H85.2915V6.20832H91.3749V0.125Z" fill="black"/>
<path d="M97.4582 0.125H91.3749V6.20832H97.4582V0.125Z" fill="black"/>
<path d="M103.542 0.125H97.4582V6.20832H103.542V0.125Z" fill="black"/>
<path d="M109.625 0.125H103.542V6.20832H109.625V0.125Z" fill="black"/>
<path d="M115.708 0.125H109.625V6.20832H115.708V0.125Z" fill="black"/>
<path d="M121.791 0.125H115.708V6.20832H121.791V0.125Z" fill="black"/>
<path d="M127.875 0.125H121.791V6.20832H127.875V0.125Z" fill="black"/>
<path d="M6.20832 6.20832H0.125V12.2916H6.20832V6.20832Z" fill="black"/>
<path d="M42.7083 6.20832H36.6249V12.2916H42.7083V6.20832Z" fill="black"/>
<path d="M73.1249 6.20832H67.0416V12.2916H73.1249V6.20832Z" fill="black"/>
<path d="M79.2082 6.20832H73.1249V12.2916H79.2082V6.20832Z" fill="black"/>
<path d="M91.3749 6.20832H85.2915V12.2916H91.3749V6.20832Z" fill="black"/>
<path d="M127.875 6.20832H121.791V12.2916H127.875V6.20832Z" fill="black"/>
<path d="M6.20832 12.2916H0.125V18.375H6.20832V12.2916Z" fill="black"/>
<path d="M18.375 12.2916H12.2916V18.375H18.375V12.2916Z" fill="black"/>
<path d="M24.4583 12.2916H18.375V18.375H24.4583V12.2916Z" fill="black"/>
<path d="M30.5416 12.2916H24.4583V18.375H30.5416V12.2916Z" fill="black"/>
<path d="M42.7083 12.2916H36.6249V18.375H42.7083V12.2916Z" fill="black"/>
<path d="M73.1249 12.2916H67.0416V18.375H73.1249V12.2916Z" fill="black"/>
<path d="M79.2082 12.2916H73.1249V18.375H79.2082V12.2916Z" fill="black"/>
<path d="M91.3749 12.2916H85.2915V18.375H91.3749V12.2916Z" fill="black"/>
<path d="M103.542 12.2916H97.4582V18.375H103.542V12.2916Z" fill="black"/>
<path d="M109.625 12.2916H103.542V18.375H109.625V12.2916Z" fill="black"/>
<path d="M115.708 12.2916H109.625V18.375H115.708V12.2916Z" fill="black"/>
<path d="M127.875 12.2916H121.791V18.375H127.875V12.2916Z" fill="black"/>
<path d="M6.20832 18.375H0.125V24.4583H6.20832V18.375Z" fill="black"/>
<path d="M18.375 18.375H12.2916V24.4583H18.375V18.375Z" fill="black"/>
<path d="M24.4583 18.375H18.375V24.4583H24.4583V18.375Z" fill="black"/>
<path d="M30.5416 18.375H24.4583V24.4583H30.5416V18.375Z" fill="black"/>
<path d="M42.7083 18.375H36.6249V24.4583H42.7083V18.375Z" fill="black"/>
<path d="M54.8749 18.375H48.7916V24.4583H54.8749V18.375Z" fill="black"/>
<path d="M60.9582 18.375H54.8749V24.4583H60.9582V18.375Z" fill="black"/>
<path d="M73.1249 18.375H67.0416V24.4583H73.1249V18.375Z" fill="black"/>
<path d="M79.2082 18.375H73.1249V24.4583H79.2082V18.375Z" fill="black"/>
<path d="M91.3749 18.375H85.2915V24.4583H91.3749V18.375Z" fill="black"/>
<path d="M103.542 18.375H97.4582V24.4583H103.542V18.375Z" fill="black"/>
<path d="M109.625 18.375H103.542V24.4583H109.625V18.375Z" fill="black"/>
<path d="M115.708 18.375H109.625V24.4583H115.708V18.375Z" fill="black"/>
<path d="M127.875 18.375H121.791V24.4583H127.875V18.375Z" fill="black"/>
<path d="M6.20832 24.4583H0.125V30.5416H6.20832V24.4583Z" fill="black"/>
<path d="M18.375 24.4583H12.2916V30.5416H18.375V24.4583Z" fill="black"/>
<path d="M24.4583 24.4583H18.375V30.5416H24.4583V24.4583Z" fill="black"/>
<path d="M30.5416 24.4583H24.4583V30.5416H30.5416V24.4583Z" fill="black"/>
<path d="M42.7083 24.4583H36.6249V30.5416H42.7083V24.4583Z" fill="black"/>
<path d="M60.9582 24.4583H54.8749L54.8749 30.5416H60.9582V24.4583Z" fill="black"/>
<path d="M67.0416 24.4583H60.9582V30.5416H67.0416L67.0416 24.4583Z" fill="black"/>
<path d="M91.3749 24.4583H85.2915V30.5416H91.3749V24.4583Z" fill="black"/>
<path d="M103.542 24.4583H97.4582V30.5416H103.542V24.4583Z" fill="black"/>
<path d="M109.625 24.4583H103.542V30.5416H109.625V24.4583Z" fill="black"/>
<path d="M115.708 24.4583H109.625V30.5416H115.708V24.4583Z" fill="black"/>
<path d="M127.875 24.4583H121.791V30.5416H127.875V24.4583Z" fill="black"/>
<path d="M6.20832 30.5416H0.125V36.6249H6.20832V30.5416Z" fill="black"/>
<path d="M42.7083 30.5416H36.6249V36.6249H42.7083V30.5416Z" fill="black"/>
<path d="M54.8749 30.5416H48.7916V36.6249H54.8749L54.8749 30.5416Z" fill="black"/>
<path d="M60.9582 30.5416H54.8749L54.8749 36.6249H60.9582V30.5416Z" fill="black"/>
<path d="M79.2082 30.5416H73.1249V36.6249H79.2082V30.5416Z" fill="black"/>
<path d="M91.3749 30.5416H85.2915V36.6249H91.3749V30.5416Z" fill="black"/>
<path d="M127.875 30.5416H121.791V36.6249H127.875V30.5416Z" fill="black"/>
<path d="M6.20832 36.6249H0.125V42.7083H6.20832V36.6249Z" fill="black"/>
<path d="M12.2916 36.6249H6.20832V42.7083H12.2916V36.6249Z" fill="black"/>
<path d="M18.375 36.6249H12.2916V42.7083H18.375V36.6249Z" fill="black"/>
<path d="M24.4583 36.6249H18.375V42.7083H24.4583V36.6249Z" fill="black"/>
<path d="M30.5416 36.6249H24.4583V42.7083H30.5416V36.6249Z" fill="black"/>
<path d="M36.6249 36.6249H30.5416V42.7083H36.6249V36.6249Z" fill="black"/>
<path d="M42.7083 36.6249H36.6249V42.7083H42.7083V36.6249Z" fill="black"/>
<path d="M54.8749 36.6249H48.7916V42.7083H54.8749V36.6249Z" fill="black"/>
<path d="M67.0416 36.6249H60.9582L60.9582 42.7083H67.0416V36.6249Z" fill="black"/>
<path d="M79.2082 36.6249H73.1249V42.7083H79.2082V36.6249Z" fill="black"/>
<path d="M91.3749 36.6249H85.2915V42.7083H91.3749V36.6249Z" fill="black"/>
<path d="M97.4582 36.6249H91.3749V42.7083H97.4582V36.6249Z" fill="black"/>
<path d="M103.542 36.6249H97.4582V42.7083H103.542V36.6249Z" fill="black"/>
<path d="M109.625 36.6249H103.542V42.7083H109.625V36.6249Z" fill="black"/>
<path d="M115.708 36.6249H109.625V42.7083H115.708V36.6249Z" fill="black"/>
<path d="M121.791 36.6249H115.708V42.7083H121.791V36.6249Z" fill="black"/>
<path d="M127.875 36.6249H121.791V42.7083H127.875V36.6249Z" fill="black"/>
<path d="M67.0416 42.7083H60.9582V48.7916H67.0416V42.7083Z" fill="black"/>
<path d="M73.1249 42.7083H67.0416V48.7916H73.1249V42.7083Z" fill="black"/>
<path d="M36.6249 48.7916H30.5416V54.8749H36.6249V48.7916Z" fill="black"/>
<path d="M42.7083 48.7916H36.6249V54.8749H42.7083V48.7916Z" fill="black"/>
<path d="M54.8749 48.7916H48.7916V54.8749H54.8749V48.7916Z" fill="black"/>
<path d="M60.9582 48.7916L54.8749 48.7916V54.8749H60.9582L60.9582 48.7916Z" fill="black"/>
<path d="M85.2915 48.7916H79.2082V54.8749H85.2915V48.7916Z" fill="black"/>
<path d="M97.4582 48.7916H91.3749V54.8749H97.4582V48.7916Z" fill="black"/>
<path d="M109.625 48.7916H103.542V54.8749H109.625V48.7916Z" fill="black"/>
<path d="M127.875 48.7916H121.791V54.8749H127.875V48.7916Z" fill="black"/>
<path d="M24.4583 54.8749H18.375V60.9582H24.4583V54.8749Z" fill="black"/>
<path d="M54.8749 54.8749H48.7916V60.9582H54.8749V54.8749Z" fill="black"/>
<path d="M60.9582 54.8749H54.8749V60.9582H60.9582V54.8749Z" fill="black"/>
<path d="M73.1249 54.8749H67.0416V60.9582H73.1249V54.8749Z" fill="black"/>
<path d="M79.2082 54.8749L73.1249 54.8749V60.9582H79.2082V54.8749Z" fill="black"/>
<path d="M97.4582 54.8749H91.3749V60.9582H97.4582V54.8749Z" fill="black"/>
<path d="M103.542 54.8749H97.4582V60.9582H103.542V54.8749Z" fill="black"/>
<path d="M109.625 54.8749H103.542V60.9582H109.625V54.8749Z" fill="black"/>
<path d="M115.708 54.8749L109.625 54.8749V60.9582H115.708V54.8749Z" fill="black"/>
<path d="M121.791 54.8749L115.708 54.8749V60.9582H121.791V54.8749Z" fill="black"/>
<path d="M18.375 60.9582L12.2916 60.9582V67.0416H18.375V60.9582Z" fill="black"/>
<path d="M24.4583 60.9582H18.375V67.0416H24.4583V60.9582Z" fill="black"/>
<path d="M42.7083 60.9582H36.6249V67.0416H42.7083V60.9582Z" fill="black"/>
<path d="M54.8749 60.9582H48.7916V67.0416H54.8749V60.9582Z" fill="black"/>
<path d="M73.1249 60.9582H67.0416V67.0416H73.1249V60.9582Z" fill="black"/>
<path d="M97.4582 60.9582H91.3749V67.0416H97.4582V60.9582Z" fill="black"/>
<path d="M115.708 60.9582H109.625V67.0416H115.708V60.9582Z" fill="black"/>
<path d="M121.791 60.9582H115.708V67.0416H121.791V60.9582Z" fill="black"/>
<path d="M127.875 60.9582L121.791 60.9582V67.0416H127.875V60.9582Z" fill="black"/>
<path d="M12.2916 67.0416L6.20832 67.0416V73.1249H12.2916V67.0416Z" fill="black"/>
<path d="M24.4583 67.0416H18.375V73.1249H24.4583V67.0416Z" fill="black"/>
<path d="M36.6249 67.0416L30.5416 67.0416V73.1249H36.6249V67.0416Z" fill="black"/>
<path d="M48.7916 67.0416H42.7083V73.1249H48.7916L48.7916 67.0416Z" fill="black"/>
<path d="M73.1249 67.0416H67.0416V73.1249H73.1249V67.0416Z" fill="black"/>
<path d="M85.2915 67.0416H79.2082V73.1249H85.2915V67.0416Z" fill="black"/>
<path d="M97.4582 67.0416H91.3749V73.1249H97.4582V67.0416Z" fill="black"/>
<path d="M103.542 67.0416L97.4582 67.0416V73.1249H103.542V67.0416Z" fill="black"/>
<path d="M109.625 67.0416L103.542 67.0416V73.1249H109.625V67.0416Z" fill="black"/>
<path d="M127.875 67.0416H121.791V73.1249H127.875V67.0416Z" fill="black"/>
<path d="M6.20832 73.1249H0.125V79.2082H6.20832V73.1249Z" fill="black"/>
<path d="M12.2916 73.1249H6.20832V79.2082H12.2916V73.1249Z" fill="black"/>
<path d="M24.4583 73.1249H18.375V79.2082H24.4583V73.1249Z" fill="black"/>
<path d="M30.5416 73.1249H24.4583V79.2082H30.5416V73.1249Z" fill="black"/>
<path d="M36.6249 73.1249H30.5416V79.2082H36.6249V73.1249Z" fill="black"/>
<path d="M42.7083 73.1249H36.6249V79.2082H42.7083V73.1249Z" fill="black"/>
<path d="M48.7916 73.1249H42.7083V79.2082H48.7916V73.1249Z" fill="black"/>
<path d="M67.0416 73.1249H60.9582V79.2082H67.0416L67.0416 73.1249Z" fill="black"/>
<path d="M79.2082 73.1249H73.1249V79.2082H79.2082V73.1249Z" fill="black"/>
<path d="M97.4582 73.1249H91.3749V79.2082H97.4582V73.1249Z" fill="black"/>
<path d="M115.708 73.1249H109.625V79.2082H115.708V73.1249Z" fill="black"/>
<path d="M127.875 73.1249H121.791V79.2082H127.875V73.1249Z" fill="black"/>
<path d="M54.8749 79.2082H48.7916L48.7916 85.2915H54.8749V79.2082Z" fill="black"/>
<path d="M79.2082 79.2082H73.1249V85.2915H79.2082V79.2082Z" fill="black"/>
<path d="M85.2915 79.2082H79.2082V85.2915H85.2915V79.2082Z" fill="black"/>
<path d="M91.3749 79.2082H85.2915V85.2915H91.3749V79.2082Z" fill="black"/>
<path d="M97.4582 79.2082H91.3749V85.2915H97.4582V79.2082Z" fill="black"/>
<path d="M103.542 79.2082H97.4582V85.2915H103.542V79.2082Z" fill="black"/>
<path d="M121.791 79.2082H115.708V85.2915H121.791V79.2082Z" fill="black"/>
<path d="M6.20832 85.2915H0.125V91.3749H6.20832V85.2915Z" fill="black"/>
<path d="M12.2916 85.2915H6.20832V91.3749H12.2916V85.2915Z" fill="black"/>
<path d="M18.375 85.2915H12.2916V91.3749H18.375V85.2915Z" fill="black"/>
<path d="M24.4583 85.2915H18.375V91.3749H24.4583V85.2915Z" fill="black"/>
<path d="M30.5416 85.2915H24.4583V91.3749H30.5416V85.2915Z" fill="black"/>
<path d="M36.6249 85.2915H30.5416V91.3749H36.6249V85.2915Z" fill="black"/>
<path d="M42.7083 85.2915H36.6249V91.3749H42.7083V85.2915Z" fill="black"/>
<path d="M73.1249 85.2915H67.0416V91.3749H73.1249V85.2915Z" fill="black"/>
<path d="M103.542 85.2915H97.4582V91.3749H103.542V85.2915Z" fill="black"/>
<path d="M121.791 85.2915H115.708V91.3749H121.791V85.2915Z" fill="black"/>
<path d="M6.20832 91.3749H0.125V97.4582H6.20832V91.3749Z" fill="black"/>
<path d="M42.7083 91.3749H36.6249V97.4582H42.7083V91.3749Z" fill="black"/>
<path d="M54.8749 91.3749H48.7916V97.4582H54.8749V91.3749Z" fill="black"/>
<path d="M67.0416 91.3749H60.9582V97.4582H67.0416L67.0416 91.3749Z" fill="black"/>
<path d="M79.2082 91.3749H73.1249V97.4582H79.2082V91.3749Z" fill="black"/>
<path d="M91.3749 91.3749H85.2915V97.4582H91.3749V91.3749Z" fill="black"/>
<path d="M97.4582 91.3749H91.3749V97.4582H97.4582V91.3749Z" fill="black"/>
<path d="M109.625 91.3749H103.542V97.4582H109.625V91.3749Z" fill="black"/>
<path d="M127.875 91.3749H121.791V97.4582H127.875V91.3749Z" fill="black"/>
<path d="M6.20832 97.4582H0.125V103.542H6.20832V97.4582Z" fill="black"/>
<path d="M18.375 97.4582H12.2916V103.542H18.375V97.4582Z" fill="black"/>
<path d="M24.4583 97.4582H18.375V103.542H24.4583V97.4582Z" fill="black"/>
<path d="M30.5416 97.4582H24.4583V103.542H30.5416V97.4582Z" fill="black"/>
<path d="M42.7083 97.4582H36.6249V103.542H42.7083V97.4582Z" fill="black"/>
<path d="M60.9582 97.4582H54.8749L54.8749 103.542H60.9582L60.9582 97.4582Z" fill="black"/>
<path d="M79.2082 97.4582H73.1249V103.542H79.2082V97.4582Z" fill="black"/>
<path d="M91.3749 97.4582H85.2915V103.542H91.3749V97.4582Z" fill="black"/>
<path d="M109.625 97.4582H103.542V103.542H109.625V97.4582Z" fill="black"/>
<path d="M115.708 97.4582H109.625V103.542H115.708V97.4582Z" fill="black"/>
<path d="M6.20832 103.542H0.125V109.625H6.20832V103.542Z" fill="black"/>
<path d="M18.375 103.542H12.2916V109.625H18.375V103.542Z" fill="black"/>
<path d="M24.4583 103.542H18.375V109.625H24.4583V103.542Z" fill="black"/>
<path d="M30.5416 103.542H24.4583V109.625H30.5416V103.542Z" fill="black"/>
<path d="M42.7083 103.542H36.6249V109.625H42.7083V103.542Z" fill="black"/>
<path d="M67.0416 103.542H60.9582L60.9582 109.625H67.0416V103.542Z" fill="black"/>
<path d="M73.1249 103.542H67.0416V109.625H73.1249V103.542Z" fill="black"/>
<path d="M91.3749 103.542H85.2915V109.625H91.3749V103.542Z" fill="black"/>
<path d="M109.625 103.542H103.542V109.625H109.625V103.542Z" fill="black"/>
<path d="M127.875 103.542H121.791V109.625H127.875V103.542Z" fill="black"/>
<path d="M6.20832 109.625H0.125V115.708H6.20832V109.625Z" fill="black"/>
<path d="M18.375 109.625H12.2916V115.708H18.375V109.625Z" fill="black"/>
<path d="M24.4583 109.625H18.375V115.708H24.4583V109.625Z" fill="black"/>
<path d="M30.5416 109.625H24.4583V115.708H30.5416V109.625Z" fill="black"/>
<path d="M42.7083 109.625H36.6249V115.708H42.7083V109.625Z" fill="black"/>
<path d="M67.0416 109.625H60.9582V115.708H67.0416V109.625Z" fill="black"/>
<path d="M85.2915 109.625H79.2082V115.708H85.2915V109.625Z" fill="black"/>
<path d="M91.3749 109.625H85.2915V115.708H91.3749V109.625Z" fill="black"/>
<path d="M109.625 109.625H103.542V115.708H109.625V109.625Z" fill="black"/>
<path d="M115.708 109.625H109.625V115.708H115.708V109.625Z" fill="black"/>
<path d="M6.20832 115.708H0.125V121.791H6.20832V115.708Z" fill="black"/>
<path d="M42.7083 115.708H36.6249V121.791H42.7083V115.708Z" fill="black"/>
<path d="M60.9582 115.708H54.8749V121.791H60.9582L60.9582 115.708Z" fill="black"/>
<path d="M73.1249 115.708H67.0416L67.0416 121.791H73.1249V115.708Z" fill="black"/>
<path d="M91.3749 115.708H85.2915V121.791H91.3749V115.708Z" fill="black"/>
<path d="M103.542 115.708H97.4582V121.791H103.542V115.708Z" fill="black"/>
<path d="M109.625 115.708H103.542V121.791H109.625V115.708Z" fill="black"/>
<path d="M127.875 115.708H121.791V121.791H127.875V115.708Z" fill="black"/>
<path d="M6.20832 121.791H0.125V127.875H6.20832V121.791Z" fill="black"/>
<path d="M12.2916 121.791H6.20832V127.875H12.2916V121.791Z" fill="black"/>
<path d="M18.375 121.791H12.2916V127.875H18.375V121.791Z" fill="black"/>
<path d="M24.4583 121.791H18.375V127.875H24.4583V121.791Z" fill="black"/>
<path d="M30.5416 121.791H24.4583V127.875H30.5416V121.791Z" fill="black"/>
<path d="M36.6249 121.791H30.5416V127.875H36.6249V121.791Z" fill="black"/>
<path d="M42.7083 121.791H36.6249V127.875H42.7083V121.791Z" fill="black"/>
<path d="M60.9582 121.791H54.8749V127.875H60.9582V121.791Z" fill="black"/>
<path d="M67.0416 121.791H60.9582V127.875H67.0416L67.0416 121.791Z" fill="black"/>
<path d="M73.1249 121.791H67.0416L67.0416 127.875H73.1249V121.791Z" fill="black"/>
<path d="M85.2915 121.791H79.2082V127.875H85.2915V121.791Z" fill="black"/>
<path d="M109.625 121.791H103.542V127.875H109.625V121.791Z" fill="black"/>
<path d="M115.708 121.791H109.625V127.875H115.708V121.791Z" fill="black"/>
</svg>
