<svg width="26" height="28" viewBox="0 0 26 28" fill="none" xmlns="http://www.w3.org/2000/svg">
<path d="M25.1958 23.2827L19.0366 17.7711C18.3995 17.1674 17.7186 16.8921 17.1693 16.9178C18.6238 15.1256 19.5014 12.8016 19.5014 10.2604C19.5014 4.59326 15.1363 0 9.75069 0C4.36506 0 0 4.59326 0 10.2604C0 15.9276 4.36506 20.5209 9.75069 20.5209C12.1656 20.5209 14.3741 19.5975 16.0773 18.0669C16.0513 18.6449 16.3145 19.3615 16.8882 20.0318L22.1259 26.513C23.023 27.5613 24.4872 27.6502 25.381 26.7097C26.2749 25.7691 26.1903 24.2266 25.1942 23.2844L25.1958 23.2827ZM9.75069 17.099C6.16081 17.099 3.25023 14.0363 3.25023 10.2587C3.25023 6.48118 6.16081 3.41844 9.75069 3.41844C13.3406 3.41844 16.2511 6.48118 16.2511 10.2587C16.2511 14.0363 13.3406 17.099 9.75069 17.099Z" fill="#757575"/>
</svg>
